G04 #@! TF.GenerationSoftware,KiCad,Pcbnew,(5.1.0)-1*
G04 #@! TF.CreationDate,2019-04-01T15:13:34+02:00*
G04 #@! TF.ProjectId,WiFi switch,57694669-2073-4776-9974-63682e6b6963,rev?*
G04 #@! TF.SameCoordinates,Original*
G04 #@! TF.FileFunction,Profile,NP*
%FSLAX46Y46*%
G04 Gerber Fmt 4.6, Leading zero omitted, Abs format (unit mm)*
G04 Created by KiCad (PCBNEW (5.1.0)-1) date 2019-04-01 15:13:34*
%MOMM*%
%LPD*%
G04 APERTURE LIST*
%ADD10C,0.150000*%
G04 APERTURE END LIST*
D10*
X177000000Y-75000000D02*
X177000000Y-135000000D01*
X226000000Y-75000000D02*
X177000000Y-75000000D01*
X226000000Y-135000000D02*
X226000000Y-75000000D01*
X177000000Y-135000000D02*
X226000000Y-135000000D01*
X217960000Y-105925000D02*
X217960000Y-109000000D01*
X217005000Y-109000000D02*
X217000000Y-106010000D01*
X219960000Y-112000000D02*
X221500000Y-112000000D01*
X221500000Y-111000000D02*
X220000000Y-111000000D01*
X221500000Y-111000000D02*
G75*
G02X221500000Y-112000000I0J-500000D01*
G01*
X219960000Y-112000000D02*
G75*
G02X217005000Y-109045000I0J2955000D01*
G01*
X219960000Y-111000000D02*
G75*
G02X217960000Y-109000000I0J2000000D01*
G01*
X211000000Y-106009492D02*
X210995012Y-109000000D01*
X209960000Y-109000000D02*
X209960000Y-105925000D01*
X199500000Y-112001597D02*
X207960000Y-112000000D01*
X199460000Y-111000000D02*
X207960000Y-111000000D01*
X199500000Y-112001597D02*
G75*
G02X199460000Y-111000000I0J501597D01*
G01*
X211000000Y-109000000D02*
G75*
G02X208000000Y-112000000I-3000000J0D01*
G01*
X209960000Y-109000000D02*
G75*
G02X207960000Y-111000000I-2000000J0D01*
G01*
X209960000Y-105925000D02*
G75*
G02X217960000Y-105925000I4000000J0D01*
G01*
X211000418Y-106015166D02*
G75*
G02X217000000Y-106000000I2999582J90166D01*
G01*
M02*
