G04 #@! TF.GenerationSoftware,KiCad,Pcbnew,(5.1.0)-1*
G04 #@! TF.CreationDate,2019-03-27T16:53:22+01:00*
G04 #@! TF.ProjectId,WiFi switch,57694669-2073-4776-9974-63682e6b6963,rev?*
G04 #@! TF.SameCoordinates,Original*
G04 #@! TF.FileFunction,Paste,Top*
G04 #@! TF.FilePolarity,Positive*
%FSLAX46Y46*%
G04 Gerber Fmt 4.6, Leading zero omitted, Abs format (unit mm)*
G04 Created by KiCad (PCBNEW (5.1.0)-1) date 2019-03-27 16:53:22*
%MOMM*%
%LPD*%
G04 APERTURE LIST*
%ADD10R,2.500000X1.000000*%
%ADD11R,1.000000X1.800000*%
%ADD12R,0.800000X1.900000*%
%ADD13R,1.300000X1.500000*%
%ADD14R,3.500000X1.800000*%
%ADD15R,1.500000X1.250000*%
%ADD16R,1.500000X1.300000*%
%ADD17R,1.300000X1.550000*%
G04 APERTURE END LIST*
D10*
X210165000Y-73970000D03*
X210165000Y-75970000D03*
X210165000Y-77970000D03*
X210165000Y-79970000D03*
X210165000Y-81970000D03*
X210165000Y-83970000D03*
X210165000Y-85970000D03*
X210165000Y-87970000D03*
D11*
X207565000Y-89470000D03*
X205565000Y-89470000D03*
X203565000Y-89470000D03*
X201565000Y-89470000D03*
X199565000Y-89470000D03*
X197565000Y-89470000D03*
D10*
X194965000Y-87970000D03*
X194965000Y-85970000D03*
X194965000Y-83970000D03*
X194965000Y-81970000D03*
X194965000Y-79970000D03*
X194965000Y-77970000D03*
X194965000Y-75970000D03*
X194965000Y-73970000D03*
D12*
X217100000Y-70945000D03*
X219000000Y-70945000D03*
X218050000Y-67945000D03*
X210185000Y-93750000D03*
X208285000Y-93750000D03*
X209235000Y-96750000D03*
X214310000Y-70945000D03*
X213360000Y-67945000D03*
X215260000Y-67945000D03*
D13*
X187325000Y-67150000D03*
X187325000Y-69850000D03*
D14*
X214670000Y-95885000D03*
X219670000Y-95885000D03*
D13*
X184785000Y-75090000D03*
X184785000Y-72390000D03*
D15*
X215900000Y-89535000D03*
X218400000Y-89535000D03*
X191095000Y-88265000D03*
X188595000Y-88265000D03*
X188595000Y-85725000D03*
X191095000Y-85725000D03*
D13*
X184785000Y-67150000D03*
X184785000Y-69850000D03*
X187325000Y-80170000D03*
X187325000Y-77470000D03*
D16*
X218600000Y-80010000D03*
X215900000Y-80010000D03*
X218600000Y-83185000D03*
X215900000Y-83185000D03*
D13*
X189865000Y-72390000D03*
X189865000Y-75090000D03*
D16*
X218600000Y-86360000D03*
X215900000Y-86360000D03*
X215900000Y-76835000D03*
X218600000Y-76835000D03*
X218600000Y-73660000D03*
X215900000Y-73660000D03*
D13*
X205740000Y-94535000D03*
X205740000Y-97235000D03*
X187325000Y-75090000D03*
X187325000Y-72390000D03*
X184785000Y-80170000D03*
X184785000Y-77470000D03*
X189865000Y-80170000D03*
X189865000Y-77470000D03*
D17*
X186400000Y-82550000D03*
X181900000Y-82550000D03*
X181900000Y-90510000D03*
X186400000Y-90510000D03*
M02*
