G04 #@! TF.GenerationSoftware,KiCad,Pcbnew,(5.1.0)-1*
G04 #@! TF.CreationDate,2019-04-01T15:13:31+02:00*
G04 #@! TF.ProjectId,WiFi switch,57694669-2073-4776-9974-63682e6b6963,rev?*
G04 #@! TF.SameCoordinates,Original*
G04 #@! TF.FileFunction,Legend,Top*
G04 #@! TF.FilePolarity,Positive*
%FSLAX46Y46*%
G04 Gerber Fmt 4.6, Leading zero omitted, Abs format (unit mm)*
G04 Created by KiCad (PCBNEW (5.1.0)-1) date 2019-04-01 15:13:32*
%MOMM*%
%LPD*%
G04 APERTURE LIST*
%ADD10C,0.200000*%
%ADD11C,0.100000*%
%ADD12C,0.120000*%
%ADD13C,0.150000*%
G04 APERTURE END LIST*
D10*
X223333571Y-126959285D02*
X224833571Y-126602142D01*
X223762142Y-126316428D01*
X224833571Y-126030714D01*
X223333571Y-125673571D01*
X224833571Y-125102142D02*
X223833571Y-125102142D01*
X223333571Y-125102142D02*
X223405000Y-125173571D01*
X223476428Y-125102142D01*
X223405000Y-125030714D01*
X223333571Y-125102142D01*
X223476428Y-125102142D01*
X224047857Y-123887857D02*
X224047857Y-124387857D01*
X224833571Y-124387857D02*
X223333571Y-124387857D01*
X223333571Y-123673571D01*
X224833571Y-123102142D02*
X223833571Y-123102142D01*
X223333571Y-123102142D02*
X223405000Y-123173571D01*
X223476428Y-123102142D01*
X223405000Y-123030714D01*
X223333571Y-123102142D01*
X223476428Y-123102142D01*
X224762142Y-121316428D02*
X224833571Y-121102142D01*
X224833571Y-120745000D01*
X224762142Y-120602142D01*
X224690714Y-120530714D01*
X224547857Y-120459285D01*
X224405000Y-120459285D01*
X224262142Y-120530714D01*
X224190714Y-120602142D01*
X224119285Y-120745000D01*
X224047857Y-121030714D01*
X223976428Y-121173571D01*
X223905000Y-121245000D01*
X223762142Y-121316428D01*
X223619285Y-121316428D01*
X223476428Y-121245000D01*
X223405000Y-121173571D01*
X223333571Y-121030714D01*
X223333571Y-120673571D01*
X223405000Y-120459285D01*
X223833571Y-119959285D02*
X224833571Y-119673571D01*
X224119285Y-119387857D01*
X224833571Y-119102142D01*
X223833571Y-118816428D01*
X224833571Y-118245000D02*
X223833571Y-118245000D01*
X223333571Y-118245000D02*
X223405000Y-118316428D01*
X223476428Y-118245000D01*
X223405000Y-118173571D01*
X223333571Y-118245000D01*
X223476428Y-118245000D01*
X223833571Y-117745000D02*
X223833571Y-117173571D01*
X223333571Y-117530714D02*
X224619285Y-117530714D01*
X224762142Y-117459285D01*
X224833571Y-117316428D01*
X224833571Y-117173571D01*
X224762142Y-116030714D02*
X224833571Y-116173571D01*
X224833571Y-116459285D01*
X224762142Y-116602142D01*
X224690714Y-116673571D01*
X224547857Y-116745000D01*
X224119285Y-116745000D01*
X223976428Y-116673571D01*
X223905000Y-116602142D01*
X223833571Y-116459285D01*
X223833571Y-116173571D01*
X223905000Y-116030714D01*
X224833571Y-115387857D02*
X223333571Y-115387857D01*
X224833571Y-114745000D02*
X224047857Y-114745000D01*
X223905000Y-114816428D01*
X223833571Y-114959285D01*
X223833571Y-115173571D01*
X223905000Y-115316428D01*
X223976428Y-115387857D01*
X224833571Y-112030714D02*
X224119285Y-112530714D01*
X224833571Y-112887857D02*
X223333571Y-112887857D01*
X223333571Y-112316428D01*
X223405000Y-112173571D01*
X223476428Y-112102142D01*
X223619285Y-112030714D01*
X223833571Y-112030714D01*
X223976428Y-112102142D01*
X224047857Y-112173571D01*
X224119285Y-112316428D01*
X224119285Y-112887857D01*
X223476428Y-111459285D02*
X223405000Y-111387857D01*
X223333571Y-111245000D01*
X223333571Y-110887857D01*
X223405000Y-110745000D01*
X223476428Y-110673571D01*
X223619285Y-110602142D01*
X223762142Y-110602142D01*
X223976428Y-110673571D01*
X224833571Y-111530714D01*
X224833571Y-110602142D01*
D11*
X212468571Y-100601428D02*
X212468571Y-100001428D01*
X212754285Y-100201428D02*
X212754285Y-100601428D01*
X212754285Y-100258571D02*
X212782857Y-100230000D01*
X212840000Y-100201428D01*
X212925714Y-100201428D01*
X212982857Y-100230000D01*
X213011428Y-100287142D01*
X213011428Y-100601428D01*
X213240000Y-100201428D02*
X213382857Y-100601428D01*
X213525714Y-100201428D01*
X213754285Y-100601428D02*
X213754285Y-100201428D01*
X213754285Y-100001428D02*
X213725714Y-100030000D01*
X213754285Y-100058571D01*
X213782857Y-100030000D01*
X213754285Y-100001428D01*
X213754285Y-100058571D01*
X213982857Y-100201428D02*
X214297142Y-100201428D01*
X213982857Y-100601428D01*
X214297142Y-100601428D01*
X214754285Y-100572857D02*
X214697142Y-100601428D01*
X214582857Y-100601428D01*
X214525714Y-100572857D01*
X214497142Y-100515714D01*
X214497142Y-100287142D01*
X214525714Y-100230000D01*
X214582857Y-100201428D01*
X214697142Y-100201428D01*
X214754285Y-100230000D01*
X214782857Y-100287142D01*
X214782857Y-100344285D01*
X214497142Y-100401428D01*
X215468571Y-100430000D02*
X215754285Y-100430000D01*
X215411428Y-100601428D02*
X215611428Y-100001428D01*
X215811428Y-100601428D01*
X216211428Y-100287142D02*
X216297142Y-100315714D01*
X216325714Y-100344285D01*
X216354285Y-100401428D01*
X216354285Y-100487142D01*
X216325714Y-100544285D01*
X216297142Y-100572857D01*
X216240000Y-100601428D01*
X216011428Y-100601428D01*
X216011428Y-100001428D01*
X216211428Y-100001428D01*
X216268571Y-100030000D01*
X216297142Y-100058571D01*
X216325714Y-100115714D01*
X216325714Y-100172857D01*
X216297142Y-100230000D01*
X216268571Y-100258571D01*
X216211428Y-100287142D01*
X216011428Y-100287142D01*
X217497142Y-99972857D02*
X216982857Y-100744285D01*
X218354285Y-100287142D02*
X218440000Y-100315714D01*
X218468571Y-100344285D01*
X218497142Y-100401428D01*
X218497142Y-100487142D01*
X218468571Y-100544285D01*
X218440000Y-100572857D01*
X218382857Y-100601428D01*
X218154285Y-100601428D01*
X218154285Y-100001428D01*
X218354285Y-100001428D01*
X218411428Y-100030000D01*
X218440000Y-100058571D01*
X218468571Y-100115714D01*
X218468571Y-100172857D01*
X218440000Y-100230000D01*
X218411428Y-100258571D01*
X218354285Y-100287142D01*
X218154285Y-100287142D01*
X218697142Y-100201428D02*
X218840000Y-100601428D01*
X218982857Y-100201428D02*
X218840000Y-100601428D01*
X218782857Y-100744285D01*
X218754285Y-100772857D01*
X218697142Y-100801428D01*
X219468571Y-100201428D02*
X219468571Y-100687142D01*
X219440000Y-100744285D01*
X219411428Y-100772857D01*
X219354285Y-100801428D01*
X219268571Y-100801428D01*
X219211428Y-100772857D01*
X219468571Y-100572857D02*
X219411428Y-100601428D01*
X219297142Y-100601428D01*
X219240000Y-100572857D01*
X219211428Y-100544285D01*
X219182857Y-100487142D01*
X219182857Y-100315714D01*
X219211428Y-100258571D01*
X219240000Y-100230000D01*
X219297142Y-100201428D01*
X219411428Y-100201428D01*
X219468571Y-100230000D01*
X220011428Y-100201428D02*
X220011428Y-100687142D01*
X219982857Y-100744285D01*
X219954285Y-100772857D01*
X219897142Y-100801428D01*
X219811428Y-100801428D01*
X219754285Y-100772857D01*
X220011428Y-100572857D02*
X219954285Y-100601428D01*
X219840000Y-100601428D01*
X219782857Y-100572857D01*
X219754285Y-100544285D01*
X219725714Y-100487142D01*
X219725714Y-100315714D01*
X219754285Y-100258571D01*
X219782857Y-100230000D01*
X219840000Y-100201428D01*
X219954285Y-100201428D01*
X220011428Y-100230000D01*
X220554285Y-100601428D02*
X220554285Y-100287142D01*
X220525714Y-100230000D01*
X220468571Y-100201428D01*
X220354285Y-100201428D01*
X220297142Y-100230000D01*
X220554285Y-100572857D02*
X220497142Y-100601428D01*
X220354285Y-100601428D01*
X220297142Y-100572857D01*
X220268571Y-100515714D01*
X220268571Y-100458571D01*
X220297142Y-100401428D01*
X220354285Y-100372857D01*
X220497142Y-100372857D01*
X220554285Y-100344285D01*
X221182857Y-100601428D02*
X220982857Y-100315714D01*
X220840000Y-100601428D02*
X220840000Y-100001428D01*
X221068571Y-100001428D01*
X221125714Y-100030000D01*
X221154285Y-100058571D01*
X221182857Y-100115714D01*
X221182857Y-100201428D01*
X221154285Y-100258571D01*
X221125714Y-100287142D01*
X221068571Y-100315714D01*
X220840000Y-100315714D01*
X221525714Y-100601428D02*
X221468571Y-100572857D01*
X221440000Y-100544285D01*
X221411428Y-100487142D01*
X221411428Y-100315714D01*
X221440000Y-100258571D01*
X221468571Y-100230000D01*
X221525714Y-100201428D01*
X221611428Y-100201428D01*
X221668571Y-100230000D01*
X221697142Y-100258571D01*
X221725714Y-100315714D01*
X221725714Y-100487142D01*
X221697142Y-100544285D01*
X221668571Y-100572857D01*
X221611428Y-100601428D01*
X221525714Y-100601428D01*
X221982857Y-100601428D02*
X221982857Y-100001428D01*
X221982857Y-100230000D02*
X222040000Y-100201428D01*
X222154285Y-100201428D01*
X222211428Y-100230000D01*
X222240000Y-100258571D01*
X222268571Y-100315714D01*
X222268571Y-100487142D01*
X222240000Y-100544285D01*
X222211428Y-100572857D01*
X222154285Y-100601428D01*
X222040000Y-100601428D01*
X221982857Y-100572857D01*
X222611428Y-100601428D02*
X222554285Y-100572857D01*
X222525714Y-100544285D01*
X222497142Y-100487142D01*
X222497142Y-100315714D01*
X222525714Y-100258571D01*
X222554285Y-100230000D01*
X222611428Y-100201428D01*
X222697142Y-100201428D01*
X222754285Y-100230000D01*
X222782857Y-100258571D01*
X222811428Y-100315714D01*
X222811428Y-100487142D01*
X222782857Y-100544285D01*
X222754285Y-100572857D01*
X222697142Y-100601428D01*
X222611428Y-100601428D01*
X222982857Y-100201428D02*
X223211428Y-100201428D01*
X223068571Y-100001428D02*
X223068571Y-100515714D01*
X223097142Y-100572857D01*
X223154285Y-100601428D01*
X223211428Y-100601428D01*
X223411428Y-100544285D02*
X223440000Y-100572857D01*
X223411428Y-100601428D01*
X223382857Y-100572857D01*
X223411428Y-100544285D01*
X223411428Y-100601428D01*
X223668571Y-100572857D02*
X223725714Y-100601428D01*
X223840000Y-100601428D01*
X223897142Y-100572857D01*
X223925714Y-100515714D01*
X223925714Y-100487142D01*
X223897142Y-100430000D01*
X223840000Y-100401428D01*
X223754285Y-100401428D01*
X223697142Y-100372857D01*
X223668571Y-100315714D01*
X223668571Y-100287142D01*
X223697142Y-100230000D01*
X223754285Y-100201428D01*
X223840000Y-100201428D01*
X223897142Y-100230000D01*
X224411428Y-100572857D02*
X224354285Y-100601428D01*
X224240000Y-100601428D01*
X224182857Y-100572857D01*
X224154285Y-100515714D01*
X224154285Y-100287142D01*
X224182857Y-100230000D01*
X224240000Y-100201428D01*
X224354285Y-100201428D01*
X224411428Y-100230000D01*
X224440000Y-100287142D01*
X224440000Y-100344285D01*
X224154285Y-100401428D01*
X220680000Y-89992142D02*
X220651428Y-90049285D01*
X220651428Y-90135000D01*
X220680000Y-90220714D01*
X220737142Y-90277857D01*
X220794285Y-90306428D01*
X220908571Y-90335000D01*
X220994285Y-90335000D01*
X221108571Y-90306428D01*
X221165714Y-90277857D01*
X221222857Y-90220714D01*
X221251428Y-90135000D01*
X221251428Y-90077857D01*
X221222857Y-89992142D01*
X221194285Y-89963571D01*
X220994285Y-89963571D01*
X220994285Y-90077857D01*
X221251428Y-89706428D02*
X220651428Y-89706428D01*
X221251428Y-89363571D01*
X220651428Y-89363571D01*
X221251428Y-89077857D02*
X220651428Y-89077857D01*
X220651428Y-88935000D01*
X220680000Y-88849285D01*
X220737142Y-88792142D01*
X220794285Y-88763571D01*
X220908571Y-88735000D01*
X220994285Y-88735000D01*
X221108571Y-88763571D01*
X221165714Y-88792142D01*
X221222857Y-88849285D01*
X221251428Y-88935000D01*
X221251428Y-89077857D01*
X221251428Y-87323571D02*
X220965714Y-87523571D01*
X221251428Y-87666428D02*
X220651428Y-87666428D01*
X220651428Y-87437857D01*
X220680000Y-87380714D01*
X220708571Y-87352142D01*
X220765714Y-87323571D01*
X220851428Y-87323571D01*
X220908571Y-87352142D01*
X220937142Y-87380714D01*
X220965714Y-87437857D01*
X220965714Y-87666428D01*
X220651428Y-87152142D02*
X220651428Y-86809285D01*
X221251428Y-86980714D02*
X220651428Y-86980714D01*
X221222857Y-86637857D02*
X221251428Y-86552142D01*
X221251428Y-86409285D01*
X221222857Y-86352142D01*
X221194285Y-86323571D01*
X221137142Y-86295000D01*
X221080000Y-86295000D01*
X221022857Y-86323571D01*
X220994285Y-86352142D01*
X220965714Y-86409285D01*
X220937142Y-86523571D01*
X220908571Y-86580714D01*
X220880000Y-86609285D01*
X220822857Y-86637857D01*
X220765714Y-86637857D01*
X220708571Y-86609285D01*
X220680000Y-86580714D01*
X220651428Y-86523571D01*
X220651428Y-86380714D01*
X220680000Y-86295000D01*
X220651428Y-85340714D02*
X220651428Y-84969285D01*
X220880000Y-85169285D01*
X220880000Y-85083571D01*
X220908571Y-85026428D01*
X220937142Y-84997857D01*
X220994285Y-84969285D01*
X221137142Y-84969285D01*
X221194285Y-84997857D01*
X221222857Y-85026428D01*
X221251428Y-85083571D01*
X221251428Y-85255000D01*
X221222857Y-85312142D01*
X221194285Y-85340714D01*
X221194285Y-84712142D02*
X221222857Y-84683571D01*
X221251428Y-84712142D01*
X221222857Y-84740714D01*
X221194285Y-84712142D01*
X221251428Y-84712142D01*
X220651428Y-84483571D02*
X220651428Y-84112142D01*
X220880000Y-84312142D01*
X220880000Y-84226428D01*
X220908571Y-84169285D01*
X220937142Y-84140714D01*
X220994285Y-84112142D01*
X221137142Y-84112142D01*
X221194285Y-84140714D01*
X221222857Y-84169285D01*
X221251428Y-84226428D01*
X221251428Y-84397857D01*
X221222857Y-84455000D01*
X221194285Y-84483571D01*
X220651428Y-83940714D02*
X221251428Y-83740714D01*
X220651428Y-83540714D01*
X221251428Y-82015000D02*
X220965714Y-82215000D01*
X221251428Y-82357857D02*
X220651428Y-82357857D01*
X220651428Y-82129285D01*
X220680000Y-82072142D01*
X220708571Y-82043571D01*
X220765714Y-82015000D01*
X220851428Y-82015000D01*
X220908571Y-82043571D01*
X220937142Y-82072142D01*
X220965714Y-82129285D01*
X220965714Y-82357857D01*
X220651428Y-81815000D02*
X221251428Y-81415000D01*
X220651428Y-81415000D02*
X221251428Y-81815000D01*
X221251428Y-77520714D02*
X220651428Y-77520714D01*
X220651428Y-77377857D01*
X220680000Y-77292142D01*
X220737142Y-77235000D01*
X220794285Y-77206428D01*
X220908571Y-77177857D01*
X220994285Y-77177857D01*
X221108571Y-77206428D01*
X221165714Y-77235000D01*
X221222857Y-77292142D01*
X221251428Y-77377857D01*
X221251428Y-77520714D01*
X220651428Y-77006428D02*
X220651428Y-76663571D01*
X221251428Y-76835000D02*
X220651428Y-76835000D01*
X221251428Y-76120714D02*
X220965714Y-76320714D01*
X221251428Y-76463571D02*
X220651428Y-76463571D01*
X220651428Y-76235000D01*
X220680000Y-76177857D01*
X220708571Y-76149285D01*
X220765714Y-76120714D01*
X220851428Y-76120714D01*
X220908571Y-76149285D01*
X220937142Y-76177857D01*
X220965714Y-76235000D01*
X220965714Y-76463571D01*
X220651428Y-79832142D02*
X220651428Y-79489285D01*
X221251428Y-79660714D02*
X220651428Y-79660714D01*
X220651428Y-79346428D02*
X221251428Y-78946428D01*
X220651428Y-78946428D02*
X221251428Y-79346428D01*
D12*
X204860000Y-79025000D02*
X204860000Y-77825000D01*
X206620000Y-77825000D02*
X206620000Y-79025000D01*
X177025000Y-125190000D02*
X177025000Y-119190000D01*
X199795000Y-126160000D02*
X199795000Y-92220000D01*
X177355000Y-126160000D02*
X177355000Y-92220000D01*
X177355000Y-92220000D02*
X199795000Y-92220000D01*
X199795000Y-126160000D02*
X177355000Y-126160000D01*
X217170000Y-132715000D02*
X207010000Y-132715000D01*
X217170000Y-133985000D02*
X217170000Y-126365000D01*
X217170000Y-126365000D02*
X207010000Y-126365000D01*
X207010000Y-126365000D02*
X207010000Y-133985000D01*
X207010000Y-133985000D02*
X217170000Y-133985000D01*
X217860000Y-82050000D02*
X217860000Y-81440000D01*
X217860000Y-82050000D02*
X225480000Y-82050000D01*
X201240000Y-82050000D02*
X201860000Y-82050000D01*
X201240000Y-84170000D02*
X201240000Y-82050000D01*
X201240000Y-98290000D02*
X201240000Y-96170000D01*
X201860000Y-98290000D02*
X201240000Y-98290000D01*
X225480000Y-98290000D02*
X217860000Y-98290000D01*
X225480000Y-82050000D02*
X225480000Y-98290000D01*
X196783478Y-79943478D02*
G75*
G03X194945000Y-75505000I-1838478J1838478D01*
G01*
X193106522Y-79943478D02*
G75*
G02X194945000Y-75505000I1838478J1838478D01*
G01*
X193145000Y-79955000D02*
X196745000Y-79955000D01*
X215350000Y-108200000D02*
X218500000Y-108200000D01*
X209500000Y-108200000D02*
X212650000Y-108200000D01*
X213000000Y-103090000D02*
X215000000Y-103090000D01*
X213650000Y-108800000D02*
X214350000Y-108800000D01*
X213650000Y-107600000D02*
X213650000Y-108800000D01*
X214350000Y-107600000D02*
X213650000Y-107600000D01*
X214350000Y-108800000D02*
X214350000Y-107600000D01*
X213650000Y-108400000D02*
X214350000Y-108000000D01*
X205650000Y-126050000D02*
X222350000Y-126050000D01*
X205650000Y-103350000D02*
X205650000Y-126050000D01*
X222350000Y-103350000D02*
X205650000Y-103350000D01*
X222350000Y-126050000D02*
X222350000Y-103350000D01*
X179185000Y-90570000D02*
X185645000Y-90570000D01*
X179185000Y-86040000D02*
X179185000Y-88640000D01*
X179185000Y-84110000D02*
X185645000Y-84110000D01*
X185645000Y-86040000D02*
X185645000Y-88640000D01*
X179185000Y-84140000D02*
X179185000Y-84110000D01*
X179185000Y-90570000D02*
X179185000Y-90540000D01*
X185645000Y-90570000D02*
X185645000Y-90540000D01*
X185645000Y-84110000D02*
X185645000Y-84140000D01*
X201510000Y-78875000D02*
X201510000Y-77875000D01*
X199810000Y-77875000D02*
X199810000Y-78875000D01*
X197905000Y-77875000D02*
X197905000Y-78875000D01*
X199605000Y-78875000D02*
X199605000Y-77875000D01*
X208065000Y-100830000D02*
X208065000Y-101830000D01*
X209765000Y-101830000D02*
X209765000Y-100830000D01*
X182015000Y-83400000D02*
X183015000Y-83400000D01*
X183015000Y-81700000D02*
X182015000Y-81700000D01*
X184720000Y-79440000D02*
X186120000Y-79440000D01*
X186120000Y-79440000D02*
X186120000Y-76640000D01*
X184720000Y-79440000D02*
X184720000Y-76640000D01*
X187260000Y-79440000D02*
X187260000Y-76640000D01*
X188660000Y-79440000D02*
X188660000Y-76640000D01*
X187260000Y-79440000D02*
X188660000Y-79440000D01*
X200915000Y-110175000D02*
X200915000Y-104775000D01*
X204215000Y-110175000D02*
X204215000Y-104775000D01*
X200915000Y-110175000D02*
X204215000Y-110175000D01*
D13*
X206130000Y-131105000D02*
X197730000Y-131105000D01*
X197730000Y-131105000D02*
X197730000Y-126705000D01*
X206130000Y-131105000D02*
X206130000Y-126705000D01*
X206130000Y-126705000D02*
X197730000Y-126705000D01*
D12*
X204685000Y-112470000D02*
X204685000Y-121210000D01*
X204685000Y-112470000D02*
X200445000Y-112470000D01*
X200445000Y-121210000D02*
X204685000Y-121210000D01*
X200445000Y-121210000D02*
X200445000Y-112470000D01*
X186690000Y-133985000D02*
X196850000Y-133985000D01*
X186690000Y-126365000D02*
X186690000Y-133985000D01*
X196850000Y-126365000D02*
X186690000Y-126365000D01*
X196850000Y-133985000D02*
X196850000Y-126365000D01*
X196850000Y-132715000D02*
X186690000Y-132715000D01*
X209490000Y-78165000D02*
X209490000Y-76835000D01*
X210820000Y-78165000D02*
X209490000Y-78165000D01*
X212090000Y-78165000D02*
X212090000Y-75505000D01*
X212090000Y-75505000D02*
X219770000Y-75505000D01*
X212090000Y-78165000D02*
X219770000Y-78165000D01*
X219770000Y-78165000D02*
X219770000Y-75505000D01*
X200350000Y-101995000D02*
X200350000Y-100535000D01*
X203510000Y-101995000D02*
X203510000Y-99835000D01*
X203510000Y-101995000D02*
X202580000Y-101995000D01*
X200350000Y-101995000D02*
X201280000Y-101995000D01*
X191380000Y-80995000D02*
X191380000Y-82195000D01*
X189620000Y-82195000D02*
X189620000Y-80995000D01*
X206765000Y-79025000D02*
X206765000Y-77825000D01*
X208525000Y-77825000D02*
X208525000Y-79025000D01*
X178155000Y-81670000D02*
X179355000Y-81670000D01*
X179355000Y-83430000D02*
X178155000Y-83430000D01*
X206130000Y-101880000D02*
X206130000Y-100680000D01*
X207890000Y-100680000D02*
X207890000Y-101880000D01*
X184540000Y-82195000D02*
X184540000Y-80995000D01*
X186300000Y-80995000D02*
X186300000Y-82195000D01*
X188840000Y-80995000D02*
X188840000Y-82195000D01*
X187080000Y-82195000D02*
X187080000Y-80995000D01*
X204715000Y-77825000D02*
X204715000Y-79025000D01*
X202955000Y-79025000D02*
X202955000Y-77825000D01*
X204225000Y-101880000D02*
X204225000Y-100680000D01*
X205985000Y-100680000D02*
X205985000Y-101880000D01*
X189980000Y-90570000D02*
X196440000Y-90570000D01*
X189980000Y-86040000D02*
X189980000Y-88640000D01*
X189980000Y-84110000D02*
X196440000Y-84110000D01*
X196440000Y-86040000D02*
X196440000Y-88640000D01*
X189980000Y-84140000D02*
X189980000Y-84110000D01*
X189980000Y-90570000D02*
X189980000Y-90540000D01*
X196440000Y-90570000D02*
X196440000Y-90540000D01*
X196440000Y-84110000D02*
X196440000Y-84140000D01*
D13*
X204542380Y-78591666D02*
X204066190Y-78925000D01*
X204542380Y-79163095D02*
X203542380Y-79163095D01*
X203542380Y-78782142D01*
X203590000Y-78686904D01*
X203637619Y-78639285D01*
X203732857Y-78591666D01*
X203875714Y-78591666D01*
X203970952Y-78639285D01*
X204018571Y-78686904D01*
X204066190Y-78782142D01*
X204066190Y-79163095D01*
X204542380Y-77639285D02*
X204542380Y-78210714D01*
X204542380Y-77925000D02*
X203542380Y-77925000D01*
X203685238Y-78020238D01*
X203780476Y-78115476D01*
X203828095Y-78210714D01*
X176627380Y-125204285D02*
X175627380Y-125204285D01*
X175627380Y-124823333D01*
X175675000Y-124728095D01*
X175722619Y-124680476D01*
X175817857Y-124632857D01*
X175960714Y-124632857D01*
X176055952Y-124680476D01*
X176103571Y-124728095D01*
X176151190Y-124823333D01*
X176151190Y-125204285D01*
X176579761Y-124251904D02*
X176627380Y-124109047D01*
X176627380Y-123870952D01*
X176579761Y-123775714D01*
X176532142Y-123728095D01*
X176436904Y-123680476D01*
X176341666Y-123680476D01*
X176246428Y-123728095D01*
X176198809Y-123775714D01*
X176151190Y-123870952D01*
X176103571Y-124061428D01*
X176055952Y-124156666D01*
X176008333Y-124204285D01*
X175913095Y-124251904D01*
X175817857Y-124251904D01*
X175722619Y-124204285D01*
X175675000Y-124156666D01*
X175627380Y-124061428D01*
X175627380Y-123823333D01*
X175675000Y-123680476D01*
X176627380Y-122728095D02*
X176627380Y-123299523D01*
X176627380Y-123013809D02*
X175627380Y-123013809D01*
X175770238Y-123109047D01*
X175865476Y-123204285D01*
X175913095Y-123299523D01*
X178887380Y-101607380D02*
X177887380Y-101607380D01*
X178887380Y-100559761D02*
X178411190Y-100893095D01*
X178887380Y-101131190D02*
X177887380Y-101131190D01*
X177887380Y-100750238D01*
X177935000Y-100655000D01*
X177982619Y-100607380D01*
X178077857Y-100559761D01*
X178220714Y-100559761D01*
X178315952Y-100607380D01*
X178363571Y-100655000D01*
X178411190Y-100750238D01*
X178411190Y-101131190D01*
X178887380Y-100131190D02*
X177887380Y-100131190D01*
X178601666Y-99797857D01*
X177887380Y-99464523D01*
X178887380Y-99464523D01*
X178506428Y-98988333D02*
X178506428Y-98226428D01*
X177887380Y-97559761D02*
X177887380Y-97464523D01*
X177935000Y-97369285D01*
X177982619Y-97321666D01*
X178077857Y-97274047D01*
X178268333Y-97226428D01*
X178506428Y-97226428D01*
X178696904Y-97274047D01*
X178792142Y-97321666D01*
X178839761Y-97369285D01*
X178887380Y-97464523D01*
X178887380Y-97559761D01*
X178839761Y-97655000D01*
X178792142Y-97702619D01*
X178696904Y-97750238D01*
X178506428Y-97797857D01*
X178268333Y-97797857D01*
X178077857Y-97750238D01*
X177982619Y-97702619D01*
X177935000Y-97655000D01*
X177887380Y-97559761D01*
X177982619Y-96845476D02*
X177935000Y-96797857D01*
X177887380Y-96702619D01*
X177887380Y-96464523D01*
X177935000Y-96369285D01*
X177982619Y-96321666D01*
X178077857Y-96274047D01*
X178173095Y-96274047D01*
X178315952Y-96321666D01*
X178887380Y-96893095D01*
X178887380Y-96274047D01*
X178506428Y-95845476D02*
X178506428Y-95083571D01*
X177887380Y-94702619D02*
X177887380Y-94083571D01*
X178268333Y-94416904D01*
X178268333Y-94274047D01*
X178315952Y-94178809D01*
X178363571Y-94131190D01*
X178458809Y-94083571D01*
X178696904Y-94083571D01*
X178792142Y-94131190D01*
X178839761Y-94178809D01*
X178887380Y-94274047D01*
X178887380Y-94559761D01*
X178839761Y-94655000D01*
X178792142Y-94702619D01*
X178792142Y-93655000D02*
X178839761Y-93607380D01*
X178887380Y-93655000D01*
X178839761Y-93702619D01*
X178792142Y-93655000D01*
X178887380Y-93655000D01*
X177887380Y-93274047D02*
X177887380Y-92655000D01*
X178268333Y-92988333D01*
X178268333Y-92845476D01*
X178315952Y-92750238D01*
X178363571Y-92702619D01*
X178458809Y-92655000D01*
X178696904Y-92655000D01*
X178792142Y-92702619D01*
X178839761Y-92750238D01*
X178887380Y-92845476D01*
X178887380Y-93131190D01*
X178839761Y-93226428D01*
X178792142Y-93274047D01*
X211756666Y-124547380D02*
X211756666Y-125261666D01*
X211709047Y-125404523D01*
X211613809Y-125499761D01*
X211470952Y-125547380D01*
X211375714Y-125547380D01*
X212185238Y-124642619D02*
X212232857Y-124595000D01*
X212328095Y-124547380D01*
X212566190Y-124547380D01*
X212661428Y-124595000D01*
X212709047Y-124642619D01*
X212756666Y-124737857D01*
X212756666Y-124833095D01*
X212709047Y-124975952D01*
X212137619Y-125547380D01*
X212756666Y-125547380D01*
X201168095Y-80097380D02*
X201168095Y-80906904D01*
X201215714Y-81002142D01*
X201263333Y-81049761D01*
X201358571Y-81097380D01*
X201549047Y-81097380D01*
X201644285Y-81049761D01*
X201691904Y-81002142D01*
X201739523Y-80906904D01*
X201739523Y-80097380D01*
X202168095Y-80192619D02*
X202215714Y-80145000D01*
X202310952Y-80097380D01*
X202549047Y-80097380D01*
X202644285Y-80145000D01*
X202691904Y-80192619D01*
X202739523Y-80287857D01*
X202739523Y-80383095D01*
X202691904Y-80525952D01*
X202120476Y-81097380D01*
X202739523Y-81097380D01*
X204454523Y-80573571D02*
X204787857Y-80573571D01*
X204930714Y-81097380D02*
X204454523Y-81097380D01*
X204454523Y-80097380D01*
X204930714Y-80097380D01*
X205311666Y-81049761D02*
X205454523Y-81097380D01*
X205692619Y-81097380D01*
X205787857Y-81049761D01*
X205835476Y-81002142D01*
X205883095Y-80906904D01*
X205883095Y-80811666D01*
X205835476Y-80716428D01*
X205787857Y-80668809D01*
X205692619Y-80621190D01*
X205502142Y-80573571D01*
X205406904Y-80525952D01*
X205359285Y-80478333D01*
X205311666Y-80383095D01*
X205311666Y-80287857D01*
X205359285Y-80192619D01*
X205406904Y-80145000D01*
X205502142Y-80097380D01*
X205740238Y-80097380D01*
X205883095Y-80145000D01*
X206311666Y-81097380D02*
X206311666Y-80097380D01*
X206692619Y-80097380D01*
X206787857Y-80145000D01*
X206835476Y-80192619D01*
X206883095Y-80287857D01*
X206883095Y-80430714D01*
X206835476Y-80525952D01*
X206787857Y-80573571D01*
X206692619Y-80621190D01*
X206311666Y-80621190D01*
X207311666Y-80716428D02*
X208073571Y-80716428D01*
X209073571Y-81097380D02*
X208502142Y-81097380D01*
X208787857Y-81097380D02*
X208787857Y-80097380D01*
X208692619Y-80240238D01*
X208597380Y-80335476D01*
X208502142Y-80383095D01*
X209454523Y-80192619D02*
X209502142Y-80145000D01*
X209597380Y-80097380D01*
X209835476Y-80097380D01*
X209930714Y-80145000D01*
X209978333Y-80192619D01*
X210025952Y-80287857D01*
X210025952Y-80383095D01*
X209978333Y-80525952D01*
X209406904Y-81097380D01*
X210025952Y-81097380D01*
X210787857Y-80573571D02*
X210454523Y-80573571D01*
X210454523Y-81097380D02*
X210454523Y-80097380D01*
X210930714Y-80097380D01*
X191008095Y-75652380D02*
X191008095Y-76461904D01*
X191055714Y-76557142D01*
X191103333Y-76604761D01*
X191198571Y-76652380D01*
X191389047Y-76652380D01*
X191484285Y-76604761D01*
X191531904Y-76557142D01*
X191579523Y-76461904D01*
X191579523Y-75652380D01*
X192484285Y-75652380D02*
X192293809Y-75652380D01*
X192198571Y-75700000D01*
X192150952Y-75747619D01*
X192055714Y-75890476D01*
X192008095Y-76080952D01*
X192008095Y-76461904D01*
X192055714Y-76557142D01*
X192103333Y-76604761D01*
X192198571Y-76652380D01*
X192389047Y-76652380D01*
X192484285Y-76604761D01*
X192531904Y-76557142D01*
X192579523Y-76461904D01*
X192579523Y-76223809D01*
X192531904Y-76128571D01*
X192484285Y-76080952D01*
X192389047Y-76033333D01*
X192198571Y-76033333D01*
X192103333Y-76080952D01*
X192055714Y-76128571D01*
X192008095Y-76223809D01*
X191825952Y-81347380D02*
X191825952Y-80347380D01*
X192064047Y-80347380D01*
X192206904Y-80395000D01*
X192302142Y-80490238D01*
X192349761Y-80585476D01*
X192397380Y-80775952D01*
X192397380Y-80918809D01*
X192349761Y-81109285D01*
X192302142Y-81204523D01*
X192206904Y-81299761D01*
X192064047Y-81347380D01*
X191825952Y-81347380D01*
X192778333Y-81299761D02*
X192921190Y-81347380D01*
X193159285Y-81347380D01*
X193254523Y-81299761D01*
X193302142Y-81252142D01*
X193349761Y-81156904D01*
X193349761Y-81061666D01*
X193302142Y-80966428D01*
X193254523Y-80918809D01*
X193159285Y-80871190D01*
X192968809Y-80823571D01*
X192873571Y-80775952D01*
X192825952Y-80728333D01*
X192778333Y-80633095D01*
X192778333Y-80537857D01*
X192825952Y-80442619D01*
X192873571Y-80395000D01*
X192968809Y-80347380D01*
X193206904Y-80347380D01*
X193349761Y-80395000D01*
X194302142Y-81347380D02*
X193730714Y-81347380D01*
X194016428Y-81347380D02*
X194016428Y-80347380D01*
X193921190Y-80490238D01*
X193825952Y-80585476D01*
X193730714Y-80633095D01*
X194873571Y-80775952D02*
X194778333Y-80728333D01*
X194730714Y-80680714D01*
X194683095Y-80585476D01*
X194683095Y-80537857D01*
X194730714Y-80442619D01*
X194778333Y-80395000D01*
X194873571Y-80347380D01*
X195064047Y-80347380D01*
X195159285Y-80395000D01*
X195206904Y-80442619D01*
X195254523Y-80537857D01*
X195254523Y-80585476D01*
X195206904Y-80680714D01*
X195159285Y-80728333D01*
X195064047Y-80775952D01*
X194873571Y-80775952D01*
X194778333Y-80823571D01*
X194730714Y-80871190D01*
X194683095Y-80966428D01*
X194683095Y-81156904D01*
X194730714Y-81252142D01*
X194778333Y-81299761D01*
X194873571Y-81347380D01*
X195064047Y-81347380D01*
X195159285Y-81299761D01*
X195206904Y-81252142D01*
X195254523Y-81156904D01*
X195254523Y-80966428D01*
X195206904Y-80871190D01*
X195159285Y-80823571D01*
X195064047Y-80775952D01*
X195635476Y-81299761D02*
X195778333Y-81347380D01*
X196016428Y-81347380D01*
X196111666Y-81299761D01*
X196159285Y-81252142D01*
X196206904Y-81156904D01*
X196206904Y-81061666D01*
X196159285Y-80966428D01*
X196111666Y-80918809D01*
X196016428Y-80871190D01*
X195825952Y-80823571D01*
X195730714Y-80775952D01*
X195683095Y-80728333D01*
X195635476Y-80633095D01*
X195635476Y-80537857D01*
X195683095Y-80442619D01*
X195730714Y-80395000D01*
X195825952Y-80347380D01*
X196064047Y-80347380D01*
X196206904Y-80395000D01*
X196587857Y-80442619D02*
X196635476Y-80395000D01*
X196730714Y-80347380D01*
X196968809Y-80347380D01*
X197064047Y-80395000D01*
X197111666Y-80442619D01*
X197159285Y-80537857D01*
X197159285Y-80633095D01*
X197111666Y-80775952D01*
X196540238Y-81347380D01*
X197159285Y-81347380D01*
X197778333Y-80347380D02*
X197873571Y-80347380D01*
X197968809Y-80395000D01*
X198016428Y-80442619D01*
X198064047Y-80537857D01*
X198111666Y-80728333D01*
X198111666Y-80966428D01*
X198064047Y-81156904D01*
X198016428Y-81252142D01*
X197968809Y-81299761D01*
X197873571Y-81347380D01*
X197778333Y-81347380D01*
X197683095Y-81299761D01*
X197635476Y-81252142D01*
X197587857Y-81156904D01*
X197540238Y-80966428D01*
X197540238Y-80728333D01*
X197587857Y-80537857D01*
X197635476Y-80442619D01*
X197683095Y-80395000D01*
X197778333Y-80347380D01*
X204927380Y-125788095D02*
X203927380Y-125788095D01*
X204927380Y-125216666D02*
X204355952Y-125645238D01*
X203927380Y-125216666D02*
X204498809Y-125788095D01*
X204927380Y-124264285D02*
X204927380Y-124835714D01*
X204927380Y-124550000D02*
X203927380Y-124550000D01*
X204070238Y-124645238D01*
X204165476Y-124740476D01*
X204213095Y-124835714D01*
X204927380Y-119548333D02*
X204451190Y-119881666D01*
X204927380Y-120119761D02*
X203927380Y-120119761D01*
X203927380Y-119738809D01*
X203975000Y-119643571D01*
X204022619Y-119595952D01*
X204117857Y-119548333D01*
X204260714Y-119548333D01*
X204355952Y-119595952D01*
X204403571Y-119643571D01*
X204451190Y-119738809D01*
X204451190Y-120119761D01*
X204927380Y-119119761D02*
X203927380Y-119119761D01*
X204641666Y-118786428D01*
X203927380Y-118453095D01*
X204927380Y-118453095D01*
X203927380Y-117500714D02*
X203927380Y-117976904D01*
X204403571Y-118024523D01*
X204355952Y-117976904D01*
X204308333Y-117881666D01*
X204308333Y-117643571D01*
X204355952Y-117548333D01*
X204403571Y-117500714D01*
X204498809Y-117453095D01*
X204736904Y-117453095D01*
X204832142Y-117500714D01*
X204879761Y-117548333D01*
X204927380Y-117643571D01*
X204927380Y-117881666D01*
X204879761Y-117976904D01*
X204832142Y-118024523D01*
X203927380Y-116834047D02*
X203927380Y-116738809D01*
X203975000Y-116643571D01*
X204022619Y-116595952D01*
X204117857Y-116548333D01*
X204308333Y-116500714D01*
X204546428Y-116500714D01*
X204736904Y-116548333D01*
X204832142Y-116595952D01*
X204879761Y-116643571D01*
X204927380Y-116738809D01*
X204927380Y-116834047D01*
X204879761Y-116929285D01*
X204832142Y-116976904D01*
X204736904Y-117024523D01*
X204546428Y-117072142D01*
X204308333Y-117072142D01*
X204117857Y-117024523D01*
X204022619Y-116976904D01*
X203975000Y-116929285D01*
X203927380Y-116834047D01*
X204546428Y-116072142D02*
X204546428Y-115310238D01*
X203927380Y-114929285D02*
X203927380Y-114310238D01*
X204308333Y-114643571D01*
X204308333Y-114500714D01*
X204355952Y-114405476D01*
X204403571Y-114357857D01*
X204498809Y-114310238D01*
X204736904Y-114310238D01*
X204832142Y-114357857D01*
X204879761Y-114405476D01*
X204927380Y-114500714D01*
X204927380Y-114786428D01*
X204879761Y-114881666D01*
X204832142Y-114929285D01*
X203927380Y-113691190D02*
X203927380Y-113595952D01*
X203975000Y-113500714D01*
X204022619Y-113453095D01*
X204117857Y-113405476D01*
X204308333Y-113357857D01*
X204546428Y-113357857D01*
X204736904Y-113405476D01*
X204832142Y-113453095D01*
X204879761Y-113500714D01*
X204927380Y-113595952D01*
X204927380Y-113691190D01*
X204879761Y-113786428D01*
X204832142Y-113834047D01*
X204736904Y-113881666D01*
X204546428Y-113929285D01*
X204308333Y-113929285D01*
X204117857Y-113881666D01*
X204022619Y-113834047D01*
X203975000Y-113786428D01*
X203927380Y-113691190D01*
X204927380Y-112405476D02*
X204927380Y-112976904D01*
X204927380Y-112691190D02*
X203927380Y-112691190D01*
X204070238Y-112786428D01*
X204165476Y-112881666D01*
X204213095Y-112976904D01*
X204927380Y-111453095D02*
X204927380Y-112024523D01*
X204927380Y-111738809D02*
X203927380Y-111738809D01*
X204070238Y-111834047D01*
X204165476Y-111929285D01*
X204213095Y-112024523D01*
X204546428Y-111024523D02*
X204546428Y-110262619D01*
X204355952Y-109643571D02*
X204308333Y-109738809D01*
X204260714Y-109786428D01*
X204165476Y-109834047D01*
X204117857Y-109834047D01*
X204022619Y-109786428D01*
X203975000Y-109738809D01*
X203927380Y-109643571D01*
X203927380Y-109453095D01*
X203975000Y-109357857D01*
X204022619Y-109310238D01*
X204117857Y-109262619D01*
X204165476Y-109262619D01*
X204260714Y-109310238D01*
X204308333Y-109357857D01*
X204355952Y-109453095D01*
X204355952Y-109643571D01*
X204403571Y-109738809D01*
X204451190Y-109786428D01*
X204546428Y-109834047D01*
X204736904Y-109834047D01*
X204832142Y-109786428D01*
X204879761Y-109738809D01*
X204927380Y-109643571D01*
X204927380Y-109453095D01*
X204879761Y-109357857D01*
X204832142Y-109310238D01*
X204736904Y-109262619D01*
X204546428Y-109262619D01*
X204451190Y-109310238D01*
X204403571Y-109357857D01*
X204355952Y-109453095D01*
X203927380Y-108357857D02*
X203927380Y-108834047D01*
X204403571Y-108881666D01*
X204355952Y-108834047D01*
X204308333Y-108738809D01*
X204308333Y-108500714D01*
X204355952Y-108405476D01*
X204403571Y-108357857D01*
X204498809Y-108310238D01*
X204736904Y-108310238D01*
X204832142Y-108357857D01*
X204879761Y-108405476D01*
X204927380Y-108500714D01*
X204927380Y-108738809D01*
X204879761Y-108834047D01*
X204832142Y-108881666D01*
X204546428Y-107881666D02*
X204546428Y-107119761D01*
X204927380Y-106119761D02*
X204927380Y-106691190D01*
X204927380Y-106405476D02*
X203927380Y-106405476D01*
X204070238Y-106500714D01*
X204165476Y-106595952D01*
X204213095Y-106691190D01*
X203927380Y-105500714D02*
X203927380Y-105405476D01*
X203975000Y-105310238D01*
X204022619Y-105262619D01*
X204117857Y-105215000D01*
X204308333Y-105167380D01*
X204546428Y-105167380D01*
X204736904Y-105215000D01*
X204832142Y-105262619D01*
X204879761Y-105310238D01*
X204927380Y-105405476D01*
X204927380Y-105500714D01*
X204879761Y-105595952D01*
X204832142Y-105643571D01*
X204736904Y-105691190D01*
X204546428Y-105738809D01*
X204308333Y-105738809D01*
X204117857Y-105691190D01*
X204022619Y-105643571D01*
X203975000Y-105595952D01*
X203927380Y-105500714D01*
X204022619Y-104786428D02*
X203975000Y-104738809D01*
X203927380Y-104643571D01*
X203927380Y-104405476D01*
X203975000Y-104310238D01*
X204022619Y-104262619D01*
X204117857Y-104215000D01*
X204213095Y-104215000D01*
X204355952Y-104262619D01*
X204927380Y-104834047D01*
X204927380Y-104215000D01*
X204260714Y-103357857D02*
X204927380Y-103357857D01*
X203879761Y-103595952D02*
X204594047Y-103834047D01*
X204594047Y-103215000D01*
X181081666Y-83694761D02*
X181224523Y-83742380D01*
X181462619Y-83742380D01*
X181557857Y-83694761D01*
X181605476Y-83647142D01*
X181653095Y-83551904D01*
X181653095Y-83456666D01*
X181605476Y-83361428D01*
X181557857Y-83313809D01*
X181462619Y-83266190D01*
X181272142Y-83218571D01*
X181176904Y-83170952D01*
X181129285Y-83123333D01*
X181081666Y-83028095D01*
X181081666Y-82932857D01*
X181129285Y-82837619D01*
X181176904Y-82790000D01*
X181272142Y-82742380D01*
X181510238Y-82742380D01*
X181653095Y-82790000D01*
X181986428Y-82742380D02*
X182224523Y-83742380D01*
X182415000Y-83028095D01*
X182605476Y-83742380D01*
X182843571Y-82742380D01*
X183748333Y-83742380D02*
X183176904Y-83742380D01*
X183462619Y-83742380D02*
X183462619Y-82742380D01*
X183367380Y-82885238D01*
X183272142Y-82980476D01*
X183176904Y-83028095D01*
X181176904Y-91942380D02*
X180843571Y-91466190D01*
X180605476Y-91942380D02*
X180605476Y-90942380D01*
X180986428Y-90942380D01*
X181081666Y-90990000D01*
X181129285Y-91037619D01*
X181176904Y-91132857D01*
X181176904Y-91275714D01*
X181129285Y-91370952D01*
X181081666Y-91418571D01*
X180986428Y-91466190D01*
X180605476Y-91466190D01*
X181986428Y-91894761D02*
X181891190Y-91942380D01*
X181700714Y-91942380D01*
X181605476Y-91894761D01*
X181557857Y-91799523D01*
X181557857Y-91418571D01*
X181605476Y-91323333D01*
X181700714Y-91275714D01*
X181891190Y-91275714D01*
X181986428Y-91323333D01*
X182034047Y-91418571D01*
X182034047Y-91513809D01*
X181557857Y-91609047D01*
X182415000Y-91894761D02*
X182510238Y-91942380D01*
X182700714Y-91942380D01*
X182795952Y-91894761D01*
X182843571Y-91799523D01*
X182843571Y-91751904D01*
X182795952Y-91656666D01*
X182700714Y-91609047D01*
X182557857Y-91609047D01*
X182462619Y-91561428D01*
X182415000Y-91466190D01*
X182415000Y-91418571D01*
X182462619Y-91323333D01*
X182557857Y-91275714D01*
X182700714Y-91275714D01*
X182795952Y-91323333D01*
X183653095Y-91894761D02*
X183557857Y-91942380D01*
X183367380Y-91942380D01*
X183272142Y-91894761D01*
X183224523Y-91799523D01*
X183224523Y-91418571D01*
X183272142Y-91323333D01*
X183367380Y-91275714D01*
X183557857Y-91275714D01*
X183653095Y-91323333D01*
X183700714Y-91418571D01*
X183700714Y-91513809D01*
X183224523Y-91609047D01*
X183986428Y-91275714D02*
X184367380Y-91275714D01*
X184129285Y-90942380D02*
X184129285Y-91799523D01*
X184176904Y-91894761D01*
X184272142Y-91942380D01*
X184367380Y-91942380D01*
X202517142Y-78541666D02*
X202564761Y-78589285D01*
X202612380Y-78732142D01*
X202612380Y-78827380D01*
X202564761Y-78970238D01*
X202469523Y-79065476D01*
X202374285Y-79113095D01*
X202183809Y-79160714D01*
X202040952Y-79160714D01*
X201850476Y-79113095D01*
X201755238Y-79065476D01*
X201660000Y-78970238D01*
X201612380Y-78827380D01*
X201612380Y-78732142D01*
X201660000Y-78589285D01*
X201707619Y-78541666D01*
X202612380Y-77589285D02*
X202612380Y-78160714D01*
X202612380Y-77875000D02*
X201612380Y-77875000D01*
X201755238Y-77970238D01*
X201850476Y-78065476D01*
X201898095Y-78160714D01*
X200612142Y-78541666D02*
X200659761Y-78589285D01*
X200707380Y-78732142D01*
X200707380Y-78827380D01*
X200659761Y-78970238D01*
X200564523Y-79065476D01*
X200469285Y-79113095D01*
X200278809Y-79160714D01*
X200135952Y-79160714D01*
X199945476Y-79113095D01*
X199850238Y-79065476D01*
X199755000Y-78970238D01*
X199707380Y-78827380D01*
X199707380Y-78732142D01*
X199755000Y-78589285D01*
X199802619Y-78541666D01*
X199802619Y-78160714D02*
X199755000Y-78113095D01*
X199707380Y-78017857D01*
X199707380Y-77779761D01*
X199755000Y-77684523D01*
X199802619Y-77636904D01*
X199897857Y-77589285D01*
X199993095Y-77589285D01*
X200135952Y-77636904D01*
X200707380Y-78208333D01*
X200707380Y-77589285D01*
X210772142Y-101496666D02*
X210819761Y-101544285D01*
X210867380Y-101687142D01*
X210867380Y-101782380D01*
X210819761Y-101925238D01*
X210724523Y-102020476D01*
X210629285Y-102068095D01*
X210438809Y-102115714D01*
X210295952Y-102115714D01*
X210105476Y-102068095D01*
X210010238Y-102020476D01*
X209915000Y-101925238D01*
X209867380Y-101782380D01*
X209867380Y-101687142D01*
X209915000Y-101544285D01*
X209962619Y-101496666D01*
X209867380Y-101163333D02*
X209867380Y-100544285D01*
X210248333Y-100877619D01*
X210248333Y-100734761D01*
X210295952Y-100639523D01*
X210343571Y-100591904D01*
X210438809Y-100544285D01*
X210676904Y-100544285D01*
X210772142Y-100591904D01*
X210819761Y-100639523D01*
X210867380Y-100734761D01*
X210867380Y-101020476D01*
X210819761Y-101115714D01*
X210772142Y-101163333D01*
X182348333Y-84407142D02*
X182300714Y-84454761D01*
X182157857Y-84502380D01*
X182062619Y-84502380D01*
X181919761Y-84454761D01*
X181824523Y-84359523D01*
X181776904Y-84264285D01*
X181729285Y-84073809D01*
X181729285Y-83930952D01*
X181776904Y-83740476D01*
X181824523Y-83645238D01*
X181919761Y-83550000D01*
X182062619Y-83502380D01*
X182157857Y-83502380D01*
X182300714Y-83550000D01*
X182348333Y-83597619D01*
X183205476Y-83835714D02*
X183205476Y-84502380D01*
X182967380Y-83454761D02*
X182729285Y-84169047D01*
X183348333Y-84169047D01*
X184422380Y-78378095D02*
X183422380Y-78378095D01*
X183422380Y-78140000D01*
X183470000Y-77997142D01*
X183565238Y-77901904D01*
X183660476Y-77854285D01*
X183850952Y-77806666D01*
X183993809Y-77806666D01*
X184184285Y-77854285D01*
X184279523Y-77901904D01*
X184374761Y-77997142D01*
X184422380Y-78140000D01*
X184422380Y-78378095D01*
X184422380Y-76854285D02*
X184422380Y-77425714D01*
X184422380Y-77140000D02*
X183422380Y-77140000D01*
X183565238Y-77235238D01*
X183660476Y-77330476D01*
X183708095Y-77425714D01*
X186962380Y-78378095D02*
X185962380Y-78378095D01*
X185962380Y-78140000D01*
X186010000Y-77997142D01*
X186105238Y-77901904D01*
X186200476Y-77854285D01*
X186390952Y-77806666D01*
X186533809Y-77806666D01*
X186724285Y-77854285D01*
X186819523Y-77901904D01*
X186914761Y-77997142D01*
X186962380Y-78140000D01*
X186962380Y-78378095D01*
X186057619Y-77425714D02*
X186010000Y-77378095D01*
X185962380Y-77282857D01*
X185962380Y-77044761D01*
X186010000Y-76949523D01*
X186057619Y-76901904D01*
X186152857Y-76854285D01*
X186248095Y-76854285D01*
X186390952Y-76901904D01*
X186962380Y-77473333D01*
X186962380Y-76854285D01*
X200517380Y-107513095D02*
X199517380Y-107513095D01*
X199517380Y-107275000D01*
X199565000Y-107132142D01*
X199660238Y-107036904D01*
X199755476Y-106989285D01*
X199945952Y-106941666D01*
X200088809Y-106941666D01*
X200279285Y-106989285D01*
X200374523Y-107036904D01*
X200469761Y-107132142D01*
X200517380Y-107275000D01*
X200517380Y-107513095D01*
X199517380Y-106608333D02*
X199517380Y-105989285D01*
X199898333Y-106322619D01*
X199898333Y-106179761D01*
X199945952Y-106084523D01*
X199993571Y-106036904D01*
X200088809Y-105989285D01*
X200326904Y-105989285D01*
X200422142Y-106036904D01*
X200469761Y-106084523D01*
X200517380Y-106179761D01*
X200517380Y-106465476D01*
X200469761Y-106560714D01*
X200422142Y-106608333D01*
X201596666Y-128333571D02*
X201263333Y-128333571D01*
X201263333Y-128857380D02*
X201263333Y-127857380D01*
X201739523Y-127857380D01*
X202644285Y-128857380D02*
X202072857Y-128857380D01*
X202358571Y-128857380D02*
X202358571Y-127857380D01*
X202263333Y-128000238D01*
X202168095Y-128095476D01*
X202072857Y-128143095D01*
X199543571Y-117063333D02*
X199543571Y-117396666D01*
X200067380Y-117396666D02*
X199067380Y-117396666D01*
X199067380Y-116920476D01*
X199162619Y-116587142D02*
X199115000Y-116539523D01*
X199067380Y-116444285D01*
X199067380Y-116206190D01*
X199115000Y-116110952D01*
X199162619Y-116063333D01*
X199257857Y-116015714D01*
X199353095Y-116015714D01*
X199495952Y-116063333D01*
X200067380Y-116634761D01*
X200067380Y-116015714D01*
X191436666Y-124547380D02*
X191436666Y-125261666D01*
X191389047Y-125404523D01*
X191293809Y-125499761D01*
X191150952Y-125547380D01*
X191055714Y-125547380D01*
X192436666Y-125547380D02*
X191865238Y-125547380D01*
X192150952Y-125547380D02*
X192150952Y-124547380D01*
X192055714Y-124690238D01*
X191960476Y-124785476D01*
X191865238Y-124833095D01*
X207942380Y-77168333D02*
X208656666Y-77168333D01*
X208799523Y-77215952D01*
X208894761Y-77311190D01*
X208942380Y-77454047D01*
X208942380Y-77549285D01*
X207942380Y-76787380D02*
X207942380Y-76168333D01*
X208323333Y-76501666D01*
X208323333Y-76358809D01*
X208370952Y-76263571D01*
X208418571Y-76215952D01*
X208513809Y-76168333D01*
X208751904Y-76168333D01*
X208847142Y-76215952D01*
X208894761Y-76263571D01*
X208942380Y-76358809D01*
X208942380Y-76644523D01*
X208894761Y-76739761D01*
X208847142Y-76787380D01*
X204977619Y-101330238D02*
X204930000Y-101425476D01*
X204834761Y-101520714D01*
X204691904Y-101663571D01*
X204644285Y-101758809D01*
X204644285Y-101854047D01*
X204882380Y-101806428D02*
X204834761Y-101901666D01*
X204739523Y-101996904D01*
X204549047Y-102044523D01*
X204215714Y-102044523D01*
X204025238Y-101996904D01*
X203930000Y-101901666D01*
X203882380Y-101806428D01*
X203882380Y-101615952D01*
X203930000Y-101520714D01*
X204025238Y-101425476D01*
X204215714Y-101377857D01*
X204549047Y-101377857D01*
X204739523Y-101425476D01*
X204834761Y-101520714D01*
X204882380Y-101615952D01*
X204882380Y-101806428D01*
X204882380Y-100425476D02*
X204882380Y-100996904D01*
X204882380Y-100711190D02*
X203882380Y-100711190D01*
X204025238Y-100806428D01*
X204120476Y-100901666D01*
X204168095Y-100996904D01*
X189302380Y-81761666D02*
X188826190Y-82095000D01*
X189302380Y-82333095D02*
X188302380Y-82333095D01*
X188302380Y-81952142D01*
X188350000Y-81856904D01*
X188397619Y-81809285D01*
X188492857Y-81761666D01*
X188635714Y-81761666D01*
X188730952Y-81809285D01*
X188778571Y-81856904D01*
X188826190Y-81952142D01*
X188826190Y-82333095D01*
X188397619Y-81380714D02*
X188350000Y-81333095D01*
X188302380Y-81237857D01*
X188302380Y-80999761D01*
X188350000Y-80904523D01*
X188397619Y-80856904D01*
X188492857Y-80809285D01*
X188588095Y-80809285D01*
X188730952Y-80856904D01*
X189302380Y-81428333D01*
X189302380Y-80809285D01*
X206447380Y-78591666D02*
X205971190Y-78925000D01*
X206447380Y-79163095D02*
X205447380Y-79163095D01*
X205447380Y-78782142D01*
X205495000Y-78686904D01*
X205542619Y-78639285D01*
X205637857Y-78591666D01*
X205780714Y-78591666D01*
X205875952Y-78639285D01*
X205923571Y-78686904D01*
X205971190Y-78782142D01*
X205971190Y-79163095D01*
X205447380Y-78258333D02*
X205447380Y-77639285D01*
X205828333Y-77972619D01*
X205828333Y-77829761D01*
X205875952Y-77734523D01*
X205923571Y-77686904D01*
X206018809Y-77639285D01*
X206256904Y-77639285D01*
X206352142Y-77686904D01*
X206399761Y-77734523D01*
X206447380Y-77829761D01*
X206447380Y-78115476D01*
X206399761Y-78210714D01*
X206352142Y-78258333D01*
X178588333Y-81352380D02*
X178255000Y-80876190D01*
X178016904Y-81352380D02*
X178016904Y-80352380D01*
X178397857Y-80352380D01*
X178493095Y-80400000D01*
X178540714Y-80447619D01*
X178588333Y-80542857D01*
X178588333Y-80685714D01*
X178540714Y-80780952D01*
X178493095Y-80828571D01*
X178397857Y-80876190D01*
X178016904Y-80876190D01*
X179445476Y-80685714D02*
X179445476Y-81352380D01*
X179207380Y-80304761D02*
X178969285Y-81019047D01*
X179588333Y-81019047D01*
X209112380Y-101446666D02*
X208636190Y-101780000D01*
X209112380Y-102018095D02*
X208112380Y-102018095D01*
X208112380Y-101637142D01*
X208160000Y-101541904D01*
X208207619Y-101494285D01*
X208302857Y-101446666D01*
X208445714Y-101446666D01*
X208540952Y-101494285D01*
X208588571Y-101541904D01*
X208636190Y-101637142D01*
X208636190Y-102018095D01*
X208112380Y-100541904D02*
X208112380Y-101018095D01*
X208588571Y-101065714D01*
X208540952Y-101018095D01*
X208493333Y-100922857D01*
X208493333Y-100684761D01*
X208540952Y-100589523D01*
X208588571Y-100541904D01*
X208683809Y-100494285D01*
X208921904Y-100494285D01*
X209017142Y-100541904D01*
X209064761Y-100589523D01*
X209112380Y-100684761D01*
X209112380Y-100922857D01*
X209064761Y-101018095D01*
X209017142Y-101065714D01*
X184222380Y-81761666D02*
X183746190Y-82095000D01*
X184222380Y-82333095D02*
X183222380Y-82333095D01*
X183222380Y-81952142D01*
X183270000Y-81856904D01*
X183317619Y-81809285D01*
X183412857Y-81761666D01*
X183555714Y-81761666D01*
X183650952Y-81809285D01*
X183698571Y-81856904D01*
X183746190Y-81952142D01*
X183746190Y-82333095D01*
X183222380Y-80904523D02*
X183222380Y-81095000D01*
X183270000Y-81190238D01*
X183317619Y-81237857D01*
X183460476Y-81333095D01*
X183650952Y-81380714D01*
X184031904Y-81380714D01*
X184127142Y-81333095D01*
X184174761Y-81285476D01*
X184222380Y-81190238D01*
X184222380Y-80999761D01*
X184174761Y-80904523D01*
X184127142Y-80856904D01*
X184031904Y-80809285D01*
X183793809Y-80809285D01*
X183698571Y-80856904D01*
X183650952Y-80904523D01*
X183603333Y-80999761D01*
X183603333Y-81190238D01*
X183650952Y-81285476D01*
X183698571Y-81333095D01*
X183793809Y-81380714D01*
X186762380Y-81761666D02*
X186286190Y-82095000D01*
X186762380Y-82333095D02*
X185762380Y-82333095D01*
X185762380Y-81952142D01*
X185810000Y-81856904D01*
X185857619Y-81809285D01*
X185952857Y-81761666D01*
X186095714Y-81761666D01*
X186190952Y-81809285D01*
X186238571Y-81856904D01*
X186286190Y-81952142D01*
X186286190Y-82333095D01*
X185762380Y-81428333D02*
X185762380Y-80761666D01*
X186762380Y-81190238D01*
X202637380Y-78591666D02*
X202161190Y-78925000D01*
X202637380Y-79163095D02*
X201637380Y-79163095D01*
X201637380Y-78782142D01*
X201685000Y-78686904D01*
X201732619Y-78639285D01*
X201827857Y-78591666D01*
X201970714Y-78591666D01*
X202065952Y-78639285D01*
X202113571Y-78686904D01*
X202161190Y-78782142D01*
X202161190Y-79163095D01*
X202065952Y-78020238D02*
X202018333Y-78115476D01*
X201970714Y-78163095D01*
X201875476Y-78210714D01*
X201827857Y-78210714D01*
X201732619Y-78163095D01*
X201685000Y-78115476D01*
X201637380Y-78020238D01*
X201637380Y-77829761D01*
X201685000Y-77734523D01*
X201732619Y-77686904D01*
X201827857Y-77639285D01*
X201875476Y-77639285D01*
X201970714Y-77686904D01*
X202018333Y-77734523D01*
X202065952Y-77829761D01*
X202065952Y-78020238D01*
X202113571Y-78115476D01*
X202161190Y-78163095D01*
X202256428Y-78210714D01*
X202446904Y-78210714D01*
X202542142Y-78163095D01*
X202589761Y-78115476D01*
X202637380Y-78020238D01*
X202637380Y-77829761D01*
X202589761Y-77734523D01*
X202542142Y-77686904D01*
X202446904Y-77639285D01*
X202256428Y-77639285D01*
X202161190Y-77686904D01*
X202113571Y-77734523D01*
X202065952Y-77829761D01*
X203907380Y-101446666D02*
X203431190Y-101780000D01*
X203907380Y-102018095D02*
X202907380Y-102018095D01*
X202907380Y-101637142D01*
X202955000Y-101541904D01*
X203002619Y-101494285D01*
X203097857Y-101446666D01*
X203240714Y-101446666D01*
X203335952Y-101494285D01*
X203383571Y-101541904D01*
X203431190Y-101637142D01*
X203431190Y-102018095D01*
X203907380Y-100970476D02*
X203907380Y-100780000D01*
X203859761Y-100684761D01*
X203812142Y-100637142D01*
X203669285Y-100541904D01*
X203478809Y-100494285D01*
X203097857Y-100494285D01*
X203002619Y-100541904D01*
X202955000Y-100589523D01*
X202907380Y-100684761D01*
X202907380Y-100875238D01*
X202955000Y-100970476D01*
X203002619Y-101018095D01*
X203097857Y-101065714D01*
X203335952Y-101065714D01*
X203431190Y-101018095D01*
X203478809Y-100970476D01*
X203526428Y-100875238D01*
X203526428Y-100684761D01*
X203478809Y-100589523D01*
X203431190Y-100541904D01*
X203335952Y-100494285D01*
X191876666Y-83694761D02*
X192019523Y-83742380D01*
X192257619Y-83742380D01*
X192352857Y-83694761D01*
X192400476Y-83647142D01*
X192448095Y-83551904D01*
X192448095Y-83456666D01*
X192400476Y-83361428D01*
X192352857Y-83313809D01*
X192257619Y-83266190D01*
X192067142Y-83218571D01*
X191971904Y-83170952D01*
X191924285Y-83123333D01*
X191876666Y-83028095D01*
X191876666Y-82932857D01*
X191924285Y-82837619D01*
X191971904Y-82790000D01*
X192067142Y-82742380D01*
X192305238Y-82742380D01*
X192448095Y-82790000D01*
X192781428Y-82742380D02*
X193019523Y-83742380D01*
X193210000Y-83028095D01*
X193400476Y-83742380D01*
X193638571Y-82742380D01*
X193971904Y-82837619D02*
X194019523Y-82790000D01*
X194114761Y-82742380D01*
X194352857Y-82742380D01*
X194448095Y-82790000D01*
X194495714Y-82837619D01*
X194543333Y-82932857D01*
X194543333Y-83028095D01*
X194495714Y-83170952D01*
X193924285Y-83742380D01*
X194543333Y-83742380D01*
X189162380Y-91418571D02*
X188829047Y-91418571D01*
X188829047Y-91942380D02*
X188829047Y-90942380D01*
X189305238Y-90942380D01*
X189829047Y-91942380D02*
X189733809Y-91894761D01*
X189686190Y-91799523D01*
X189686190Y-90942380D01*
X190638571Y-91942380D02*
X190638571Y-91418571D01*
X190590952Y-91323333D01*
X190495714Y-91275714D01*
X190305238Y-91275714D01*
X190210000Y-91323333D01*
X190638571Y-91894761D02*
X190543333Y-91942380D01*
X190305238Y-91942380D01*
X190210000Y-91894761D01*
X190162380Y-91799523D01*
X190162380Y-91704285D01*
X190210000Y-91609047D01*
X190305238Y-91561428D01*
X190543333Y-91561428D01*
X190638571Y-91513809D01*
X191067142Y-91894761D02*
X191162380Y-91942380D01*
X191352857Y-91942380D01*
X191448095Y-91894761D01*
X191495714Y-91799523D01*
X191495714Y-91751904D01*
X191448095Y-91656666D01*
X191352857Y-91609047D01*
X191210000Y-91609047D01*
X191114761Y-91561428D01*
X191067142Y-91466190D01*
X191067142Y-91418571D01*
X191114761Y-91323333D01*
X191210000Y-91275714D01*
X191352857Y-91275714D01*
X191448095Y-91323333D01*
X191924285Y-91942380D02*
X191924285Y-90942380D01*
X192352857Y-91942380D02*
X192352857Y-91418571D01*
X192305238Y-91323333D01*
X192210000Y-91275714D01*
X192067142Y-91275714D01*
X191971904Y-91323333D01*
X191924285Y-91370952D01*
X193543333Y-90894761D02*
X192686190Y-92180476D01*
X193829047Y-91894761D02*
X193971904Y-91942380D01*
X194210000Y-91942380D01*
X194305238Y-91894761D01*
X194352857Y-91847142D01*
X194400476Y-91751904D01*
X194400476Y-91656666D01*
X194352857Y-91561428D01*
X194305238Y-91513809D01*
X194210000Y-91466190D01*
X194019523Y-91418571D01*
X193924285Y-91370952D01*
X193876666Y-91323333D01*
X193829047Y-91228095D01*
X193829047Y-91132857D01*
X193876666Y-91037619D01*
X193924285Y-90990000D01*
X194019523Y-90942380D01*
X194257619Y-90942380D01*
X194400476Y-90990000D01*
X195210000Y-91894761D02*
X195114761Y-91942380D01*
X194924285Y-91942380D01*
X194829047Y-91894761D01*
X194781428Y-91799523D01*
X194781428Y-91418571D01*
X194829047Y-91323333D01*
X194924285Y-91275714D01*
X195114761Y-91275714D01*
X195210000Y-91323333D01*
X195257619Y-91418571D01*
X195257619Y-91513809D01*
X194781428Y-91609047D01*
X195543333Y-91275714D02*
X195924285Y-91275714D01*
X195686190Y-90942380D02*
X195686190Y-91799523D01*
X195733809Y-91894761D01*
X195829047Y-91942380D01*
X195924285Y-91942380D01*
X196686190Y-91275714D02*
X196686190Y-91942380D01*
X196257619Y-91275714D02*
X196257619Y-91799523D01*
X196305238Y-91894761D01*
X196400476Y-91942380D01*
X196543333Y-91942380D01*
X196638571Y-91894761D01*
X196686190Y-91847142D01*
X197162380Y-91275714D02*
X197162380Y-92275714D01*
X197162380Y-91323333D02*
X197257619Y-91275714D01*
X197448095Y-91275714D01*
X197543333Y-91323333D01*
X197590952Y-91370952D01*
X197638571Y-91466190D01*
X197638571Y-91751904D01*
X197590952Y-91847142D01*
X197543333Y-91894761D01*
X197448095Y-91942380D01*
X197257619Y-91942380D01*
X197162380Y-91894761D01*
M02*
