M48
; DRILL file {KiCad (5.1.0)-1} date 2019-04-04 10:35:28
; FORMAT={-:-/ absolute / inch / decimal}
; #@! TF.CreationDate,2019-04-04T10:35:28+02:00
; #@! TF.GenerationSoftware,Kicad,Pcbnew,(5.1.0)-1
FMAT,2
INCH
T1C0.0157
T2C0.0236
T3C0.0299
T4C0.0300
T5C0.0315
T6C0.0394
T7C0.0512
T8C0.0598
T9C0.1260
%
G90
G05
T1
X7.7742Y-3.4809
X7.825Y-3.225
X8.0329Y-3.3921
X8.0329Y-3.7579
X8.075Y-4.125
X8.15Y-3.75
X8.175Y-3.1801
X8.225Y-3.475
X8.225Y-3.75
X8.25Y-3.1
X8.325Y-3.45
X8.375Y-3.75
X8.5Y-3.575
X8.525Y-3.75
T2
X7.625Y-3.075
X7.675Y-3.075
X7.725Y-3.075
T3
X7.125Y-3.7476
X7.4242Y-3.7476
T4
X7.85Y-5.075
X8.05Y-5.075
T5
X8.189Y-4.252
X8.6614Y-4.252
X7.125Y-4.85
X7.7234Y-4.85
T6
X8.3Y-3.025
X8.4Y-3.025
X8.5Y-3.025
X8.6Y-3.025
X7.975Y-4.7
X7.9754Y-4.5
T7
X8.189Y-4.7323
X8.4252Y-4.1732
X8.6614Y-4.7323
T8
X7.45Y-5.125
X7.65Y-5.125
X8.25Y-5.125
X8.45Y-5.125
T9
X8.7795Y-5.1969
X8.7795Y-3.0709
X7.0866Y-3.0709
X7.0866Y-5.1969
T0
M30
