G04 #@! TF.GenerationSoftware,KiCad,Pcbnew,(5.1.0)-1*
G04 #@! TF.CreationDate,2019-03-27T16:53:23+01:00*
G04 #@! TF.ProjectId,WiFi switch,57694669-2073-4776-9974-63682e6b6963,rev?*
G04 #@! TF.SameCoordinates,Original*
G04 #@! TF.FileFunction,Legend,Top*
G04 #@! TF.FilePolarity,Positive*
%FSLAX46Y46*%
G04 Gerber Fmt 4.6, Leading zero omitted, Abs format (unit mm)*
G04 Created by KiCad (PCBNEW (5.1.0)-1) date 2019-03-27 16:53:23*
%MOMM*%
%LPD*%
G04 APERTURE LIST*
%ADD10C,0.200000*%
%ADD11C,0.100000*%
%ADD12C,0.120000*%
%ADD13C,0.150000*%
G04 APERTURE END LIST*
D10*
X178248571Y-120609285D02*
X179748571Y-120252142D01*
X178677142Y-119966428D01*
X179748571Y-119680714D01*
X178248571Y-119323571D01*
X179748571Y-118752142D02*
X178748571Y-118752142D01*
X178248571Y-118752142D02*
X178320000Y-118823571D01*
X178391428Y-118752142D01*
X178320000Y-118680714D01*
X178248571Y-118752142D01*
X178391428Y-118752142D01*
X178962857Y-117537857D02*
X178962857Y-118037857D01*
X179748571Y-118037857D02*
X178248571Y-118037857D01*
X178248571Y-117323571D01*
X179748571Y-116752142D02*
X178748571Y-116752142D01*
X178248571Y-116752142D02*
X178320000Y-116823571D01*
X178391428Y-116752142D01*
X178320000Y-116680714D01*
X178248571Y-116752142D01*
X178391428Y-116752142D01*
X179677142Y-114966428D02*
X179748571Y-114752142D01*
X179748571Y-114395000D01*
X179677142Y-114252142D01*
X179605714Y-114180714D01*
X179462857Y-114109285D01*
X179320000Y-114109285D01*
X179177142Y-114180714D01*
X179105714Y-114252142D01*
X179034285Y-114395000D01*
X178962857Y-114680714D01*
X178891428Y-114823571D01*
X178820000Y-114895000D01*
X178677142Y-114966428D01*
X178534285Y-114966428D01*
X178391428Y-114895000D01*
X178320000Y-114823571D01*
X178248571Y-114680714D01*
X178248571Y-114323571D01*
X178320000Y-114109285D01*
X178748571Y-113609285D02*
X179748571Y-113323571D01*
X179034285Y-113037857D01*
X179748571Y-112752142D01*
X178748571Y-112466428D01*
X179748571Y-111895000D02*
X178748571Y-111895000D01*
X178248571Y-111895000D02*
X178320000Y-111966428D01*
X178391428Y-111895000D01*
X178320000Y-111823571D01*
X178248571Y-111895000D01*
X178391428Y-111895000D01*
X178748571Y-111395000D02*
X178748571Y-110823571D01*
X178248571Y-111180714D02*
X179534285Y-111180714D01*
X179677142Y-111109285D01*
X179748571Y-110966428D01*
X179748571Y-110823571D01*
X179677142Y-109680714D02*
X179748571Y-109823571D01*
X179748571Y-110109285D01*
X179677142Y-110252142D01*
X179605714Y-110323571D01*
X179462857Y-110395000D01*
X179034285Y-110395000D01*
X178891428Y-110323571D01*
X178820000Y-110252142D01*
X178748571Y-110109285D01*
X178748571Y-109823571D01*
X178820000Y-109680714D01*
X179748571Y-109037857D02*
X178248571Y-109037857D01*
X179748571Y-108395000D02*
X178962857Y-108395000D01*
X178820000Y-108466428D01*
X178748571Y-108609285D01*
X178748571Y-108823571D01*
X178820000Y-108966428D01*
X178891428Y-109037857D01*
X179748571Y-105680714D02*
X179034285Y-106180714D01*
X179748571Y-106537857D02*
X178248571Y-106537857D01*
X178248571Y-105966428D01*
X178320000Y-105823571D01*
X178391428Y-105752142D01*
X178534285Y-105680714D01*
X178748571Y-105680714D01*
X178891428Y-105752142D01*
X178962857Y-105823571D01*
X179034285Y-105966428D01*
X179034285Y-106537857D01*
X178391428Y-105109285D02*
X178320000Y-105037857D01*
X178248571Y-104895000D01*
X178248571Y-104537857D01*
X178320000Y-104395000D01*
X178391428Y-104323571D01*
X178534285Y-104252142D01*
X178677142Y-104252142D01*
X178891428Y-104323571D01*
X179748571Y-105180714D01*
X179748571Y-104252142D01*
X224833571Y-124783571D02*
X223333571Y-124783571D01*
X223833571Y-124069285D02*
X224833571Y-124069285D01*
X223976428Y-124069285D02*
X223905000Y-123997857D01*
X223833571Y-123855000D01*
X223833571Y-123640714D01*
X223905000Y-123497857D01*
X224047857Y-123426428D01*
X224833571Y-123426428D01*
X223833571Y-122855000D02*
X224833571Y-122497857D01*
X223833571Y-122140714D01*
X224833571Y-121569285D02*
X223833571Y-121569285D01*
X223333571Y-121569285D02*
X223405000Y-121640714D01*
X223476428Y-121569285D01*
X223405000Y-121497857D01*
X223333571Y-121569285D01*
X223476428Y-121569285D01*
X223833571Y-120997857D02*
X223833571Y-120212142D01*
X224833571Y-120997857D01*
X224833571Y-120212142D01*
X224762142Y-119069285D02*
X224833571Y-119212142D01*
X224833571Y-119497857D01*
X224762142Y-119640714D01*
X224619285Y-119712142D01*
X224047857Y-119712142D01*
X223905000Y-119640714D01*
X223833571Y-119497857D01*
X223833571Y-119212142D01*
X223905000Y-119069285D01*
X224047857Y-118997857D01*
X224190714Y-118997857D01*
X224333571Y-119712142D01*
X224405000Y-117283571D02*
X224405000Y-116569285D01*
X224833571Y-117426428D02*
X223333571Y-116926428D01*
X224833571Y-116426428D01*
X224047857Y-115426428D02*
X224119285Y-115212142D01*
X224190714Y-115140714D01*
X224333571Y-115069285D01*
X224547857Y-115069285D01*
X224690714Y-115140714D01*
X224762142Y-115212142D01*
X224833571Y-115355000D01*
X224833571Y-115926428D01*
X223333571Y-115926428D01*
X223333571Y-115426428D01*
X223405000Y-115283571D01*
X223476428Y-115212142D01*
X223619285Y-115140714D01*
X223762142Y-115140714D01*
X223905000Y-115212142D01*
X223976428Y-115283571D01*
X224047857Y-115426428D01*
X224047857Y-115926428D01*
X223262142Y-112212142D02*
X225190714Y-113497857D01*
X224047857Y-110069285D02*
X224119285Y-109855000D01*
X224190714Y-109783571D01*
X224333571Y-109712142D01*
X224547857Y-109712142D01*
X224690714Y-109783571D01*
X224762142Y-109855000D01*
X224833571Y-109997857D01*
X224833571Y-110569285D01*
X223333571Y-110569285D01*
X223333571Y-110069285D01*
X223405000Y-109926428D01*
X223476428Y-109855000D01*
X223619285Y-109783571D01*
X223762142Y-109783571D01*
X223905000Y-109855000D01*
X223976428Y-109926428D01*
X224047857Y-110069285D01*
X224047857Y-110569285D01*
X223833571Y-109212142D02*
X224833571Y-108855000D01*
X223833571Y-108497857D02*
X224833571Y-108855000D01*
X225190714Y-108997857D01*
X225262142Y-109069285D01*
X225333571Y-109212142D01*
X223833571Y-107283571D02*
X225047857Y-107283571D01*
X225190714Y-107355000D01*
X225262142Y-107426428D01*
X225333571Y-107569285D01*
X225333571Y-107783571D01*
X225262142Y-107926428D01*
X224762142Y-107283571D02*
X224833571Y-107426428D01*
X224833571Y-107712142D01*
X224762142Y-107855000D01*
X224690714Y-107926428D01*
X224547857Y-107997857D01*
X224119285Y-107997857D01*
X223976428Y-107926428D01*
X223905000Y-107855000D01*
X223833571Y-107712142D01*
X223833571Y-107426428D01*
X223905000Y-107283571D01*
X223833571Y-105926428D02*
X225047857Y-105926428D01*
X225190714Y-105997857D01*
X225262142Y-106069285D01*
X225333571Y-106212142D01*
X225333571Y-106426428D01*
X225262142Y-106569285D01*
X224762142Y-105926428D02*
X224833571Y-106069285D01*
X224833571Y-106355000D01*
X224762142Y-106497857D01*
X224690714Y-106569285D01*
X224547857Y-106640714D01*
X224119285Y-106640714D01*
X223976428Y-106569285D01*
X223905000Y-106497857D01*
X223833571Y-106355000D01*
X223833571Y-106069285D01*
X223905000Y-105926428D01*
X224833571Y-104569285D02*
X224047857Y-104569285D01*
X223905000Y-104640714D01*
X223833571Y-104783571D01*
X223833571Y-105069285D01*
X223905000Y-105212142D01*
X224762142Y-104569285D02*
X224833571Y-104712142D01*
X224833571Y-105069285D01*
X224762142Y-105212142D01*
X224619285Y-105283571D01*
X224476428Y-105283571D01*
X224333571Y-105212142D01*
X224262142Y-105069285D01*
X224262142Y-104712142D01*
X224190714Y-104569285D01*
X224833571Y-102997857D02*
X224119285Y-103497857D01*
X224833571Y-103855000D02*
X223333571Y-103855000D01*
X223333571Y-103283571D01*
X223405000Y-103140714D01*
X223476428Y-103069285D01*
X223619285Y-102997857D01*
X223833571Y-102997857D01*
X223976428Y-103069285D01*
X224047857Y-103140714D01*
X224119285Y-103283571D01*
X224119285Y-103855000D01*
X224833571Y-102140714D02*
X224762142Y-102283571D01*
X224690714Y-102355000D01*
X224547857Y-102426428D01*
X224119285Y-102426428D01*
X223976428Y-102355000D01*
X223905000Y-102283571D01*
X223833571Y-102140714D01*
X223833571Y-101926428D01*
X223905000Y-101783571D01*
X223976428Y-101712142D01*
X224119285Y-101640714D01*
X224547857Y-101640714D01*
X224690714Y-101712142D01*
X224762142Y-101783571D01*
X224833571Y-101926428D01*
X224833571Y-102140714D01*
X224833571Y-100997857D02*
X223333571Y-100997857D01*
X223905000Y-100997857D02*
X223833571Y-100855000D01*
X223833571Y-100569285D01*
X223905000Y-100426428D01*
X223976428Y-100355000D01*
X224119285Y-100283571D01*
X224547857Y-100283571D01*
X224690714Y-100355000D01*
X224762142Y-100426428D01*
X224833571Y-100569285D01*
X224833571Y-100855000D01*
X224762142Y-100997857D01*
X224833571Y-99426428D02*
X224762142Y-99569285D01*
X224690714Y-99640714D01*
X224547857Y-99712142D01*
X224119285Y-99712142D01*
X223976428Y-99640714D01*
X223905000Y-99569285D01*
X223833571Y-99426428D01*
X223833571Y-99212142D01*
X223905000Y-99069285D01*
X223976428Y-98997857D01*
X224119285Y-98926428D01*
X224547857Y-98926428D01*
X224690714Y-98997857D01*
X224762142Y-99069285D01*
X224833571Y-99212142D01*
X224833571Y-99426428D01*
X223833571Y-98497857D02*
X223833571Y-97926428D01*
X223333571Y-98283571D02*
X224619285Y-98283571D01*
X224762142Y-98212142D01*
X224833571Y-98069285D01*
X224833571Y-97926428D01*
X224690714Y-97426428D02*
X224762142Y-97355000D01*
X224833571Y-97426428D01*
X224762142Y-97497857D01*
X224690714Y-97426428D01*
X224833571Y-97426428D01*
X224762142Y-96783571D02*
X224833571Y-96640714D01*
X224833571Y-96355000D01*
X224762142Y-96212142D01*
X224619285Y-96140714D01*
X224547857Y-96140714D01*
X224405000Y-96212142D01*
X224333571Y-96355000D01*
X224333571Y-96569285D01*
X224262142Y-96712142D01*
X224119285Y-96783571D01*
X224047857Y-96783571D01*
X223905000Y-96712142D01*
X223833571Y-96569285D01*
X223833571Y-96355000D01*
X223905000Y-96212142D01*
X224762142Y-94926428D02*
X224833571Y-95069285D01*
X224833571Y-95355000D01*
X224762142Y-95497857D01*
X224619285Y-95569285D01*
X224047857Y-95569285D01*
X223905000Y-95497857D01*
X223833571Y-95355000D01*
X223833571Y-95069285D01*
X223905000Y-94926428D01*
X224047857Y-94855000D01*
X224190714Y-94855000D01*
X224333571Y-95569285D01*
D11*
X220680000Y-89992142D02*
X220651428Y-90049285D01*
X220651428Y-90135000D01*
X220680000Y-90220714D01*
X220737142Y-90277857D01*
X220794285Y-90306428D01*
X220908571Y-90335000D01*
X220994285Y-90335000D01*
X221108571Y-90306428D01*
X221165714Y-90277857D01*
X221222857Y-90220714D01*
X221251428Y-90135000D01*
X221251428Y-90077857D01*
X221222857Y-89992142D01*
X221194285Y-89963571D01*
X220994285Y-89963571D01*
X220994285Y-90077857D01*
X221251428Y-89706428D02*
X220651428Y-89706428D01*
X221251428Y-89363571D01*
X220651428Y-89363571D01*
X221251428Y-89077857D02*
X220651428Y-89077857D01*
X220651428Y-88935000D01*
X220680000Y-88849285D01*
X220737142Y-88792142D01*
X220794285Y-88763571D01*
X220908571Y-88735000D01*
X220994285Y-88735000D01*
X221108571Y-88763571D01*
X221165714Y-88792142D01*
X221222857Y-88849285D01*
X221251428Y-88935000D01*
X221251428Y-89077857D01*
X221251428Y-87323571D02*
X220965714Y-87523571D01*
X221251428Y-87666428D02*
X220651428Y-87666428D01*
X220651428Y-87437857D01*
X220680000Y-87380714D01*
X220708571Y-87352142D01*
X220765714Y-87323571D01*
X220851428Y-87323571D01*
X220908571Y-87352142D01*
X220937142Y-87380714D01*
X220965714Y-87437857D01*
X220965714Y-87666428D01*
X220651428Y-87152142D02*
X220651428Y-86809285D01*
X221251428Y-86980714D02*
X220651428Y-86980714D01*
X221222857Y-86637857D02*
X221251428Y-86552142D01*
X221251428Y-86409285D01*
X221222857Y-86352142D01*
X221194285Y-86323571D01*
X221137142Y-86295000D01*
X221080000Y-86295000D01*
X221022857Y-86323571D01*
X220994285Y-86352142D01*
X220965714Y-86409285D01*
X220937142Y-86523571D01*
X220908571Y-86580714D01*
X220880000Y-86609285D01*
X220822857Y-86637857D01*
X220765714Y-86637857D01*
X220708571Y-86609285D01*
X220680000Y-86580714D01*
X220651428Y-86523571D01*
X220651428Y-86380714D01*
X220680000Y-86295000D01*
X220651428Y-85340714D02*
X220651428Y-84969285D01*
X220880000Y-85169285D01*
X220880000Y-85083571D01*
X220908571Y-85026428D01*
X220937142Y-84997857D01*
X220994285Y-84969285D01*
X221137142Y-84969285D01*
X221194285Y-84997857D01*
X221222857Y-85026428D01*
X221251428Y-85083571D01*
X221251428Y-85255000D01*
X221222857Y-85312142D01*
X221194285Y-85340714D01*
X221194285Y-84712142D02*
X221222857Y-84683571D01*
X221251428Y-84712142D01*
X221222857Y-84740714D01*
X221194285Y-84712142D01*
X221251428Y-84712142D01*
X220651428Y-84483571D02*
X220651428Y-84112142D01*
X220880000Y-84312142D01*
X220880000Y-84226428D01*
X220908571Y-84169285D01*
X220937142Y-84140714D01*
X220994285Y-84112142D01*
X221137142Y-84112142D01*
X221194285Y-84140714D01*
X221222857Y-84169285D01*
X221251428Y-84226428D01*
X221251428Y-84397857D01*
X221222857Y-84455000D01*
X221194285Y-84483571D01*
X220651428Y-83940714D02*
X221251428Y-83740714D01*
X220651428Y-83540714D01*
X221251428Y-82015000D02*
X220965714Y-82215000D01*
X221251428Y-82357857D02*
X220651428Y-82357857D01*
X220651428Y-82129285D01*
X220680000Y-82072142D01*
X220708571Y-82043571D01*
X220765714Y-82015000D01*
X220851428Y-82015000D01*
X220908571Y-82043571D01*
X220937142Y-82072142D01*
X220965714Y-82129285D01*
X220965714Y-82357857D01*
X220651428Y-81815000D02*
X221251428Y-81415000D01*
X220651428Y-81415000D02*
X221251428Y-81815000D01*
X221251428Y-77520714D02*
X220651428Y-77520714D01*
X220651428Y-77377857D01*
X220680000Y-77292142D01*
X220737142Y-77235000D01*
X220794285Y-77206428D01*
X220908571Y-77177857D01*
X220994285Y-77177857D01*
X221108571Y-77206428D01*
X221165714Y-77235000D01*
X221222857Y-77292142D01*
X221251428Y-77377857D01*
X221251428Y-77520714D01*
X220651428Y-77006428D02*
X220651428Y-76663571D01*
X221251428Y-76835000D02*
X220651428Y-76835000D01*
X221251428Y-76120714D02*
X220965714Y-76320714D01*
X221251428Y-76463571D02*
X220651428Y-76463571D01*
X220651428Y-76235000D01*
X220680000Y-76177857D01*
X220708571Y-76149285D01*
X220765714Y-76120714D01*
X220851428Y-76120714D01*
X220908571Y-76149285D01*
X220937142Y-76177857D01*
X220965714Y-76235000D01*
X220965714Y-76463571D01*
X220651428Y-79832142D02*
X220651428Y-79489285D01*
X221251428Y-79660714D02*
X220651428Y-79660714D01*
X220651428Y-79346428D02*
X221251428Y-78946428D01*
X220651428Y-78946428D02*
X221251428Y-79346428D01*
D12*
X215120000Y-133350000D02*
X204960000Y-133350000D01*
X215120000Y-134620000D02*
X215120000Y-127000000D01*
X215120000Y-127000000D02*
X204960000Y-127000000D01*
X204960000Y-127000000D02*
X204960000Y-134620000D01*
X204960000Y-134620000D02*
X215120000Y-134620000D01*
X194445000Y-72970000D02*
X193835000Y-72970000D01*
X194445000Y-72970000D02*
X194445000Y-65350000D01*
X194445000Y-89590000D02*
X194445000Y-88970000D01*
X196565000Y-89590000D02*
X194445000Y-89590000D01*
X210685000Y-89590000D02*
X208565000Y-89590000D01*
X210685000Y-88970000D02*
X210685000Y-89590000D01*
X210685000Y-65350000D02*
X210685000Y-72970000D01*
X194445000Y-65350000D02*
X210685000Y-65350000D01*
X219630000Y-68685000D02*
X218700000Y-68685000D01*
X216470000Y-68685000D02*
X217400000Y-68685000D01*
X216470000Y-68685000D02*
X216470000Y-71845000D01*
X219630000Y-68685000D02*
X219630000Y-70145000D01*
X207655000Y-96010000D02*
X208585000Y-96010000D01*
X210815000Y-96010000D02*
X209885000Y-96010000D01*
X210815000Y-96010000D02*
X210815000Y-92850000D01*
X207655000Y-96010000D02*
X207655000Y-94550000D01*
X224215000Y-90865000D02*
X222885000Y-90865000D01*
X224215000Y-89535000D02*
X224215000Y-90865000D01*
X224215000Y-88265000D02*
X221555000Y-88265000D01*
X221555000Y-88265000D02*
X221555000Y-75505000D01*
X224215000Y-88265000D02*
X224215000Y-75505000D01*
X224215000Y-75505000D02*
X221555000Y-75505000D01*
X212730000Y-70205000D02*
X212730000Y-68745000D01*
X215890000Y-70205000D02*
X215890000Y-67045000D01*
X215890000Y-70205000D02*
X214960000Y-70205000D01*
X212730000Y-70205000D02*
X213660000Y-70205000D01*
X183448478Y-75631522D02*
G75*
G03X179010000Y-77470000I-1838478J-1838478D01*
G01*
X183448478Y-79308478D02*
G75*
G02X179010000Y-77470000I-1838478J1838478D01*
G01*
X183460000Y-79270000D02*
X183460000Y-75670000D01*
X186575000Y-70700000D02*
X188075000Y-70700000D01*
X186575000Y-70700000D02*
X186575000Y-67500000D01*
X188075000Y-67500000D02*
X188075000Y-70700000D01*
X212770000Y-94235000D02*
X212770000Y-97535000D01*
X212770000Y-97535000D02*
X219670000Y-97535000D01*
X212770000Y-94235000D02*
X219670000Y-94235000D01*
X185665000Y-73140000D02*
X185665000Y-74340000D01*
X183905000Y-74340000D02*
X183905000Y-73140000D01*
X180200000Y-125190000D02*
X180200000Y-119190000D01*
X202970000Y-126160000D02*
X202970000Y-92220000D01*
X180530000Y-126160000D02*
X180530000Y-92220000D01*
X180530000Y-92220000D02*
X202970000Y-92220000D01*
X202970000Y-126160000D02*
X180530000Y-126160000D01*
X217650000Y-88685000D02*
X216650000Y-88685000D01*
X216650000Y-90385000D02*
X217650000Y-90385000D01*
X189345000Y-89115000D02*
X190345000Y-89115000D01*
X190345000Y-87415000D02*
X189345000Y-87415000D01*
X190345000Y-84875000D02*
X189345000Y-84875000D01*
X189345000Y-86575000D02*
X190345000Y-86575000D01*
X184035000Y-70700000D02*
X185535000Y-70700000D01*
X184035000Y-70700000D02*
X184035000Y-67500000D01*
X185535000Y-67500000D02*
X185535000Y-70700000D01*
X188205000Y-78220000D02*
X188205000Y-79420000D01*
X186445000Y-79420000D02*
X186445000Y-78220000D01*
X216650000Y-79130000D02*
X217850000Y-79130000D01*
X217850000Y-80890000D02*
X216650000Y-80890000D01*
X216650000Y-82305000D02*
X217850000Y-82305000D01*
X217850000Y-84065000D02*
X216650000Y-84065000D01*
X188985000Y-74340000D02*
X188985000Y-73140000D01*
X190745000Y-73140000D02*
X190745000Y-74340000D01*
X216650000Y-85480000D02*
X217850000Y-85480000D01*
X217850000Y-87240000D02*
X216650000Y-87240000D01*
X217850000Y-77715000D02*
X216650000Y-77715000D01*
X216650000Y-75955000D02*
X217850000Y-75955000D01*
X216650000Y-72780000D02*
X217850000Y-72780000D01*
X217850000Y-74540000D02*
X216650000Y-74540000D01*
X204860000Y-96485000D02*
X204860000Y-95285000D01*
X206620000Y-95285000D02*
X206620000Y-96485000D01*
X188205000Y-73140000D02*
X188205000Y-74340000D01*
X186445000Y-74340000D02*
X186445000Y-73140000D01*
X185665000Y-78220000D02*
X185665000Y-79420000D01*
X183905000Y-79420000D02*
X183905000Y-78220000D01*
X215350000Y-108200000D02*
X218500000Y-108200000D01*
X209500000Y-108200000D02*
X212650000Y-108200000D01*
X213000000Y-103090000D02*
X215000000Y-103090000D01*
X213650000Y-108800000D02*
X214350000Y-108800000D01*
X213650000Y-107600000D02*
X213650000Y-108800000D01*
X214350000Y-107600000D02*
X213650000Y-107600000D01*
X214350000Y-108800000D02*
X214350000Y-107600000D01*
X213650000Y-108400000D02*
X214350000Y-108000000D01*
X205650000Y-126050000D02*
X222350000Y-126050000D01*
X205650000Y-103350000D02*
X205650000Y-126050000D01*
X222350000Y-103350000D02*
X205650000Y-103350000D01*
X222350000Y-126050000D02*
X222350000Y-103350000D01*
X190745000Y-78220000D02*
X190745000Y-79420000D01*
X188985000Y-79420000D02*
X188985000Y-78220000D01*
X189960000Y-134620000D02*
X200120000Y-134620000D01*
X189960000Y-127000000D02*
X189960000Y-134620000D01*
X200120000Y-127000000D02*
X189960000Y-127000000D01*
X200120000Y-134620000D02*
X200120000Y-127000000D01*
X200120000Y-133350000D02*
X189960000Y-133350000D01*
X187380000Y-89760000D02*
X187380000Y-83300000D01*
X182850000Y-89760000D02*
X185450000Y-89760000D01*
X180920000Y-89760000D02*
X180920000Y-83300000D01*
X182850000Y-83300000D02*
X185450000Y-83300000D01*
X180950000Y-89760000D02*
X180920000Y-89760000D01*
X187380000Y-89760000D02*
X187350000Y-89760000D01*
X187380000Y-83300000D02*
X187350000Y-83300000D01*
X180920000Y-83300000D02*
X180950000Y-83300000D01*
D13*
X209706666Y-125182380D02*
X209706666Y-125896666D01*
X209659047Y-126039523D01*
X209563809Y-126134761D01*
X209420952Y-126182380D01*
X209325714Y-126182380D01*
X210135238Y-125277619D02*
X210182857Y-125230000D01*
X210278095Y-125182380D01*
X210516190Y-125182380D01*
X210611428Y-125230000D01*
X210659047Y-125277619D01*
X210706666Y-125372857D01*
X210706666Y-125468095D01*
X210659047Y-125610952D01*
X210087619Y-126182380D01*
X210706666Y-126182380D01*
X192492380Y-89661904D02*
X193301904Y-89661904D01*
X193397142Y-89614285D01*
X193444761Y-89566666D01*
X193492380Y-89471428D01*
X193492380Y-89280952D01*
X193444761Y-89185714D01*
X193397142Y-89138095D01*
X193301904Y-89090476D01*
X192492380Y-89090476D01*
X192587619Y-88661904D02*
X192540000Y-88614285D01*
X192492380Y-88519047D01*
X192492380Y-88280952D01*
X192540000Y-88185714D01*
X192587619Y-88138095D01*
X192682857Y-88090476D01*
X192778095Y-88090476D01*
X192920952Y-88138095D01*
X193492380Y-88709523D01*
X193492380Y-88090476D01*
X192968571Y-86375476D02*
X192968571Y-86042142D01*
X193492380Y-85899285D02*
X193492380Y-86375476D01*
X192492380Y-86375476D01*
X192492380Y-85899285D01*
X193444761Y-85518333D02*
X193492380Y-85375476D01*
X193492380Y-85137380D01*
X193444761Y-85042142D01*
X193397142Y-84994523D01*
X193301904Y-84946904D01*
X193206666Y-84946904D01*
X193111428Y-84994523D01*
X193063809Y-85042142D01*
X193016190Y-85137380D01*
X192968571Y-85327857D01*
X192920952Y-85423095D01*
X192873333Y-85470714D01*
X192778095Y-85518333D01*
X192682857Y-85518333D01*
X192587619Y-85470714D01*
X192540000Y-85423095D01*
X192492380Y-85327857D01*
X192492380Y-85089761D01*
X192540000Y-84946904D01*
X193492380Y-84518333D02*
X192492380Y-84518333D01*
X192492380Y-84137380D01*
X192540000Y-84042142D01*
X192587619Y-83994523D01*
X192682857Y-83946904D01*
X192825714Y-83946904D01*
X192920952Y-83994523D01*
X192968571Y-84042142D01*
X193016190Y-84137380D01*
X193016190Y-84518333D01*
X193111428Y-83518333D02*
X193111428Y-82756428D01*
X193492380Y-81756428D02*
X193492380Y-82327857D01*
X193492380Y-82042142D02*
X192492380Y-82042142D01*
X192635238Y-82137380D01*
X192730476Y-82232619D01*
X192778095Y-82327857D01*
X192587619Y-81375476D02*
X192540000Y-81327857D01*
X192492380Y-81232619D01*
X192492380Y-80994523D01*
X192540000Y-80899285D01*
X192587619Y-80851666D01*
X192682857Y-80804047D01*
X192778095Y-80804047D01*
X192920952Y-80851666D01*
X193492380Y-81423095D01*
X193492380Y-80804047D01*
X192968571Y-80042142D02*
X192968571Y-80375476D01*
X193492380Y-80375476D02*
X192492380Y-80375476D01*
X192492380Y-79899285D01*
X219867619Y-67405238D02*
X219820000Y-67500476D01*
X219724761Y-67595714D01*
X219581904Y-67738571D01*
X219534285Y-67833809D01*
X219534285Y-67929047D01*
X219772380Y-67881428D02*
X219724761Y-67976666D01*
X219629523Y-68071904D01*
X219439047Y-68119523D01*
X219105714Y-68119523D01*
X218915238Y-68071904D01*
X218820000Y-67976666D01*
X218772380Y-67881428D01*
X218772380Y-67690952D01*
X218820000Y-67595714D01*
X218915238Y-67500476D01*
X219105714Y-67452857D01*
X219439047Y-67452857D01*
X219629523Y-67500476D01*
X219724761Y-67595714D01*
X219772380Y-67690952D01*
X219772380Y-67881428D01*
X218867619Y-67071904D02*
X218820000Y-67024285D01*
X218772380Y-66929047D01*
X218772380Y-66690952D01*
X218820000Y-66595714D01*
X218867619Y-66548095D01*
X218962857Y-66500476D01*
X219058095Y-66500476D01*
X219200952Y-66548095D01*
X219772380Y-67119523D01*
X219772380Y-66500476D01*
X207877619Y-97250238D02*
X207830000Y-97345476D01*
X207734761Y-97440714D01*
X207591904Y-97583571D01*
X207544285Y-97678809D01*
X207544285Y-97774047D01*
X207782380Y-97726428D02*
X207734761Y-97821666D01*
X207639523Y-97916904D01*
X207449047Y-97964523D01*
X207115714Y-97964523D01*
X206925238Y-97916904D01*
X206830000Y-97821666D01*
X206782380Y-97726428D01*
X206782380Y-97535952D01*
X206830000Y-97440714D01*
X206925238Y-97345476D01*
X207115714Y-97297857D01*
X207449047Y-97297857D01*
X207639523Y-97345476D01*
X207734761Y-97440714D01*
X207782380Y-97535952D01*
X207782380Y-97726428D01*
X206782380Y-96964523D02*
X206782380Y-96345476D01*
X207163333Y-96678809D01*
X207163333Y-96535952D01*
X207210952Y-96440714D01*
X207258571Y-96393095D01*
X207353809Y-96345476D01*
X207591904Y-96345476D01*
X207687142Y-96393095D01*
X207734761Y-96440714D01*
X207782380Y-96535952D01*
X207782380Y-96821666D01*
X207734761Y-96916904D01*
X207687142Y-96964523D01*
X222551666Y-91317380D02*
X222551666Y-92031666D01*
X222504047Y-92174523D01*
X222408809Y-92269761D01*
X222265952Y-92317380D01*
X222170714Y-92317380D01*
X223551666Y-92317380D02*
X222980238Y-92317380D01*
X223265952Y-92317380D02*
X223265952Y-91317380D01*
X223170714Y-91460238D01*
X223075476Y-91555476D01*
X222980238Y-91603095D01*
X225496380Y-87494523D02*
X224496380Y-87494523D01*
X224496380Y-87113571D01*
X224544000Y-87018333D01*
X224591619Y-86970714D01*
X224686857Y-86923095D01*
X224829714Y-86923095D01*
X224924952Y-86970714D01*
X224972571Y-87018333D01*
X225020190Y-87113571D01*
X225020190Y-87494523D01*
X225496380Y-86494523D02*
X224829714Y-86494523D01*
X225020190Y-86494523D02*
X224924952Y-86446904D01*
X224877333Y-86399285D01*
X224829714Y-86304047D01*
X224829714Y-86208809D01*
X225496380Y-85732619D02*
X225448761Y-85827857D01*
X225401142Y-85875476D01*
X225305904Y-85923095D01*
X225020190Y-85923095D01*
X224924952Y-85875476D01*
X224877333Y-85827857D01*
X224829714Y-85732619D01*
X224829714Y-85589761D01*
X224877333Y-85494523D01*
X224924952Y-85446904D01*
X225020190Y-85399285D01*
X225305904Y-85399285D01*
X225401142Y-85446904D01*
X225448761Y-85494523D01*
X225496380Y-85589761D01*
X225496380Y-85732619D01*
X224829714Y-84542142D02*
X225639238Y-84542142D01*
X225734476Y-84589761D01*
X225782095Y-84637380D01*
X225829714Y-84732619D01*
X225829714Y-84875476D01*
X225782095Y-84970714D01*
X225448761Y-84542142D02*
X225496380Y-84637380D01*
X225496380Y-84827857D01*
X225448761Y-84923095D01*
X225401142Y-84970714D01*
X225305904Y-85018333D01*
X225020190Y-85018333D01*
X224924952Y-84970714D01*
X224877333Y-84923095D01*
X224829714Y-84827857D01*
X224829714Y-84637380D01*
X224877333Y-84542142D01*
X225496380Y-84065952D02*
X224829714Y-84065952D01*
X225020190Y-84065952D02*
X224924952Y-84018333D01*
X224877333Y-83970714D01*
X224829714Y-83875476D01*
X224829714Y-83780238D01*
X225496380Y-83018333D02*
X224972571Y-83018333D01*
X224877333Y-83065952D01*
X224829714Y-83161190D01*
X224829714Y-83351666D01*
X224877333Y-83446904D01*
X225448761Y-83018333D02*
X225496380Y-83113571D01*
X225496380Y-83351666D01*
X225448761Y-83446904D01*
X225353523Y-83494523D01*
X225258285Y-83494523D01*
X225163047Y-83446904D01*
X225115428Y-83351666D01*
X225115428Y-83113571D01*
X225067809Y-83018333D01*
X225496380Y-82542142D02*
X224829714Y-82542142D01*
X224924952Y-82542142D02*
X224877333Y-82494523D01*
X224829714Y-82399285D01*
X224829714Y-82256428D01*
X224877333Y-82161190D01*
X224972571Y-82113571D01*
X225496380Y-82113571D01*
X224972571Y-82113571D02*
X224877333Y-82065952D01*
X224829714Y-81970714D01*
X224829714Y-81827857D01*
X224877333Y-81732619D01*
X224972571Y-81685000D01*
X225496380Y-81685000D01*
X225496380Y-81208809D02*
X224829714Y-81208809D01*
X224924952Y-81208809D02*
X224877333Y-81161190D01*
X224829714Y-81065952D01*
X224829714Y-80923095D01*
X224877333Y-80827857D01*
X224972571Y-80780238D01*
X225496380Y-80780238D01*
X224972571Y-80780238D02*
X224877333Y-80732619D01*
X224829714Y-80637380D01*
X224829714Y-80494523D01*
X224877333Y-80399285D01*
X224972571Y-80351666D01*
X225496380Y-80351666D01*
X225448761Y-79494523D02*
X225496380Y-79589761D01*
X225496380Y-79780238D01*
X225448761Y-79875476D01*
X225353523Y-79923095D01*
X224972571Y-79923095D01*
X224877333Y-79875476D01*
X224829714Y-79780238D01*
X224829714Y-79589761D01*
X224877333Y-79494523D01*
X224972571Y-79446904D01*
X225067809Y-79446904D01*
X225163047Y-79923095D01*
X225496380Y-79018333D02*
X224829714Y-79018333D01*
X225020190Y-79018333D02*
X224924952Y-78970714D01*
X224877333Y-78923095D01*
X224829714Y-78827857D01*
X224829714Y-78732619D01*
X217082619Y-67405238D02*
X217035000Y-67500476D01*
X216939761Y-67595714D01*
X216796904Y-67738571D01*
X216749285Y-67833809D01*
X216749285Y-67929047D01*
X216987380Y-67881428D02*
X216939761Y-67976666D01*
X216844523Y-68071904D01*
X216654047Y-68119523D01*
X216320714Y-68119523D01*
X216130238Y-68071904D01*
X216035000Y-67976666D01*
X215987380Y-67881428D01*
X215987380Y-67690952D01*
X216035000Y-67595714D01*
X216130238Y-67500476D01*
X216320714Y-67452857D01*
X216654047Y-67452857D01*
X216844523Y-67500476D01*
X216939761Y-67595714D01*
X216987380Y-67690952D01*
X216987380Y-67881428D01*
X216987380Y-66500476D02*
X216987380Y-67071904D01*
X216987380Y-66786190D02*
X215987380Y-66786190D01*
X216130238Y-66881428D01*
X216225476Y-66976666D01*
X216273095Y-67071904D01*
X179157380Y-81406904D02*
X179966904Y-81406904D01*
X180062142Y-81359285D01*
X180109761Y-81311666D01*
X180157380Y-81216428D01*
X180157380Y-81025952D01*
X180109761Y-80930714D01*
X180062142Y-80883095D01*
X179966904Y-80835476D01*
X179157380Y-80835476D01*
X179157380Y-79930714D02*
X179157380Y-80121190D01*
X179205000Y-80216428D01*
X179252619Y-80264047D01*
X179395476Y-80359285D01*
X179585952Y-80406904D01*
X179966904Y-80406904D01*
X180062142Y-80359285D01*
X180109761Y-80311666D01*
X180157380Y-80216428D01*
X180157380Y-80025952D01*
X180109761Y-79930714D01*
X180062142Y-79883095D01*
X179966904Y-79835476D01*
X179728809Y-79835476D01*
X179633571Y-79883095D01*
X179585952Y-79930714D01*
X179538333Y-80025952D01*
X179538333Y-80216428D01*
X179585952Y-80311666D01*
X179633571Y-80359285D01*
X179728809Y-80406904D01*
X184852380Y-80589047D02*
X183852380Y-80589047D01*
X183852380Y-80350952D01*
X183900000Y-80208095D01*
X183995238Y-80112857D01*
X184090476Y-80065238D01*
X184280952Y-80017619D01*
X184423809Y-80017619D01*
X184614285Y-80065238D01*
X184709523Y-80112857D01*
X184804761Y-80208095D01*
X184852380Y-80350952D01*
X184852380Y-80589047D01*
X184804761Y-79636666D02*
X184852380Y-79493809D01*
X184852380Y-79255714D01*
X184804761Y-79160476D01*
X184757142Y-79112857D01*
X184661904Y-79065238D01*
X184566666Y-79065238D01*
X184471428Y-79112857D01*
X184423809Y-79160476D01*
X184376190Y-79255714D01*
X184328571Y-79446190D01*
X184280952Y-79541428D01*
X184233333Y-79589047D01*
X184138095Y-79636666D01*
X184042857Y-79636666D01*
X183947619Y-79589047D01*
X183900000Y-79541428D01*
X183852380Y-79446190D01*
X183852380Y-79208095D01*
X183900000Y-79065238D01*
X184852380Y-78112857D02*
X184852380Y-78684285D01*
X184852380Y-78398571D02*
X183852380Y-78398571D01*
X183995238Y-78493809D01*
X184090476Y-78589047D01*
X184138095Y-78684285D01*
X184280952Y-77541428D02*
X184233333Y-77636666D01*
X184185714Y-77684285D01*
X184090476Y-77731904D01*
X184042857Y-77731904D01*
X183947619Y-77684285D01*
X183900000Y-77636666D01*
X183852380Y-77541428D01*
X183852380Y-77350952D01*
X183900000Y-77255714D01*
X183947619Y-77208095D01*
X184042857Y-77160476D01*
X184090476Y-77160476D01*
X184185714Y-77208095D01*
X184233333Y-77255714D01*
X184280952Y-77350952D01*
X184280952Y-77541428D01*
X184328571Y-77636666D01*
X184376190Y-77684285D01*
X184471428Y-77731904D01*
X184661904Y-77731904D01*
X184757142Y-77684285D01*
X184804761Y-77636666D01*
X184852380Y-77541428D01*
X184852380Y-77350952D01*
X184804761Y-77255714D01*
X184757142Y-77208095D01*
X184661904Y-77160476D01*
X184471428Y-77160476D01*
X184376190Y-77208095D01*
X184328571Y-77255714D01*
X184280952Y-77350952D01*
X184804761Y-76779523D02*
X184852380Y-76636666D01*
X184852380Y-76398571D01*
X184804761Y-76303333D01*
X184757142Y-76255714D01*
X184661904Y-76208095D01*
X184566666Y-76208095D01*
X184471428Y-76255714D01*
X184423809Y-76303333D01*
X184376190Y-76398571D01*
X184328571Y-76589047D01*
X184280952Y-76684285D01*
X184233333Y-76731904D01*
X184138095Y-76779523D01*
X184042857Y-76779523D01*
X183947619Y-76731904D01*
X183900000Y-76684285D01*
X183852380Y-76589047D01*
X183852380Y-76350952D01*
X183900000Y-76208095D01*
X183947619Y-75827142D02*
X183900000Y-75779523D01*
X183852380Y-75684285D01*
X183852380Y-75446190D01*
X183900000Y-75350952D01*
X183947619Y-75303333D01*
X184042857Y-75255714D01*
X184138095Y-75255714D01*
X184280952Y-75303333D01*
X184852380Y-75874761D01*
X184852380Y-75255714D01*
X183852380Y-74636666D02*
X183852380Y-74541428D01*
X183900000Y-74446190D01*
X183947619Y-74398571D01*
X184042857Y-74350952D01*
X184233333Y-74303333D01*
X184471428Y-74303333D01*
X184661904Y-74350952D01*
X184757142Y-74398571D01*
X184804761Y-74446190D01*
X184852380Y-74541428D01*
X184852380Y-74636666D01*
X184804761Y-74731904D01*
X184757142Y-74779523D01*
X184661904Y-74827142D01*
X184471428Y-74874761D01*
X184233333Y-74874761D01*
X184042857Y-74827142D01*
X183947619Y-74779523D01*
X183900000Y-74731904D01*
X183852380Y-74636666D01*
X186507380Y-68048095D02*
X185507380Y-68048095D01*
X185507380Y-67810000D01*
X185555000Y-67667142D01*
X185650238Y-67571904D01*
X185745476Y-67524285D01*
X185935952Y-67476666D01*
X186078809Y-67476666D01*
X186269285Y-67524285D01*
X186364523Y-67571904D01*
X186459761Y-67667142D01*
X186507380Y-67810000D01*
X186507380Y-68048095D01*
X185602619Y-67095714D02*
X185555000Y-67048095D01*
X185507380Y-66952857D01*
X185507380Y-66714761D01*
X185555000Y-66619523D01*
X185602619Y-66571904D01*
X185697857Y-66524285D01*
X185793095Y-66524285D01*
X185935952Y-66571904D01*
X186507380Y-67143333D01*
X186507380Y-66524285D01*
X216431904Y-93797380D02*
X216431904Y-92797380D01*
X216670000Y-92797380D01*
X216812857Y-92845000D01*
X216908095Y-92940238D01*
X216955714Y-93035476D01*
X217003333Y-93225952D01*
X217003333Y-93368809D01*
X216955714Y-93559285D01*
X216908095Y-93654523D01*
X216812857Y-93749761D01*
X216670000Y-93797380D01*
X216431904Y-93797380D01*
X217336666Y-92797380D02*
X217955714Y-92797380D01*
X217622380Y-93178333D01*
X217765238Y-93178333D01*
X217860476Y-93225952D01*
X217908095Y-93273571D01*
X217955714Y-93368809D01*
X217955714Y-93606904D01*
X217908095Y-93702142D01*
X217860476Y-93749761D01*
X217765238Y-93797380D01*
X217479523Y-93797380D01*
X217384285Y-93749761D01*
X217336666Y-93702142D01*
X183967380Y-73906666D02*
X183491190Y-74240000D01*
X183967380Y-74478095D02*
X182967380Y-74478095D01*
X182967380Y-74097142D01*
X183015000Y-74001904D01*
X183062619Y-73954285D01*
X183157857Y-73906666D01*
X183300714Y-73906666D01*
X183395952Y-73954285D01*
X183443571Y-74001904D01*
X183491190Y-74097142D01*
X183491190Y-74478095D01*
X183395952Y-73335238D02*
X183348333Y-73430476D01*
X183300714Y-73478095D01*
X183205476Y-73525714D01*
X183157857Y-73525714D01*
X183062619Y-73478095D01*
X183015000Y-73430476D01*
X182967380Y-73335238D01*
X182967380Y-73144761D01*
X183015000Y-73049523D01*
X183062619Y-73001904D01*
X183157857Y-72954285D01*
X183205476Y-72954285D01*
X183300714Y-73001904D01*
X183348333Y-73049523D01*
X183395952Y-73144761D01*
X183395952Y-73335238D01*
X183443571Y-73430476D01*
X183491190Y-73478095D01*
X183586428Y-73525714D01*
X183776904Y-73525714D01*
X183872142Y-73478095D01*
X183919761Y-73430476D01*
X183967380Y-73335238D01*
X183967380Y-73144761D01*
X183919761Y-73049523D01*
X183872142Y-73001904D01*
X183776904Y-72954285D01*
X183586428Y-72954285D01*
X183491190Y-73001904D01*
X183443571Y-73049523D01*
X183395952Y-73144761D01*
X179802380Y-125204285D02*
X178802380Y-125204285D01*
X178802380Y-124823333D01*
X178850000Y-124728095D01*
X178897619Y-124680476D01*
X178992857Y-124632857D01*
X179135714Y-124632857D01*
X179230952Y-124680476D01*
X179278571Y-124728095D01*
X179326190Y-124823333D01*
X179326190Y-125204285D01*
X179754761Y-124251904D02*
X179802380Y-124109047D01*
X179802380Y-123870952D01*
X179754761Y-123775714D01*
X179707142Y-123728095D01*
X179611904Y-123680476D01*
X179516666Y-123680476D01*
X179421428Y-123728095D01*
X179373809Y-123775714D01*
X179326190Y-123870952D01*
X179278571Y-124061428D01*
X179230952Y-124156666D01*
X179183333Y-124204285D01*
X179088095Y-124251904D01*
X178992857Y-124251904D01*
X178897619Y-124204285D01*
X178850000Y-124156666D01*
X178802380Y-124061428D01*
X178802380Y-123823333D01*
X178850000Y-123680476D01*
X179802380Y-122728095D02*
X179802380Y-123299523D01*
X179802380Y-123013809D02*
X178802380Y-123013809D01*
X178945238Y-123109047D01*
X179040476Y-123204285D01*
X179088095Y-123299523D01*
X180157380Y-101607380D02*
X179157380Y-101607380D01*
X180157380Y-100559761D02*
X179681190Y-100893095D01*
X180157380Y-101131190D02*
X179157380Y-101131190D01*
X179157380Y-100750238D01*
X179205000Y-100655000D01*
X179252619Y-100607380D01*
X179347857Y-100559761D01*
X179490714Y-100559761D01*
X179585952Y-100607380D01*
X179633571Y-100655000D01*
X179681190Y-100750238D01*
X179681190Y-101131190D01*
X180157380Y-100131190D02*
X179157380Y-100131190D01*
X179871666Y-99797857D01*
X179157380Y-99464523D01*
X180157380Y-99464523D01*
X179776428Y-98988333D02*
X179776428Y-98226428D01*
X179157380Y-97559761D02*
X179157380Y-97464523D01*
X179205000Y-97369285D01*
X179252619Y-97321666D01*
X179347857Y-97274047D01*
X179538333Y-97226428D01*
X179776428Y-97226428D01*
X179966904Y-97274047D01*
X180062142Y-97321666D01*
X180109761Y-97369285D01*
X180157380Y-97464523D01*
X180157380Y-97559761D01*
X180109761Y-97655000D01*
X180062142Y-97702619D01*
X179966904Y-97750238D01*
X179776428Y-97797857D01*
X179538333Y-97797857D01*
X179347857Y-97750238D01*
X179252619Y-97702619D01*
X179205000Y-97655000D01*
X179157380Y-97559761D01*
X179252619Y-96845476D02*
X179205000Y-96797857D01*
X179157380Y-96702619D01*
X179157380Y-96464523D01*
X179205000Y-96369285D01*
X179252619Y-96321666D01*
X179347857Y-96274047D01*
X179443095Y-96274047D01*
X179585952Y-96321666D01*
X180157380Y-96893095D01*
X180157380Y-96274047D01*
X179776428Y-95845476D02*
X179776428Y-95083571D01*
X179157380Y-94702619D02*
X179157380Y-94083571D01*
X179538333Y-94416904D01*
X179538333Y-94274047D01*
X179585952Y-94178809D01*
X179633571Y-94131190D01*
X179728809Y-94083571D01*
X179966904Y-94083571D01*
X180062142Y-94131190D01*
X180109761Y-94178809D01*
X180157380Y-94274047D01*
X180157380Y-94559761D01*
X180109761Y-94655000D01*
X180062142Y-94702619D01*
X180062142Y-93655000D02*
X180109761Y-93607380D01*
X180157380Y-93655000D01*
X180109761Y-93702619D01*
X180062142Y-93655000D01*
X180157380Y-93655000D01*
X179157380Y-93274047D02*
X179157380Y-92655000D01*
X179538333Y-92988333D01*
X179538333Y-92845476D01*
X179585952Y-92750238D01*
X179633571Y-92702619D01*
X179728809Y-92655000D01*
X179966904Y-92655000D01*
X180062142Y-92702619D01*
X180109761Y-92750238D01*
X180157380Y-92845476D01*
X180157380Y-93131190D01*
X180109761Y-93226428D01*
X180062142Y-93274047D01*
X213828333Y-89892142D02*
X213780714Y-89939761D01*
X213637857Y-89987380D01*
X213542619Y-89987380D01*
X213399761Y-89939761D01*
X213304523Y-89844523D01*
X213256904Y-89749285D01*
X213209285Y-89558809D01*
X213209285Y-89415952D01*
X213256904Y-89225476D01*
X213304523Y-89130238D01*
X213399761Y-89035000D01*
X213542619Y-88987380D01*
X213637857Y-88987380D01*
X213780714Y-89035000D01*
X213828333Y-89082619D01*
X214209285Y-89082619D02*
X214256904Y-89035000D01*
X214352142Y-88987380D01*
X214590238Y-88987380D01*
X214685476Y-89035000D01*
X214733095Y-89082619D01*
X214780714Y-89177857D01*
X214780714Y-89273095D01*
X214733095Y-89415952D01*
X214161666Y-89987380D01*
X214780714Y-89987380D01*
X186523333Y-88622142D02*
X186475714Y-88669761D01*
X186332857Y-88717380D01*
X186237619Y-88717380D01*
X186094761Y-88669761D01*
X185999523Y-88574523D01*
X185951904Y-88479285D01*
X185904285Y-88288809D01*
X185904285Y-88145952D01*
X185951904Y-87955476D01*
X185999523Y-87860238D01*
X186094761Y-87765000D01*
X186237619Y-87717380D01*
X186332857Y-87717380D01*
X186475714Y-87765000D01*
X186523333Y-87812619D01*
X187380476Y-88050714D02*
X187380476Y-88717380D01*
X187142380Y-87669761D02*
X186904285Y-88384047D01*
X187523333Y-88384047D01*
X186523333Y-86082142D02*
X186475714Y-86129761D01*
X186332857Y-86177380D01*
X186237619Y-86177380D01*
X186094761Y-86129761D01*
X185999523Y-86034523D01*
X185951904Y-85939285D01*
X185904285Y-85748809D01*
X185904285Y-85605952D01*
X185951904Y-85415476D01*
X185999523Y-85320238D01*
X186094761Y-85225000D01*
X186237619Y-85177380D01*
X186332857Y-85177380D01*
X186475714Y-85225000D01*
X186523333Y-85272619D01*
X187428095Y-85177380D02*
X186951904Y-85177380D01*
X186904285Y-85653571D01*
X186951904Y-85605952D01*
X187047142Y-85558333D01*
X187285238Y-85558333D01*
X187380476Y-85605952D01*
X187428095Y-85653571D01*
X187475714Y-85748809D01*
X187475714Y-85986904D01*
X187428095Y-86082142D01*
X187380476Y-86129761D01*
X187285238Y-86177380D01*
X187047142Y-86177380D01*
X186951904Y-86129761D01*
X186904285Y-86082142D01*
X183537380Y-68048095D02*
X182537380Y-68048095D01*
X182537380Y-67810000D01*
X182585000Y-67667142D01*
X182680238Y-67571904D01*
X182775476Y-67524285D01*
X182965952Y-67476666D01*
X183108809Y-67476666D01*
X183299285Y-67524285D01*
X183394523Y-67571904D01*
X183489761Y-67667142D01*
X183537380Y-67810000D01*
X183537380Y-68048095D01*
X183537380Y-66524285D02*
X183537380Y-67095714D01*
X183537380Y-66810000D02*
X182537380Y-66810000D01*
X182680238Y-66905238D01*
X182775476Y-67000476D01*
X182823095Y-67095714D01*
X187777380Y-82241666D02*
X187301190Y-82575000D01*
X187777380Y-82813095D02*
X186777380Y-82813095D01*
X186777380Y-82432142D01*
X186825000Y-82336904D01*
X186872619Y-82289285D01*
X186967857Y-82241666D01*
X187110714Y-82241666D01*
X187205952Y-82289285D01*
X187253571Y-82336904D01*
X187301190Y-82432142D01*
X187301190Y-82813095D01*
X187777380Y-81289285D02*
X187777380Y-81860714D01*
X187777380Y-81575000D02*
X186777380Y-81575000D01*
X186920238Y-81670238D01*
X187015476Y-81765476D01*
X187063095Y-81860714D01*
X213828333Y-80462380D02*
X213495000Y-79986190D01*
X213256904Y-80462380D02*
X213256904Y-79462380D01*
X213637857Y-79462380D01*
X213733095Y-79510000D01*
X213780714Y-79557619D01*
X213828333Y-79652857D01*
X213828333Y-79795714D01*
X213780714Y-79890952D01*
X213733095Y-79938571D01*
X213637857Y-79986190D01*
X213256904Y-79986190D01*
X214209285Y-79557619D02*
X214256904Y-79510000D01*
X214352142Y-79462380D01*
X214590238Y-79462380D01*
X214685476Y-79510000D01*
X214733095Y-79557619D01*
X214780714Y-79652857D01*
X214780714Y-79748095D01*
X214733095Y-79890952D01*
X214161666Y-80462380D01*
X214780714Y-80462380D01*
X213828333Y-83637380D02*
X213495000Y-83161190D01*
X213256904Y-83637380D02*
X213256904Y-82637380D01*
X213637857Y-82637380D01*
X213733095Y-82685000D01*
X213780714Y-82732619D01*
X213828333Y-82827857D01*
X213828333Y-82970714D01*
X213780714Y-83065952D01*
X213733095Y-83113571D01*
X213637857Y-83161190D01*
X213256904Y-83161190D01*
X214161666Y-82637380D02*
X214780714Y-82637380D01*
X214447380Y-83018333D01*
X214590238Y-83018333D01*
X214685476Y-83065952D01*
X214733095Y-83113571D01*
X214780714Y-83208809D01*
X214780714Y-83446904D01*
X214733095Y-83542142D01*
X214685476Y-83589761D01*
X214590238Y-83637380D01*
X214304523Y-83637380D01*
X214209285Y-83589761D01*
X214161666Y-83542142D01*
X189047380Y-73906666D02*
X188571190Y-74240000D01*
X189047380Y-74478095D02*
X188047380Y-74478095D01*
X188047380Y-74097142D01*
X188095000Y-74001904D01*
X188142619Y-73954285D01*
X188237857Y-73906666D01*
X188380714Y-73906666D01*
X188475952Y-73954285D01*
X188523571Y-74001904D01*
X188571190Y-74097142D01*
X188571190Y-74478095D01*
X188047380Y-73049523D02*
X188047380Y-73240000D01*
X188095000Y-73335238D01*
X188142619Y-73382857D01*
X188285476Y-73478095D01*
X188475952Y-73525714D01*
X188856904Y-73525714D01*
X188952142Y-73478095D01*
X188999761Y-73430476D01*
X189047380Y-73335238D01*
X189047380Y-73144761D01*
X188999761Y-73049523D01*
X188952142Y-73001904D01*
X188856904Y-72954285D01*
X188618809Y-72954285D01*
X188523571Y-73001904D01*
X188475952Y-73049523D01*
X188428333Y-73144761D01*
X188428333Y-73335238D01*
X188475952Y-73430476D01*
X188523571Y-73478095D01*
X188618809Y-73525714D01*
X213828333Y-86812380D02*
X213495000Y-86336190D01*
X213256904Y-86812380D02*
X213256904Y-85812380D01*
X213637857Y-85812380D01*
X213733095Y-85860000D01*
X213780714Y-85907619D01*
X213828333Y-86002857D01*
X213828333Y-86145714D01*
X213780714Y-86240952D01*
X213733095Y-86288571D01*
X213637857Y-86336190D01*
X213256904Y-86336190D01*
X214161666Y-85812380D02*
X214828333Y-85812380D01*
X214399761Y-86812380D01*
X213828333Y-77287380D02*
X213495000Y-76811190D01*
X213256904Y-77287380D02*
X213256904Y-76287380D01*
X213637857Y-76287380D01*
X213733095Y-76335000D01*
X213780714Y-76382619D01*
X213828333Y-76477857D01*
X213828333Y-76620714D01*
X213780714Y-76715952D01*
X213733095Y-76763571D01*
X213637857Y-76811190D01*
X213256904Y-76811190D01*
X214304523Y-77287380D02*
X214495000Y-77287380D01*
X214590238Y-77239761D01*
X214637857Y-77192142D01*
X214733095Y-77049285D01*
X214780714Y-76858809D01*
X214780714Y-76477857D01*
X214733095Y-76382619D01*
X214685476Y-76335000D01*
X214590238Y-76287380D01*
X214399761Y-76287380D01*
X214304523Y-76335000D01*
X214256904Y-76382619D01*
X214209285Y-76477857D01*
X214209285Y-76715952D01*
X214256904Y-76811190D01*
X214304523Y-76858809D01*
X214399761Y-76906428D01*
X214590238Y-76906428D01*
X214685476Y-76858809D01*
X214733095Y-76811190D01*
X214780714Y-76715952D01*
X212717142Y-74112380D02*
X212383809Y-73636190D01*
X212145714Y-74112380D02*
X212145714Y-73112380D01*
X212526666Y-73112380D01*
X212621904Y-73160000D01*
X212669523Y-73207619D01*
X212717142Y-73302857D01*
X212717142Y-73445714D01*
X212669523Y-73540952D01*
X212621904Y-73588571D01*
X212526666Y-73636190D01*
X212145714Y-73636190D01*
X213669523Y-74112380D02*
X213098095Y-74112380D01*
X213383809Y-74112380D02*
X213383809Y-73112380D01*
X213288571Y-73255238D01*
X213193333Y-73350476D01*
X213098095Y-73398095D01*
X214288571Y-73112380D02*
X214383809Y-73112380D01*
X214479047Y-73160000D01*
X214526666Y-73207619D01*
X214574285Y-73302857D01*
X214621904Y-73493333D01*
X214621904Y-73731428D01*
X214574285Y-73921904D01*
X214526666Y-74017142D01*
X214479047Y-74064761D01*
X214383809Y-74112380D01*
X214288571Y-74112380D01*
X214193333Y-74064761D01*
X214145714Y-74017142D01*
X214098095Y-73921904D01*
X214050476Y-73731428D01*
X214050476Y-73493333D01*
X214098095Y-73302857D01*
X214145714Y-73207619D01*
X214193333Y-73160000D01*
X214288571Y-73112380D01*
X204492380Y-97797857D02*
X204016190Y-98131190D01*
X204492380Y-98369285D02*
X203492380Y-98369285D01*
X203492380Y-97988333D01*
X203540000Y-97893095D01*
X203587619Y-97845476D01*
X203682857Y-97797857D01*
X203825714Y-97797857D01*
X203920952Y-97845476D01*
X203968571Y-97893095D01*
X204016190Y-97988333D01*
X204016190Y-98369285D01*
X204492380Y-96845476D02*
X204492380Y-97416904D01*
X204492380Y-97131190D02*
X203492380Y-97131190D01*
X203635238Y-97226428D01*
X203730476Y-97321666D01*
X203778095Y-97416904D01*
X204492380Y-95893095D02*
X204492380Y-96464523D01*
X204492380Y-96178809D02*
X203492380Y-96178809D01*
X203635238Y-96274047D01*
X203730476Y-96369285D01*
X203778095Y-96464523D01*
X186507380Y-74382857D02*
X186031190Y-74716190D01*
X186507380Y-74954285D02*
X185507380Y-74954285D01*
X185507380Y-74573333D01*
X185555000Y-74478095D01*
X185602619Y-74430476D01*
X185697857Y-74382857D01*
X185840714Y-74382857D01*
X185935952Y-74430476D01*
X185983571Y-74478095D01*
X186031190Y-74573333D01*
X186031190Y-74954285D01*
X186507380Y-73430476D02*
X186507380Y-74001904D01*
X186507380Y-73716190D02*
X185507380Y-73716190D01*
X185650238Y-73811428D01*
X185745476Y-73906666D01*
X185793095Y-74001904D01*
X185602619Y-73049523D02*
X185555000Y-73001904D01*
X185507380Y-72906666D01*
X185507380Y-72668571D01*
X185555000Y-72573333D01*
X185602619Y-72525714D01*
X185697857Y-72478095D01*
X185793095Y-72478095D01*
X185935952Y-72525714D01*
X186507380Y-73097142D01*
X186507380Y-72478095D01*
X185237380Y-83352857D02*
X184761190Y-83686190D01*
X185237380Y-83924285D02*
X184237380Y-83924285D01*
X184237380Y-83543333D01*
X184285000Y-83448095D01*
X184332619Y-83400476D01*
X184427857Y-83352857D01*
X184570714Y-83352857D01*
X184665952Y-83400476D01*
X184713571Y-83448095D01*
X184761190Y-83543333D01*
X184761190Y-83924285D01*
X185237380Y-82400476D02*
X185237380Y-82971904D01*
X185237380Y-82686190D02*
X184237380Y-82686190D01*
X184380238Y-82781428D01*
X184475476Y-82876666D01*
X184523095Y-82971904D01*
X184237380Y-82067142D02*
X184237380Y-81448095D01*
X184618333Y-81781428D01*
X184618333Y-81638571D01*
X184665952Y-81543333D01*
X184713571Y-81495714D01*
X184808809Y-81448095D01*
X185046904Y-81448095D01*
X185142142Y-81495714D01*
X185189761Y-81543333D01*
X185237380Y-81638571D01*
X185237380Y-81924285D01*
X185189761Y-82019523D01*
X185142142Y-82067142D01*
X204927380Y-125788095D02*
X203927380Y-125788095D01*
X204927380Y-125216666D02*
X204355952Y-125645238D01*
X203927380Y-125216666D02*
X204498809Y-125788095D01*
X204927380Y-124264285D02*
X204927380Y-124835714D01*
X204927380Y-124550000D02*
X203927380Y-124550000D01*
X204070238Y-124645238D01*
X204165476Y-124740476D01*
X204213095Y-124835714D01*
X204927380Y-119548333D02*
X204451190Y-119881666D01*
X204927380Y-120119761D02*
X203927380Y-120119761D01*
X203927380Y-119738809D01*
X203975000Y-119643571D01*
X204022619Y-119595952D01*
X204117857Y-119548333D01*
X204260714Y-119548333D01*
X204355952Y-119595952D01*
X204403571Y-119643571D01*
X204451190Y-119738809D01*
X204451190Y-120119761D01*
X204927380Y-119119761D02*
X203927380Y-119119761D01*
X204641666Y-118786428D01*
X203927380Y-118453095D01*
X204927380Y-118453095D01*
X203927380Y-117500714D02*
X203927380Y-117976904D01*
X204403571Y-118024523D01*
X204355952Y-117976904D01*
X204308333Y-117881666D01*
X204308333Y-117643571D01*
X204355952Y-117548333D01*
X204403571Y-117500714D01*
X204498809Y-117453095D01*
X204736904Y-117453095D01*
X204832142Y-117500714D01*
X204879761Y-117548333D01*
X204927380Y-117643571D01*
X204927380Y-117881666D01*
X204879761Y-117976904D01*
X204832142Y-118024523D01*
X203927380Y-116834047D02*
X203927380Y-116738809D01*
X203975000Y-116643571D01*
X204022619Y-116595952D01*
X204117857Y-116548333D01*
X204308333Y-116500714D01*
X204546428Y-116500714D01*
X204736904Y-116548333D01*
X204832142Y-116595952D01*
X204879761Y-116643571D01*
X204927380Y-116738809D01*
X204927380Y-116834047D01*
X204879761Y-116929285D01*
X204832142Y-116976904D01*
X204736904Y-117024523D01*
X204546428Y-117072142D01*
X204308333Y-117072142D01*
X204117857Y-117024523D01*
X204022619Y-116976904D01*
X203975000Y-116929285D01*
X203927380Y-116834047D01*
X204546428Y-116072142D02*
X204546428Y-115310238D01*
X203927380Y-114929285D02*
X203927380Y-114310238D01*
X204308333Y-114643571D01*
X204308333Y-114500714D01*
X204355952Y-114405476D01*
X204403571Y-114357857D01*
X204498809Y-114310238D01*
X204736904Y-114310238D01*
X204832142Y-114357857D01*
X204879761Y-114405476D01*
X204927380Y-114500714D01*
X204927380Y-114786428D01*
X204879761Y-114881666D01*
X204832142Y-114929285D01*
X203927380Y-113691190D02*
X203927380Y-113595952D01*
X203975000Y-113500714D01*
X204022619Y-113453095D01*
X204117857Y-113405476D01*
X204308333Y-113357857D01*
X204546428Y-113357857D01*
X204736904Y-113405476D01*
X204832142Y-113453095D01*
X204879761Y-113500714D01*
X204927380Y-113595952D01*
X204927380Y-113691190D01*
X204879761Y-113786428D01*
X204832142Y-113834047D01*
X204736904Y-113881666D01*
X204546428Y-113929285D01*
X204308333Y-113929285D01*
X204117857Y-113881666D01*
X204022619Y-113834047D01*
X203975000Y-113786428D01*
X203927380Y-113691190D01*
X204927380Y-112405476D02*
X204927380Y-112976904D01*
X204927380Y-112691190D02*
X203927380Y-112691190D01*
X204070238Y-112786428D01*
X204165476Y-112881666D01*
X204213095Y-112976904D01*
X204927380Y-111453095D02*
X204927380Y-112024523D01*
X204927380Y-111738809D02*
X203927380Y-111738809D01*
X204070238Y-111834047D01*
X204165476Y-111929285D01*
X204213095Y-112024523D01*
X204546428Y-111024523D02*
X204546428Y-110262619D01*
X204355952Y-109643571D02*
X204308333Y-109738809D01*
X204260714Y-109786428D01*
X204165476Y-109834047D01*
X204117857Y-109834047D01*
X204022619Y-109786428D01*
X203975000Y-109738809D01*
X203927380Y-109643571D01*
X203927380Y-109453095D01*
X203975000Y-109357857D01*
X204022619Y-109310238D01*
X204117857Y-109262619D01*
X204165476Y-109262619D01*
X204260714Y-109310238D01*
X204308333Y-109357857D01*
X204355952Y-109453095D01*
X204355952Y-109643571D01*
X204403571Y-109738809D01*
X204451190Y-109786428D01*
X204546428Y-109834047D01*
X204736904Y-109834047D01*
X204832142Y-109786428D01*
X204879761Y-109738809D01*
X204927380Y-109643571D01*
X204927380Y-109453095D01*
X204879761Y-109357857D01*
X204832142Y-109310238D01*
X204736904Y-109262619D01*
X204546428Y-109262619D01*
X204451190Y-109310238D01*
X204403571Y-109357857D01*
X204355952Y-109453095D01*
X203927380Y-108357857D02*
X203927380Y-108834047D01*
X204403571Y-108881666D01*
X204355952Y-108834047D01*
X204308333Y-108738809D01*
X204308333Y-108500714D01*
X204355952Y-108405476D01*
X204403571Y-108357857D01*
X204498809Y-108310238D01*
X204736904Y-108310238D01*
X204832142Y-108357857D01*
X204879761Y-108405476D01*
X204927380Y-108500714D01*
X204927380Y-108738809D01*
X204879761Y-108834047D01*
X204832142Y-108881666D01*
X204546428Y-107881666D02*
X204546428Y-107119761D01*
X204927380Y-106119761D02*
X204927380Y-106691190D01*
X204927380Y-106405476D02*
X203927380Y-106405476D01*
X204070238Y-106500714D01*
X204165476Y-106595952D01*
X204213095Y-106691190D01*
X203927380Y-105500714D02*
X203927380Y-105405476D01*
X203975000Y-105310238D01*
X204022619Y-105262619D01*
X204117857Y-105215000D01*
X204308333Y-105167380D01*
X204546428Y-105167380D01*
X204736904Y-105215000D01*
X204832142Y-105262619D01*
X204879761Y-105310238D01*
X204927380Y-105405476D01*
X204927380Y-105500714D01*
X204879761Y-105595952D01*
X204832142Y-105643571D01*
X204736904Y-105691190D01*
X204546428Y-105738809D01*
X204308333Y-105738809D01*
X204117857Y-105691190D01*
X204022619Y-105643571D01*
X203975000Y-105595952D01*
X203927380Y-105500714D01*
X204022619Y-104786428D02*
X203975000Y-104738809D01*
X203927380Y-104643571D01*
X203927380Y-104405476D01*
X203975000Y-104310238D01*
X204022619Y-104262619D01*
X204117857Y-104215000D01*
X204213095Y-104215000D01*
X204355952Y-104262619D01*
X204927380Y-104834047D01*
X204927380Y-104215000D01*
X204260714Y-103357857D02*
X204927380Y-103357857D01*
X203879761Y-103595952D02*
X204594047Y-103834047D01*
X204594047Y-103215000D01*
X190317380Y-75731666D02*
X189841190Y-76065000D01*
X190317380Y-76303095D02*
X189317380Y-76303095D01*
X189317380Y-75922142D01*
X189365000Y-75826904D01*
X189412619Y-75779285D01*
X189507857Y-75731666D01*
X189650714Y-75731666D01*
X189745952Y-75779285D01*
X189793571Y-75826904D01*
X189841190Y-75922142D01*
X189841190Y-76303095D01*
X189650714Y-74874523D02*
X190317380Y-74874523D01*
X189269761Y-75112619D02*
X189984047Y-75350714D01*
X189984047Y-74731666D01*
X194706666Y-125182380D02*
X194706666Y-125896666D01*
X194659047Y-126039523D01*
X194563809Y-126134761D01*
X194420952Y-126182380D01*
X194325714Y-126182380D01*
X195659047Y-125182380D02*
X195182857Y-125182380D01*
X195135238Y-125658571D01*
X195182857Y-125610952D01*
X195278095Y-125563333D01*
X195516190Y-125563333D01*
X195611428Y-125610952D01*
X195659047Y-125658571D01*
X195706666Y-125753809D01*
X195706666Y-125991904D01*
X195659047Y-126087142D01*
X195611428Y-126134761D01*
X195516190Y-126182380D01*
X195278095Y-126182380D01*
X195182857Y-126134761D01*
X195135238Y-126087142D01*
X180504761Y-87863333D02*
X180552380Y-87720476D01*
X180552380Y-87482380D01*
X180504761Y-87387142D01*
X180457142Y-87339523D01*
X180361904Y-87291904D01*
X180266666Y-87291904D01*
X180171428Y-87339523D01*
X180123809Y-87387142D01*
X180076190Y-87482380D01*
X180028571Y-87672857D01*
X179980952Y-87768095D01*
X179933333Y-87815714D01*
X179838095Y-87863333D01*
X179742857Y-87863333D01*
X179647619Y-87815714D01*
X179600000Y-87768095D01*
X179552380Y-87672857D01*
X179552380Y-87434761D01*
X179600000Y-87291904D01*
X179552380Y-86958571D02*
X180552380Y-86720476D01*
X179838095Y-86530000D01*
X180552380Y-86339523D01*
X179552380Y-86101428D01*
X180552380Y-85196666D02*
X180552380Y-85768095D01*
X180552380Y-85482380D02*
X179552380Y-85482380D01*
X179695238Y-85577619D01*
X179790476Y-85672857D01*
X179838095Y-85768095D01*
M02*
