G04 #@! TF.GenerationSoftware,KiCad,Pcbnew,(5.1.0)-1*
G04 #@! TF.CreationDate,2019-03-27T16:53:25+01:00*
G04 #@! TF.ProjectId,WiFi switch,57694669-2073-4776-9974-63682e6b6963,rev?*
G04 #@! TF.SameCoordinates,Original*
G04 #@! TF.FileFunction,Soldermask,Bot*
G04 #@! TF.FilePolarity,Negative*
%FSLAX46Y46*%
G04 Gerber Fmt 4.6, Leading zero omitted, Abs format (unit mm)*
G04 Created by KiCad (PCBNEW (5.1.0)-1) date 2019-03-27 16:53:26*
%MOMM*%
%LPD*%
G04 APERTURE LIST*
%ADD10C,0.100000*%
G04 APERTURE END LIST*
D10*
G36*
X217000000Y-104000000D02*
G01*
X217757286Y-109301000D01*
X217984668Y-110892679D01*
X217990495Y-110916480D01*
X218000853Y-110938687D01*
X218015344Y-110958447D01*
X218033412Y-110975000D01*
X218054362Y-110987710D01*
X218077389Y-110996089D01*
X218108411Y-111000000D01*
X226000000Y-111000000D01*
X226000000Y-135000000D01*
X177000000Y-135000000D01*
X177000000Y-111000000D01*
X209891589Y-111000000D01*
X209915975Y-110997598D01*
X209939424Y-110990485D01*
X209961035Y-110978934D01*
X209979977Y-110963389D01*
X209995522Y-110944447D01*
X210007073Y-110922836D01*
X210015332Y-110892679D01*
X210242715Y-109301000D01*
X211000000Y-104000000D01*
X213000000Y-102000000D01*
X215000000Y-102000000D01*
X217000000Y-104000000D01*
X217000000Y-104000000D01*
G37*
G36*
X208159473Y-106708413D02*
G01*
X208255040Y-106717825D01*
X208500280Y-106792218D01*
X208726294Y-106913025D01*
X208777899Y-106955376D01*
X208924397Y-107075603D01*
X209044624Y-107222101D01*
X209086975Y-107273706D01*
X209207782Y-107499720D01*
X209282175Y-107744960D01*
X209307294Y-108000000D01*
X209282175Y-108255040D01*
X209207782Y-108500280D01*
X209086975Y-108726294D01*
X209044624Y-108777899D01*
X208924397Y-108924397D01*
X208777899Y-109044624D01*
X208726294Y-109086975D01*
X208500280Y-109207782D01*
X208255040Y-109282175D01*
X208159472Y-109291588D01*
X208063906Y-109301000D01*
X207936094Y-109301000D01*
X207840528Y-109291588D01*
X207744960Y-109282175D01*
X207499720Y-109207782D01*
X207273706Y-109086975D01*
X207222101Y-109044624D01*
X207075603Y-108924397D01*
X206955376Y-108777899D01*
X206913025Y-108726294D01*
X206792218Y-108500280D01*
X206717825Y-108255040D01*
X206692706Y-108000000D01*
X206717825Y-107744960D01*
X206792218Y-107499720D01*
X206913025Y-107273706D01*
X206955376Y-107222101D01*
X207075603Y-107075603D01*
X207222101Y-106955376D01*
X207273706Y-106913025D01*
X207499720Y-106792218D01*
X207744960Y-106717825D01*
X207840527Y-106708413D01*
X207936094Y-106699000D01*
X208063906Y-106699000D01*
X208159473Y-106708413D01*
X208159473Y-106708413D01*
G37*
G36*
X220159473Y-106708413D02*
G01*
X220255040Y-106717825D01*
X220500280Y-106792218D01*
X220726294Y-106913025D01*
X220777899Y-106955376D01*
X220924397Y-107075603D01*
X221044624Y-107222101D01*
X221086975Y-107273706D01*
X221207782Y-107499720D01*
X221282175Y-107744960D01*
X221307294Y-108000000D01*
X221282175Y-108255040D01*
X221207782Y-108500280D01*
X221086975Y-108726294D01*
X221044624Y-108777899D01*
X220924397Y-108924397D01*
X220777899Y-109044624D01*
X220726294Y-109086975D01*
X220500280Y-109207782D01*
X220255040Y-109282175D01*
X220159472Y-109291588D01*
X220063906Y-109301000D01*
X219936094Y-109301000D01*
X219840528Y-109291588D01*
X219744960Y-109282175D01*
X219499720Y-109207782D01*
X219273706Y-109086975D01*
X219222101Y-109044624D01*
X219075603Y-108924397D01*
X218955376Y-108777899D01*
X218913025Y-108726294D01*
X218792218Y-108500280D01*
X218717825Y-108255040D01*
X218692706Y-108000000D01*
X218717825Y-107744960D01*
X218792218Y-107499720D01*
X218913025Y-107273706D01*
X218955376Y-107222101D01*
X219075603Y-107075603D01*
X219222101Y-106955376D01*
X219273706Y-106913025D01*
X219499720Y-106792218D01*
X219744960Y-106717825D01*
X219840527Y-106708413D01*
X219936094Y-106699000D01*
X220063906Y-106699000D01*
X220159473Y-106708413D01*
X220159473Y-106708413D01*
G37*
G36*
X184500318Y-94035153D02*
G01*
X184718885Y-94125687D01*
X184718887Y-94125688D01*
X184915593Y-94257122D01*
X185082878Y-94424407D01*
X185214312Y-94621113D01*
X185214313Y-94621115D01*
X185304847Y-94839682D01*
X185351000Y-95071710D01*
X185351000Y-95308290D01*
X185304847Y-95540318D01*
X185214313Y-95758885D01*
X185214312Y-95758887D01*
X185082878Y-95955593D01*
X184915593Y-96122878D01*
X184718887Y-96254312D01*
X184718886Y-96254313D01*
X184718885Y-96254313D01*
X184500318Y-96344847D01*
X184268290Y-96391000D01*
X184031710Y-96391000D01*
X183799682Y-96344847D01*
X183581115Y-96254313D01*
X183581114Y-96254313D01*
X183581113Y-96254312D01*
X183384407Y-96122878D01*
X183217122Y-95955593D01*
X183085688Y-95758887D01*
X183085687Y-95758885D01*
X182995153Y-95540318D01*
X182949000Y-95308290D01*
X182949000Y-95071710D01*
X182995153Y-94839682D01*
X183085687Y-94621115D01*
X183085688Y-94621113D01*
X183217122Y-94424407D01*
X183384407Y-94257122D01*
X183581113Y-94125688D01*
X183581115Y-94125687D01*
X183799682Y-94035153D01*
X184031710Y-93989000D01*
X184268290Y-93989000D01*
X184500318Y-94035153D01*
X184500318Y-94035153D01*
G37*
G36*
X192100318Y-94035153D02*
G01*
X192318885Y-94125687D01*
X192318887Y-94125688D01*
X192515593Y-94257122D01*
X192682878Y-94424407D01*
X192814312Y-94621113D01*
X192814313Y-94621115D01*
X192904847Y-94839682D01*
X192951000Y-95071710D01*
X192951000Y-95308290D01*
X192904847Y-95540318D01*
X192814313Y-95758885D01*
X192814312Y-95758887D01*
X192682878Y-95955593D01*
X192515593Y-96122878D01*
X192318887Y-96254312D01*
X192318886Y-96254313D01*
X192318885Y-96254313D01*
X192100318Y-96344847D01*
X191868290Y-96391000D01*
X191631710Y-96391000D01*
X191399682Y-96344847D01*
X191181115Y-96254313D01*
X191181114Y-96254313D01*
X191181113Y-96254312D01*
X190984407Y-96122878D01*
X190817122Y-95955593D01*
X190685688Y-95758887D01*
X190685687Y-95758885D01*
X190595153Y-95540318D01*
X190549000Y-95308290D01*
X190549000Y-95071710D01*
X190595153Y-94839682D01*
X190685687Y-94621115D01*
X190685688Y-94621113D01*
X190817122Y-94424407D01*
X190984407Y-94257122D01*
X191181113Y-94125688D01*
X191181115Y-94125687D01*
X191399682Y-94035153D01*
X191631710Y-93989000D01*
X191868290Y-93989000D01*
X192100318Y-94035153D01*
X192100318Y-94035153D01*
G37*
G36*
X223786000Y-90436000D02*
G01*
X221984000Y-90436000D01*
X221984000Y-88634000D01*
X223786000Y-88634000D01*
X223786000Y-90436000D01*
X223786000Y-90436000D01*
G37*
G36*
X222995442Y-86100518D02*
G01*
X223061627Y-86107037D01*
X223231466Y-86158557D01*
X223387991Y-86242222D01*
X223423729Y-86271552D01*
X223525186Y-86354814D01*
X223608448Y-86456271D01*
X223637778Y-86492009D01*
X223721443Y-86648534D01*
X223772963Y-86818373D01*
X223790359Y-86995000D01*
X223772963Y-87171627D01*
X223721443Y-87341466D01*
X223637778Y-87497991D01*
X223608448Y-87533729D01*
X223525186Y-87635186D01*
X223423729Y-87718448D01*
X223387991Y-87747778D01*
X223231466Y-87831443D01*
X223061627Y-87882963D01*
X222995442Y-87889482D01*
X222929260Y-87896000D01*
X222840740Y-87896000D01*
X222774557Y-87889481D01*
X222708373Y-87882963D01*
X222538534Y-87831443D01*
X222382009Y-87747778D01*
X222346271Y-87718448D01*
X222244814Y-87635186D01*
X222161552Y-87533729D01*
X222132222Y-87497991D01*
X222048557Y-87341466D01*
X221997037Y-87171627D01*
X221979641Y-86995000D01*
X221997037Y-86818373D01*
X222048557Y-86648534D01*
X222132222Y-86492009D01*
X222161552Y-86456271D01*
X222244814Y-86354814D01*
X222346271Y-86271552D01*
X222382009Y-86242222D01*
X222538534Y-86158557D01*
X222708373Y-86107037D01*
X222774558Y-86100518D01*
X222840740Y-86094000D01*
X222929260Y-86094000D01*
X222995442Y-86100518D01*
X222995442Y-86100518D01*
G37*
G36*
X222995443Y-83560519D02*
G01*
X223061627Y-83567037D01*
X223231466Y-83618557D01*
X223387991Y-83702222D01*
X223423729Y-83731552D01*
X223525186Y-83814814D01*
X223608448Y-83916271D01*
X223637778Y-83952009D01*
X223721443Y-84108534D01*
X223772963Y-84278373D01*
X223790359Y-84455000D01*
X223772963Y-84631627D01*
X223721443Y-84801466D01*
X223637778Y-84957991D01*
X223608448Y-84993729D01*
X223525186Y-85095186D01*
X223423729Y-85178448D01*
X223387991Y-85207778D01*
X223231466Y-85291443D01*
X223061627Y-85342963D01*
X222995442Y-85349482D01*
X222929260Y-85356000D01*
X222840740Y-85356000D01*
X222774558Y-85349482D01*
X222708373Y-85342963D01*
X222538534Y-85291443D01*
X222382009Y-85207778D01*
X222346271Y-85178448D01*
X222244814Y-85095186D01*
X222161552Y-84993729D01*
X222132222Y-84957991D01*
X222048557Y-84801466D01*
X221997037Y-84631627D01*
X221979641Y-84455000D01*
X221997037Y-84278373D01*
X222048557Y-84108534D01*
X222132222Y-83952009D01*
X222161552Y-83916271D01*
X222244814Y-83814814D01*
X222346271Y-83731552D01*
X222382009Y-83702222D01*
X222538534Y-83618557D01*
X222708373Y-83567037D01*
X222774557Y-83560519D01*
X222840740Y-83554000D01*
X222929260Y-83554000D01*
X222995443Y-83560519D01*
X222995443Y-83560519D01*
G37*
G36*
X222995442Y-81020518D02*
G01*
X223061627Y-81027037D01*
X223231466Y-81078557D01*
X223387991Y-81162222D01*
X223423729Y-81191552D01*
X223525186Y-81274814D01*
X223608448Y-81376271D01*
X223637778Y-81412009D01*
X223721443Y-81568534D01*
X223772963Y-81738373D01*
X223790359Y-81915000D01*
X223772963Y-82091627D01*
X223721443Y-82261466D01*
X223637778Y-82417991D01*
X223608448Y-82453729D01*
X223525186Y-82555186D01*
X223423729Y-82638448D01*
X223387991Y-82667778D01*
X223231466Y-82751443D01*
X223061627Y-82802963D01*
X222995442Y-82809482D01*
X222929260Y-82816000D01*
X222840740Y-82816000D01*
X222774558Y-82809482D01*
X222708373Y-82802963D01*
X222538534Y-82751443D01*
X222382009Y-82667778D01*
X222346271Y-82638448D01*
X222244814Y-82555186D01*
X222161552Y-82453729D01*
X222132222Y-82417991D01*
X222048557Y-82261466D01*
X221997037Y-82091627D01*
X221979641Y-81915000D01*
X221997037Y-81738373D01*
X222048557Y-81568534D01*
X222132222Y-81412009D01*
X222161552Y-81376271D01*
X222244814Y-81274814D01*
X222346271Y-81191552D01*
X222382009Y-81162222D01*
X222538534Y-81078557D01*
X222708373Y-81027037D01*
X222774558Y-81020518D01*
X222840740Y-81014000D01*
X222929260Y-81014000D01*
X222995442Y-81020518D01*
X222995442Y-81020518D01*
G37*
G36*
X222995442Y-78480518D02*
G01*
X223061627Y-78487037D01*
X223231466Y-78538557D01*
X223387991Y-78622222D01*
X223423729Y-78651552D01*
X223525186Y-78734814D01*
X223608448Y-78836271D01*
X223637778Y-78872009D01*
X223721443Y-79028534D01*
X223772963Y-79198373D01*
X223790359Y-79375000D01*
X223772963Y-79551627D01*
X223721443Y-79721466D01*
X223637778Y-79877991D01*
X223608448Y-79913729D01*
X223525186Y-80015186D01*
X223423729Y-80098448D01*
X223387991Y-80127778D01*
X223231466Y-80211443D01*
X223061627Y-80262963D01*
X222995442Y-80269482D01*
X222929260Y-80276000D01*
X222840740Y-80276000D01*
X222774558Y-80269482D01*
X222708373Y-80262963D01*
X222538534Y-80211443D01*
X222382009Y-80127778D01*
X222346271Y-80098448D01*
X222244814Y-80015186D01*
X222161552Y-79913729D01*
X222132222Y-79877991D01*
X222048557Y-79721466D01*
X221997037Y-79551627D01*
X221979641Y-79375000D01*
X221997037Y-79198373D01*
X222048557Y-79028534D01*
X222132222Y-78872009D01*
X222161552Y-78836271D01*
X222244814Y-78734814D01*
X222346271Y-78651552D01*
X222382009Y-78622222D01*
X222538534Y-78538557D01*
X222708373Y-78487037D01*
X222774558Y-78480518D01*
X222840740Y-78474000D01*
X222929260Y-78474000D01*
X222995442Y-78480518D01*
X222995442Y-78480518D01*
G37*
G36*
X182411000Y-79241000D02*
G01*
X180809000Y-79241000D01*
X180809000Y-78239000D01*
X182411000Y-78239000D01*
X182411000Y-79241000D01*
X182411000Y-79241000D01*
G37*
G36*
X182008213Y-76976249D02*
G01*
X182102652Y-77004897D01*
X182189687Y-77051418D01*
X182265975Y-77114025D01*
X182328582Y-77190313D01*
X182375103Y-77277348D01*
X182403751Y-77371787D01*
X182413424Y-77470000D01*
X182403751Y-77568213D01*
X182375103Y-77662652D01*
X182328582Y-77749687D01*
X182265975Y-77825975D01*
X182189687Y-77888582D01*
X182102652Y-77935103D01*
X182008213Y-77963751D01*
X181934612Y-77971000D01*
X181285388Y-77971000D01*
X181211787Y-77963751D01*
X181117348Y-77935103D01*
X181030313Y-77888582D01*
X180954025Y-77825975D01*
X180891418Y-77749687D01*
X180844897Y-77662652D01*
X180816249Y-77568213D01*
X180806576Y-77470000D01*
X180816249Y-77371787D01*
X180844897Y-77277348D01*
X180891418Y-77190313D01*
X180954025Y-77114025D01*
X181030313Y-77051418D01*
X181117348Y-77004897D01*
X181211787Y-76976249D01*
X181285388Y-76969000D01*
X181934612Y-76969000D01*
X182008213Y-76976249D01*
X182008213Y-76976249D01*
G37*
G36*
X222995442Y-75940518D02*
G01*
X223061627Y-75947037D01*
X223231466Y-75998557D01*
X223231468Y-75998558D01*
X223309729Y-76040390D01*
X223387991Y-76082222D01*
X223411831Y-76101787D01*
X223525186Y-76194814D01*
X223608448Y-76296271D01*
X223637778Y-76332009D01*
X223721443Y-76488534D01*
X223772963Y-76658373D01*
X223790359Y-76835000D01*
X223772963Y-77011627D01*
X223721443Y-77181466D01*
X223637778Y-77337991D01*
X223608448Y-77373729D01*
X223525186Y-77475186D01*
X223423729Y-77558448D01*
X223387991Y-77587778D01*
X223387989Y-77587779D01*
X223247917Y-77662650D01*
X223231466Y-77671443D01*
X223061627Y-77722963D01*
X222995443Y-77729481D01*
X222929260Y-77736000D01*
X222840740Y-77736000D01*
X222774557Y-77729481D01*
X222708373Y-77722963D01*
X222538534Y-77671443D01*
X222522084Y-77662650D01*
X222382011Y-77587779D01*
X222382009Y-77587778D01*
X222346271Y-77558448D01*
X222244814Y-77475186D01*
X222161552Y-77373729D01*
X222132222Y-77337991D01*
X222048557Y-77181466D01*
X221997037Y-77011627D01*
X221979641Y-76835000D01*
X221997037Y-76658373D01*
X222048557Y-76488534D01*
X222132222Y-76332009D01*
X222161552Y-76296271D01*
X222244814Y-76194814D01*
X222358169Y-76101787D01*
X222382009Y-76082222D01*
X222460272Y-76040389D01*
X222538532Y-75998558D01*
X222538534Y-75998557D01*
X222708373Y-75947037D01*
X222774558Y-75940518D01*
X222840740Y-75934000D01*
X222929260Y-75934000D01*
X222995442Y-75940518D01*
X222995442Y-75940518D01*
G37*
G36*
X182008213Y-75706249D02*
G01*
X182102652Y-75734897D01*
X182189687Y-75781418D01*
X182265975Y-75844025D01*
X182328582Y-75920313D01*
X182375103Y-76007348D01*
X182403751Y-76101787D01*
X182413424Y-76200000D01*
X182403751Y-76298213D01*
X182375103Y-76392652D01*
X182328582Y-76479687D01*
X182265975Y-76555975D01*
X182189687Y-76618582D01*
X182102652Y-76665103D01*
X182008213Y-76693751D01*
X181934612Y-76701000D01*
X181285388Y-76701000D01*
X181211787Y-76693751D01*
X181117348Y-76665103D01*
X181030313Y-76618582D01*
X180954025Y-76555975D01*
X180891418Y-76479687D01*
X180844897Y-76392652D01*
X180816249Y-76298213D01*
X180806576Y-76200000D01*
X180816249Y-76101787D01*
X180844897Y-76007348D01*
X180891418Y-75920313D01*
X180954025Y-75844025D01*
X181030313Y-75781418D01*
X181117348Y-75734897D01*
X181211787Y-75706249D01*
X181285388Y-75699000D01*
X181934612Y-75699000D01*
X182008213Y-75706249D01*
X182008213Y-75706249D01*
G37*
G36*
X180375256Y-66391298D02*
G01*
X180481579Y-66412447D01*
X180782042Y-66536903D01*
X181052451Y-66717585D01*
X181282415Y-66947549D01*
X181463097Y-67217958D01*
X181587553Y-67518421D01*
X181651000Y-67837391D01*
X181651000Y-68162609D01*
X181587553Y-68481579D01*
X181463097Y-68782042D01*
X181282415Y-69052451D01*
X181052451Y-69282415D01*
X180782042Y-69463097D01*
X180481579Y-69587553D01*
X180375256Y-69608702D01*
X180162611Y-69651000D01*
X179837389Y-69651000D01*
X179624744Y-69608702D01*
X179518421Y-69587553D01*
X179217958Y-69463097D01*
X178947549Y-69282415D01*
X178717585Y-69052451D01*
X178536903Y-68782042D01*
X178412447Y-68481579D01*
X178349000Y-68162609D01*
X178349000Y-67837391D01*
X178412447Y-67518421D01*
X178536903Y-67217958D01*
X178717585Y-66947549D01*
X178947549Y-66717585D01*
X179217958Y-66536903D01*
X179518421Y-66412447D01*
X179624744Y-66391298D01*
X179837389Y-66349000D01*
X180162611Y-66349000D01*
X180375256Y-66391298D01*
X180375256Y-66391298D01*
G37*
G36*
X223375256Y-66391298D02*
G01*
X223481579Y-66412447D01*
X223782042Y-66536903D01*
X224052451Y-66717585D01*
X224282415Y-66947549D01*
X224463097Y-67217958D01*
X224587553Y-67518421D01*
X224651000Y-67837391D01*
X224651000Y-68162609D01*
X224587553Y-68481579D01*
X224463097Y-68782042D01*
X224282415Y-69052451D01*
X224052451Y-69282415D01*
X223782042Y-69463097D01*
X223481579Y-69587553D01*
X223375256Y-69608702D01*
X223162611Y-69651000D01*
X222837389Y-69651000D01*
X222624744Y-69608702D01*
X222518421Y-69587553D01*
X222217958Y-69463097D01*
X221947549Y-69282415D01*
X221717585Y-69052451D01*
X221536903Y-68782042D01*
X221412447Y-68481579D01*
X221349000Y-68162609D01*
X221349000Y-67837391D01*
X221412447Y-67518421D01*
X221536903Y-67217958D01*
X221717585Y-66947549D01*
X221947549Y-66717585D01*
X222217958Y-66536903D01*
X222518421Y-66412447D01*
X222624744Y-66391298D01*
X222837389Y-66349000D01*
X223162611Y-66349000D01*
X223375256Y-66391298D01*
X223375256Y-66391298D01*
G37*
M02*
