G04 #@! TF.GenerationSoftware,KiCad,Pcbnew,(5.1.0)-1*
G04 #@! TF.CreationDate,2019-04-01T15:13:33+02:00*
G04 #@! TF.ProjectId,WiFi switch,57694669-2073-4776-9974-63682e6b6963,rev?*
G04 #@! TF.SameCoordinates,Original*
G04 #@! TF.FileFunction,Soldermask,Top*
G04 #@! TF.FilePolarity,Negative*
%FSLAX46Y46*%
G04 Gerber Fmt 4.6, Leading zero omitted, Abs format (unit mm)*
G04 Created by KiCad (PCBNEW (5.1.0)-1) date 2019-04-01 15:13:33*
%MOMM*%
%LPD*%
G04 APERTURE LIST*
%ADD10C,0.100000*%
G04 APERTURE END LIST*
D10*
G36*
X223375256Y-130391298D02*
G01*
X223481579Y-130412447D01*
X223782042Y-130536903D01*
X224052451Y-130717585D01*
X224282415Y-130947549D01*
X224463097Y-131217958D01*
X224587553Y-131518421D01*
X224651000Y-131837391D01*
X224651000Y-132162609D01*
X224587553Y-132481579D01*
X224463097Y-132782042D01*
X224282415Y-133052451D01*
X224052451Y-133282415D01*
X223782042Y-133463097D01*
X223481579Y-133587553D01*
X223375256Y-133608702D01*
X223162611Y-133651000D01*
X222837389Y-133651000D01*
X222624744Y-133608702D01*
X222518421Y-133587553D01*
X222217958Y-133463097D01*
X221947549Y-133282415D01*
X221717585Y-133052451D01*
X221536903Y-132782042D01*
X221412447Y-132481579D01*
X221349000Y-132162609D01*
X221349000Y-131837391D01*
X221412447Y-131518421D01*
X221536903Y-131217958D01*
X221717585Y-130947549D01*
X221947549Y-130717585D01*
X222217958Y-130536903D01*
X222518421Y-130412447D01*
X222624744Y-130391298D01*
X222837389Y-130349000D01*
X223162611Y-130349000D01*
X223375256Y-130391298D01*
X223375256Y-130391298D01*
G37*
G36*
X180375256Y-130391298D02*
G01*
X180481579Y-130412447D01*
X180782042Y-130536903D01*
X181052451Y-130717585D01*
X181282415Y-130947549D01*
X181463097Y-131217958D01*
X181587553Y-131518421D01*
X181651000Y-131837391D01*
X181651000Y-132162609D01*
X181587553Y-132481579D01*
X181463097Y-132782042D01*
X181282415Y-133052451D01*
X181052451Y-133282415D01*
X180782042Y-133463097D01*
X180481579Y-133587553D01*
X180375256Y-133608702D01*
X180162611Y-133651000D01*
X179837389Y-133651000D01*
X179624744Y-133608702D01*
X179518421Y-133587553D01*
X179217958Y-133463097D01*
X178947549Y-133282415D01*
X178717585Y-133052451D01*
X178536903Y-132782042D01*
X178412447Y-132481579D01*
X178349000Y-132162609D01*
X178349000Y-131837391D01*
X178412447Y-131518421D01*
X178536903Y-131217958D01*
X178717585Y-130947549D01*
X178947549Y-130717585D01*
X179217958Y-130536903D01*
X179518421Y-130412447D01*
X179624744Y-130391298D01*
X179837389Y-130349000D01*
X180162611Y-130349000D01*
X180375256Y-130391298D01*
X180375256Y-130391298D01*
G37*
G36*
X211101000Y-131726000D02*
G01*
X207999000Y-131726000D01*
X207999000Y-128624000D01*
X211101000Y-128624000D01*
X211101000Y-131726000D01*
X211101000Y-131726000D01*
G37*
G36*
X190781000Y-131726000D02*
G01*
X187679000Y-131726000D01*
X187679000Y-128624000D01*
X190781000Y-128624000D01*
X190781000Y-131726000D01*
X190781000Y-131726000D01*
G37*
G36*
X194612585Y-128653802D02*
G01*
X194762410Y-128683604D01*
X195044674Y-128800521D01*
X195298705Y-128970259D01*
X195514741Y-129186295D01*
X195684479Y-129440326D01*
X195801396Y-129722590D01*
X195861000Y-130022240D01*
X195861000Y-130327760D01*
X195801396Y-130627410D01*
X195684479Y-130909674D01*
X195514741Y-131163705D01*
X195298705Y-131379741D01*
X195044674Y-131549479D01*
X194762410Y-131666396D01*
X194612585Y-131696198D01*
X194462761Y-131726000D01*
X194157239Y-131726000D01*
X194007415Y-131696198D01*
X193857590Y-131666396D01*
X193575326Y-131549479D01*
X193321295Y-131379741D01*
X193105259Y-131163705D01*
X192935521Y-130909674D01*
X192818604Y-130627410D01*
X192759000Y-130327760D01*
X192759000Y-130022240D01*
X192818604Y-129722590D01*
X192935521Y-129440326D01*
X193105259Y-129186295D01*
X193321295Y-128970259D01*
X193575326Y-128800521D01*
X193857590Y-128683604D01*
X194007415Y-128653802D01*
X194157239Y-128624000D01*
X194462761Y-128624000D01*
X194612585Y-128653802D01*
X194612585Y-128653802D01*
G37*
G36*
X214932585Y-128653802D02*
G01*
X215082410Y-128683604D01*
X215364674Y-128800521D01*
X215618705Y-128970259D01*
X215834741Y-129186295D01*
X216004479Y-129440326D01*
X216121396Y-129722590D01*
X216181000Y-130022240D01*
X216181000Y-130327760D01*
X216121396Y-130627410D01*
X216004479Y-130909674D01*
X215834741Y-131163705D01*
X215618705Y-131379741D01*
X215364674Y-131549479D01*
X215082410Y-131666396D01*
X214932585Y-131696198D01*
X214782761Y-131726000D01*
X214477239Y-131726000D01*
X214327415Y-131696198D01*
X214177590Y-131666396D01*
X213895326Y-131549479D01*
X213641295Y-131379741D01*
X213425259Y-131163705D01*
X213255521Y-130909674D01*
X213138604Y-130627410D01*
X213079000Y-130327760D01*
X213079000Y-130022240D01*
X213138604Y-129722590D01*
X213255521Y-129440326D01*
X213425259Y-129186295D01*
X213641295Y-128970259D01*
X213895326Y-128800521D01*
X214177590Y-128683604D01*
X214327415Y-128653802D01*
X214477239Y-128624000D01*
X214782761Y-128624000D01*
X214932585Y-128653802D01*
X214932585Y-128653802D01*
G37*
G36*
X199627142Y-128123242D02*
G01*
X199775101Y-128184529D01*
X199908255Y-128273499D01*
X200021501Y-128386745D01*
X200110471Y-128519899D01*
X200171758Y-128667858D01*
X200203000Y-128824925D01*
X200203000Y-128985075D01*
X200171758Y-129142142D01*
X200110471Y-129290101D01*
X200021501Y-129423255D01*
X199908255Y-129536501D01*
X199775101Y-129625471D01*
X199627142Y-129686758D01*
X199470075Y-129718000D01*
X199309925Y-129718000D01*
X199152858Y-129686758D01*
X199004899Y-129625471D01*
X198871745Y-129536501D01*
X198758499Y-129423255D01*
X198669529Y-129290101D01*
X198608242Y-129142142D01*
X198577000Y-128985075D01*
X198577000Y-128824925D01*
X198608242Y-128667858D01*
X198669529Y-128519899D01*
X198758499Y-128386745D01*
X198871745Y-128273499D01*
X199004899Y-128184529D01*
X199152858Y-128123242D01*
X199309925Y-128092000D01*
X199470075Y-128092000D01*
X199627142Y-128123242D01*
X199627142Y-128123242D01*
G37*
G36*
X204707142Y-128123242D02*
G01*
X204855101Y-128184529D01*
X204988255Y-128273499D01*
X205101501Y-128386745D01*
X205190471Y-128519899D01*
X205251758Y-128667858D01*
X205283000Y-128824925D01*
X205283000Y-128985075D01*
X205251758Y-129142142D01*
X205190471Y-129290101D01*
X205101501Y-129423255D01*
X204988255Y-129536501D01*
X204855101Y-129625471D01*
X204707142Y-129686758D01*
X204550075Y-129718000D01*
X204389925Y-129718000D01*
X204232858Y-129686758D01*
X204084899Y-129625471D01*
X203951745Y-129536501D01*
X203838499Y-129423255D01*
X203749529Y-129290101D01*
X203688242Y-129142142D01*
X203657000Y-128985075D01*
X203657000Y-128824925D01*
X203688242Y-128667858D01*
X203749529Y-128519899D01*
X203838499Y-128386745D01*
X203951745Y-128273499D01*
X204084899Y-128184529D01*
X204232858Y-128123242D01*
X204389925Y-128092000D01*
X204550075Y-128092000D01*
X204707142Y-128123242D01*
X204707142Y-128123242D01*
G37*
G36*
X182026000Y-124391000D02*
G01*
X179924000Y-124391000D01*
X179924000Y-121989000D01*
X182026000Y-121989000D01*
X182026000Y-124391000D01*
X182026000Y-124391000D01*
G37*
G36*
X196525318Y-122035153D02*
G01*
X196743885Y-122125687D01*
X196743887Y-122125688D01*
X196940593Y-122257122D01*
X197107878Y-122424407D01*
X197239312Y-122621113D01*
X197239313Y-122621115D01*
X197329847Y-122839682D01*
X197376000Y-123071710D01*
X197376000Y-123308290D01*
X197329847Y-123540318D01*
X197239313Y-123758885D01*
X197239312Y-123758887D01*
X197107878Y-123955593D01*
X196940593Y-124122878D01*
X196743887Y-124254312D01*
X196743886Y-124254313D01*
X196743885Y-124254313D01*
X196525318Y-124344847D01*
X196293290Y-124391000D01*
X196056710Y-124391000D01*
X195824682Y-124344847D01*
X195606115Y-124254313D01*
X195606114Y-124254313D01*
X195606113Y-124254312D01*
X195409407Y-124122878D01*
X195242122Y-123955593D01*
X195110688Y-123758887D01*
X195110687Y-123758885D01*
X195020153Y-123540318D01*
X194974000Y-123308290D01*
X194974000Y-123071710D01*
X195020153Y-122839682D01*
X195110687Y-122621115D01*
X195110688Y-122621113D01*
X195242122Y-122424407D01*
X195409407Y-122257122D01*
X195606113Y-122125688D01*
X195606115Y-122125687D01*
X195824682Y-122035153D01*
X196056710Y-121989000D01*
X196293290Y-121989000D01*
X196525318Y-122035153D01*
X196525318Y-122035153D01*
G37*
G36*
X208159472Y-118908412D02*
G01*
X208255040Y-118917825D01*
X208500280Y-118992218D01*
X208726294Y-119113025D01*
X208777899Y-119155376D01*
X208924397Y-119275603D01*
X209044624Y-119422101D01*
X209086975Y-119473706D01*
X209207782Y-119699720D01*
X209282175Y-119944960D01*
X209307294Y-120200000D01*
X209282175Y-120455040D01*
X209207782Y-120700280D01*
X209086975Y-120926294D01*
X209044624Y-120977899D01*
X208924397Y-121124397D01*
X208777899Y-121244624D01*
X208726294Y-121286975D01*
X208500280Y-121407782D01*
X208255040Y-121482175D01*
X208159472Y-121491588D01*
X208063906Y-121501000D01*
X207936094Y-121501000D01*
X207840528Y-121491588D01*
X207744960Y-121482175D01*
X207499720Y-121407782D01*
X207273706Y-121286975D01*
X207222101Y-121244624D01*
X207075603Y-121124397D01*
X206955376Y-120977899D01*
X206913025Y-120926294D01*
X206792218Y-120700280D01*
X206717825Y-120455040D01*
X206692706Y-120200000D01*
X206717825Y-119944960D01*
X206792218Y-119699720D01*
X206913025Y-119473706D01*
X206955376Y-119422101D01*
X207075603Y-119275603D01*
X207222101Y-119155376D01*
X207273706Y-119113025D01*
X207499720Y-118992218D01*
X207744960Y-118917825D01*
X207840528Y-118908412D01*
X207936094Y-118899000D01*
X208063906Y-118899000D01*
X208159472Y-118908412D01*
X208159472Y-118908412D01*
G37*
G36*
X220159472Y-118908412D02*
G01*
X220255040Y-118917825D01*
X220500280Y-118992218D01*
X220726294Y-119113025D01*
X220777899Y-119155376D01*
X220924397Y-119275603D01*
X221044624Y-119422101D01*
X221086975Y-119473706D01*
X221207782Y-119699720D01*
X221282175Y-119944960D01*
X221307294Y-120200000D01*
X221282175Y-120455040D01*
X221207782Y-120700280D01*
X221086975Y-120926294D01*
X221044624Y-120977899D01*
X220924397Y-121124397D01*
X220777899Y-121244624D01*
X220726294Y-121286975D01*
X220500280Y-121407782D01*
X220255040Y-121482175D01*
X220159472Y-121491588D01*
X220063906Y-121501000D01*
X219936094Y-121501000D01*
X219840528Y-121491588D01*
X219744960Y-121482175D01*
X219499720Y-121407782D01*
X219273706Y-121286975D01*
X219222101Y-121244624D01*
X219075603Y-121124397D01*
X218955376Y-120977899D01*
X218913025Y-120926294D01*
X218792218Y-120700280D01*
X218717825Y-120455040D01*
X218692706Y-120200000D01*
X218717825Y-119944960D01*
X218792218Y-119699720D01*
X218913025Y-119473706D01*
X218955376Y-119422101D01*
X219075603Y-119275603D01*
X219222101Y-119155376D01*
X219273706Y-119113025D01*
X219499720Y-118992218D01*
X219744960Y-118917825D01*
X219840528Y-118908412D01*
X219936094Y-118899000D01*
X220063906Y-118899000D01*
X220159472Y-118908412D01*
X220159472Y-118908412D01*
G37*
G36*
X202871564Y-118369389D02*
G01*
X203062833Y-118448615D01*
X203062835Y-118448616D01*
X203234973Y-118563635D01*
X203381365Y-118710027D01*
X203496385Y-118882167D01*
X203575611Y-119073436D01*
X203616000Y-119276484D01*
X203616000Y-119483516D01*
X203575611Y-119686564D01*
X203496385Y-119877833D01*
X203496384Y-119877835D01*
X203381365Y-120049973D01*
X203234973Y-120196365D01*
X203062835Y-120311384D01*
X203062834Y-120311385D01*
X203062833Y-120311385D01*
X202871564Y-120390611D01*
X202668516Y-120431000D01*
X202461484Y-120431000D01*
X202258436Y-120390611D01*
X202067167Y-120311385D01*
X202067166Y-120311385D01*
X202067165Y-120311384D01*
X201895027Y-120196365D01*
X201748635Y-120049973D01*
X201633616Y-119877835D01*
X201633615Y-119877833D01*
X201554389Y-119686564D01*
X201514000Y-119483516D01*
X201514000Y-119276484D01*
X201554389Y-119073436D01*
X201633615Y-118882167D01*
X201748635Y-118710027D01*
X201895027Y-118563635D01*
X202067165Y-118448616D01*
X202067167Y-118448615D01*
X202258436Y-118369389D01*
X202461484Y-118329000D01*
X202668516Y-118329000D01*
X202871564Y-118369389D01*
X202871564Y-118369389D01*
G37*
G36*
X202881564Y-113289389D02*
G01*
X203072833Y-113368615D01*
X203072835Y-113368616D01*
X203244973Y-113483635D01*
X203391365Y-113630027D01*
X203506385Y-113802167D01*
X203585611Y-113993436D01*
X203626000Y-114196484D01*
X203626000Y-114403516D01*
X203585611Y-114606564D01*
X203506385Y-114797833D01*
X203506384Y-114797835D01*
X203391365Y-114969973D01*
X203244973Y-115116365D01*
X203072835Y-115231384D01*
X203072834Y-115231385D01*
X203072833Y-115231385D01*
X202881564Y-115310611D01*
X202678516Y-115351000D01*
X202471484Y-115351000D01*
X202268436Y-115310611D01*
X202077167Y-115231385D01*
X202077166Y-115231385D01*
X202077165Y-115231384D01*
X201905027Y-115116365D01*
X201758635Y-114969973D01*
X201643616Y-114797835D01*
X201643615Y-114797833D01*
X201564389Y-114606564D01*
X201524000Y-114403516D01*
X201524000Y-114196484D01*
X201564389Y-113993436D01*
X201643615Y-113802167D01*
X201758635Y-113630027D01*
X201905027Y-113483635D01*
X202077165Y-113368616D01*
X202077167Y-113368615D01*
X202268436Y-113289389D01*
X202471484Y-113249000D01*
X202678516Y-113249000D01*
X202881564Y-113289389D01*
X202881564Y-113289389D01*
G37*
G36*
X203516000Y-110076000D02*
G01*
X201614000Y-110076000D01*
X201614000Y-107474000D01*
X203516000Y-107474000D01*
X203516000Y-110076000D01*
X203516000Y-110076000D01*
G37*
G36*
X220159473Y-106708413D02*
G01*
X220255040Y-106717825D01*
X220500280Y-106792218D01*
X220726294Y-106913025D01*
X220777899Y-106955376D01*
X220924397Y-107075603D01*
X221044624Y-107222101D01*
X221086975Y-107273706D01*
X221207782Y-107499720D01*
X221282175Y-107744960D01*
X221307294Y-108000000D01*
X221282175Y-108255040D01*
X221207782Y-108500280D01*
X221086975Y-108726294D01*
X221044624Y-108777899D01*
X220924397Y-108924397D01*
X220777899Y-109044624D01*
X220726294Y-109086975D01*
X220500280Y-109207782D01*
X220255040Y-109282175D01*
X220159472Y-109291588D01*
X220063906Y-109301000D01*
X219936094Y-109301000D01*
X219840528Y-109291588D01*
X219744960Y-109282175D01*
X219499720Y-109207782D01*
X219273706Y-109086975D01*
X219222101Y-109044624D01*
X219075603Y-108924397D01*
X218955376Y-108777899D01*
X218913025Y-108726294D01*
X218792218Y-108500280D01*
X218717825Y-108255040D01*
X218692706Y-108000000D01*
X218717825Y-107744960D01*
X218792218Y-107499720D01*
X218913025Y-107273706D01*
X218955376Y-107222101D01*
X219075603Y-107075603D01*
X219222101Y-106955376D01*
X219273706Y-106913025D01*
X219499720Y-106792218D01*
X219744960Y-106717825D01*
X219840527Y-106708413D01*
X219936094Y-106699000D01*
X220063906Y-106699000D01*
X220159473Y-106708413D01*
X220159473Y-106708413D01*
G37*
G36*
X208159473Y-106708413D02*
G01*
X208255040Y-106717825D01*
X208500280Y-106792218D01*
X208726294Y-106913025D01*
X208777899Y-106955376D01*
X208924397Y-107075603D01*
X209044624Y-107222101D01*
X209086975Y-107273706D01*
X209207782Y-107499720D01*
X209282175Y-107744960D01*
X209307294Y-108000000D01*
X209282175Y-108255040D01*
X209207782Y-108500280D01*
X209086975Y-108726294D01*
X209044624Y-108777899D01*
X208924397Y-108924397D01*
X208777899Y-109044624D01*
X208726294Y-109086975D01*
X208500280Y-109207782D01*
X208255040Y-109282175D01*
X208159472Y-109291588D01*
X208063906Y-109301000D01*
X207936094Y-109301000D01*
X207840528Y-109291588D01*
X207744960Y-109282175D01*
X207499720Y-109207782D01*
X207273706Y-109086975D01*
X207222101Y-109044624D01*
X207075603Y-108924397D01*
X206955376Y-108777899D01*
X206913025Y-108726294D01*
X206792218Y-108500280D01*
X206717825Y-108255040D01*
X206692706Y-108000000D01*
X206717825Y-107744960D01*
X206792218Y-107499720D01*
X206913025Y-107273706D01*
X206955376Y-107222101D01*
X207075603Y-107075603D01*
X207222101Y-106955376D01*
X207273706Y-106913025D01*
X207499720Y-106792218D01*
X207744960Y-106717825D01*
X207840527Y-106708413D01*
X207936094Y-106699000D01*
X208063906Y-106699000D01*
X208159473Y-106708413D01*
X208159473Y-106708413D01*
G37*
G36*
X215301000Y-107301000D02*
G01*
X212699000Y-107301000D01*
X212699000Y-104699000D01*
X215301000Y-104699000D01*
X215301000Y-107301000D01*
X215301000Y-107301000D01*
G37*
G36*
X203516000Y-106076000D02*
G01*
X201614000Y-106076000D01*
X201614000Y-103474000D01*
X203516000Y-103474000D01*
X203516000Y-106076000D01*
X203516000Y-106076000D01*
G37*
G36*
X209591000Y-102881000D02*
G01*
X208239000Y-102881000D01*
X208239000Y-101779000D01*
X209591000Y-101779000D01*
X209591000Y-102881000D01*
X209591000Y-102881000D01*
G37*
G36*
X202381000Y-102736000D02*
G01*
X201479000Y-102736000D01*
X201479000Y-101734000D01*
X202381000Y-101734000D01*
X202381000Y-102736000D01*
X202381000Y-102736000D01*
G37*
G36*
X205806000Y-102631000D02*
G01*
X204404000Y-102631000D01*
X204404000Y-101829000D01*
X205806000Y-101829000D01*
X205806000Y-102631000D01*
X205806000Y-102631000D01*
G37*
G36*
X207711000Y-102631000D02*
G01*
X206309000Y-102631000D01*
X206309000Y-101829000D01*
X207711000Y-101829000D01*
X207711000Y-102631000D01*
X207711000Y-102631000D01*
G37*
G36*
X209591000Y-100881000D02*
G01*
X208239000Y-100881000D01*
X208239000Y-99779000D01*
X209591000Y-99779000D01*
X209591000Y-100881000D01*
X209591000Y-100881000D01*
G37*
G36*
X203331000Y-100736000D02*
G01*
X202429000Y-100736000D01*
X202429000Y-99734000D01*
X203331000Y-99734000D01*
X203331000Y-100736000D01*
X203331000Y-100736000D01*
G37*
G36*
X201431000Y-100736000D02*
G01*
X200529000Y-100736000D01*
X200529000Y-99734000D01*
X201431000Y-99734000D01*
X201431000Y-100736000D01*
X201431000Y-100736000D01*
G37*
G36*
X205806000Y-100731000D02*
G01*
X204404000Y-100731000D01*
X204404000Y-99929000D01*
X205806000Y-99929000D01*
X205806000Y-100731000D01*
X205806000Y-100731000D01*
G37*
G36*
X207711000Y-100731000D02*
G01*
X206309000Y-100731000D01*
X206309000Y-99929000D01*
X207711000Y-99929000D01*
X207711000Y-100731000D01*
X207711000Y-100731000D01*
G37*
G36*
X205411000Y-99071000D02*
G01*
X204309000Y-99071000D01*
X204309000Y-96469000D01*
X205411000Y-96469000D01*
X205411000Y-99071000D01*
X205411000Y-99071000D01*
G37*
G36*
X203411000Y-99071000D02*
G01*
X202309000Y-99071000D01*
X202309000Y-96469000D01*
X203411000Y-96469000D01*
X203411000Y-99071000D01*
X203411000Y-99071000D01*
G37*
G36*
X211411000Y-99071000D02*
G01*
X210309000Y-99071000D01*
X210309000Y-96469000D01*
X211411000Y-96469000D01*
X211411000Y-99071000D01*
X211411000Y-99071000D01*
G37*
G36*
X207411000Y-99071000D02*
G01*
X206309000Y-99071000D01*
X206309000Y-96469000D01*
X207411000Y-96469000D01*
X207411000Y-99071000D01*
X207411000Y-99071000D01*
G37*
G36*
X213411000Y-99071000D02*
G01*
X212309000Y-99071000D01*
X212309000Y-96469000D01*
X213411000Y-96469000D01*
X213411000Y-99071000D01*
X213411000Y-99071000D01*
G37*
G36*
X215411000Y-99071000D02*
G01*
X214309000Y-99071000D01*
X214309000Y-96469000D01*
X215411000Y-96469000D01*
X215411000Y-99071000D01*
X215411000Y-99071000D01*
G37*
G36*
X209411000Y-99071000D02*
G01*
X208309000Y-99071000D01*
X208309000Y-96469000D01*
X209411000Y-96469000D01*
X209411000Y-99071000D01*
X209411000Y-99071000D01*
G37*
G36*
X217411000Y-99071000D02*
G01*
X216309000Y-99071000D01*
X216309000Y-96469000D01*
X217411000Y-96469000D01*
X217411000Y-99071000D01*
X217411000Y-99071000D01*
G37*
G36*
X181325318Y-94035153D02*
G01*
X181543885Y-94125687D01*
X181543887Y-94125688D01*
X181740593Y-94257122D01*
X181907878Y-94424407D01*
X182037900Y-94619000D01*
X182039313Y-94621115D01*
X182129847Y-94839682D01*
X182176000Y-95071710D01*
X182176000Y-95308290D01*
X182129847Y-95540318D01*
X182039313Y-95758885D01*
X182039312Y-95758887D01*
X181907878Y-95955593D01*
X181740593Y-96122878D01*
X181543887Y-96254312D01*
X181543886Y-96254313D01*
X181543885Y-96254313D01*
X181325318Y-96344847D01*
X181093290Y-96391000D01*
X180856710Y-96391000D01*
X180624682Y-96344847D01*
X180406115Y-96254313D01*
X180406114Y-96254313D01*
X180406113Y-96254312D01*
X180209407Y-96122878D01*
X180042122Y-95955593D01*
X179910688Y-95758887D01*
X179910687Y-95758885D01*
X179820153Y-95540318D01*
X179774000Y-95308290D01*
X179774000Y-95071710D01*
X179820153Y-94839682D01*
X179910687Y-94621115D01*
X179912100Y-94619000D01*
X180042122Y-94424407D01*
X180209407Y-94257122D01*
X180406113Y-94125688D01*
X180406115Y-94125687D01*
X180624682Y-94035153D01*
X180856710Y-93989000D01*
X181093290Y-93989000D01*
X181325318Y-94035153D01*
X181325318Y-94035153D01*
G37*
G36*
X188925318Y-94035153D02*
G01*
X189143885Y-94125687D01*
X189143887Y-94125688D01*
X189340593Y-94257122D01*
X189507878Y-94424407D01*
X189637900Y-94619000D01*
X189639313Y-94621115D01*
X189729847Y-94839682D01*
X189776000Y-95071710D01*
X189776000Y-95308290D01*
X189729847Y-95540318D01*
X189639313Y-95758885D01*
X189639312Y-95758887D01*
X189507878Y-95955593D01*
X189340593Y-96122878D01*
X189143887Y-96254312D01*
X189143886Y-96254313D01*
X189143885Y-96254313D01*
X188925318Y-96344847D01*
X188693290Y-96391000D01*
X188456710Y-96391000D01*
X188224682Y-96344847D01*
X188006115Y-96254313D01*
X188006114Y-96254313D01*
X188006113Y-96254312D01*
X187809407Y-96122878D01*
X187642122Y-95955593D01*
X187510688Y-95758887D01*
X187510687Y-95758885D01*
X187420153Y-95540318D01*
X187374000Y-95308290D01*
X187374000Y-95071710D01*
X187420153Y-94839682D01*
X187510687Y-94621115D01*
X187512100Y-94619000D01*
X187642122Y-94424407D01*
X187809407Y-94257122D01*
X188006113Y-94125688D01*
X188006115Y-94125687D01*
X188224682Y-94035153D01*
X188456710Y-93989000D01*
X188693290Y-93989000D01*
X188925318Y-94035153D01*
X188925318Y-94035153D01*
G37*
G36*
X202311000Y-95721000D02*
G01*
X200409000Y-95721000D01*
X200409000Y-94619000D01*
X202311000Y-94619000D01*
X202311000Y-95721000D01*
X202311000Y-95721000D01*
G37*
G36*
X202311000Y-93721000D02*
G01*
X200409000Y-93721000D01*
X200409000Y-92619000D01*
X202311000Y-92619000D01*
X202311000Y-93721000D01*
X202311000Y-93721000D01*
G37*
G36*
X202311000Y-91721000D02*
G01*
X200409000Y-91721000D01*
X200409000Y-90619000D01*
X202311000Y-90619000D01*
X202311000Y-91721000D01*
X202311000Y-91721000D01*
G37*
G36*
X187221000Y-90291000D02*
G01*
X185569000Y-90291000D01*
X185569000Y-88889000D01*
X187221000Y-88889000D01*
X187221000Y-90291000D01*
X187221000Y-90291000D01*
G37*
G36*
X179261000Y-90291000D02*
G01*
X177609000Y-90291000D01*
X177609000Y-88889000D01*
X179261000Y-88889000D01*
X179261000Y-90291000D01*
X179261000Y-90291000D01*
G37*
G36*
X198016000Y-90291000D02*
G01*
X196364000Y-90291000D01*
X196364000Y-88889000D01*
X198016000Y-88889000D01*
X198016000Y-90291000D01*
X198016000Y-90291000D01*
G37*
G36*
X190056000Y-90291000D02*
G01*
X188404000Y-90291000D01*
X188404000Y-88889000D01*
X190056000Y-88889000D01*
X190056000Y-90291000D01*
X190056000Y-90291000D01*
G37*
G36*
X202311000Y-89721000D02*
G01*
X200409000Y-89721000D01*
X200409000Y-88619000D01*
X202311000Y-88619000D01*
X202311000Y-89721000D01*
X202311000Y-89721000D01*
G37*
G36*
X202311000Y-87721000D02*
G01*
X200409000Y-87721000D01*
X200409000Y-86619000D01*
X202311000Y-86619000D01*
X202311000Y-87721000D01*
X202311000Y-87721000D01*
G37*
G36*
X190056000Y-85791000D02*
G01*
X188404000Y-85791000D01*
X188404000Y-84389000D01*
X190056000Y-84389000D01*
X190056000Y-85791000D01*
X190056000Y-85791000D01*
G37*
G36*
X187221000Y-85791000D02*
G01*
X185569000Y-85791000D01*
X185569000Y-84389000D01*
X187221000Y-84389000D01*
X187221000Y-85791000D01*
X187221000Y-85791000D01*
G37*
G36*
X179261000Y-85791000D02*
G01*
X177609000Y-85791000D01*
X177609000Y-84389000D01*
X179261000Y-84389000D01*
X179261000Y-85791000D01*
X179261000Y-85791000D01*
G37*
G36*
X198016000Y-85791000D02*
G01*
X196364000Y-85791000D01*
X196364000Y-84389000D01*
X198016000Y-84389000D01*
X198016000Y-85791000D01*
X198016000Y-85791000D01*
G37*
G36*
X202311000Y-85721000D02*
G01*
X200409000Y-85721000D01*
X200409000Y-84619000D01*
X202311000Y-84619000D01*
X202311000Y-85721000D01*
X202311000Y-85721000D01*
G37*
G36*
X217411000Y-83871000D02*
G01*
X216309000Y-83871000D01*
X216309000Y-81269000D01*
X217411000Y-81269000D01*
X217411000Y-83871000D01*
X217411000Y-83871000D01*
G37*
G36*
X215411000Y-83871000D02*
G01*
X214309000Y-83871000D01*
X214309000Y-81269000D01*
X215411000Y-81269000D01*
X215411000Y-83871000D01*
X215411000Y-83871000D01*
G37*
G36*
X213411000Y-83871000D02*
G01*
X212309000Y-83871000D01*
X212309000Y-81269000D01*
X213411000Y-81269000D01*
X213411000Y-83871000D01*
X213411000Y-83871000D01*
G37*
G36*
X211411000Y-83871000D02*
G01*
X210309000Y-83871000D01*
X210309000Y-81269000D01*
X211411000Y-81269000D01*
X211411000Y-83871000D01*
X211411000Y-83871000D01*
G37*
G36*
X209411000Y-83871000D02*
G01*
X208309000Y-83871000D01*
X208309000Y-81269000D01*
X209411000Y-81269000D01*
X209411000Y-83871000D01*
X209411000Y-83871000D01*
G37*
G36*
X207411000Y-83871000D02*
G01*
X206309000Y-83871000D01*
X206309000Y-81269000D01*
X207411000Y-81269000D01*
X207411000Y-83871000D01*
X207411000Y-83871000D01*
G37*
G36*
X205411000Y-83871000D02*
G01*
X204309000Y-83871000D01*
X204309000Y-81269000D01*
X205411000Y-81269000D01*
X205411000Y-83871000D01*
X205411000Y-83871000D01*
G37*
G36*
X203411000Y-83871000D02*
G01*
X202309000Y-83871000D01*
X202309000Y-81269000D01*
X203411000Y-81269000D01*
X203411000Y-83871000D01*
X203411000Y-83871000D01*
G37*
G36*
X178206000Y-83251000D02*
G01*
X177404000Y-83251000D01*
X177404000Y-81849000D01*
X178206000Y-81849000D01*
X178206000Y-83251000D01*
X178206000Y-83251000D01*
G37*
G36*
X180106000Y-83251000D02*
G01*
X179304000Y-83251000D01*
X179304000Y-81849000D01*
X180106000Y-81849000D01*
X180106000Y-83251000D01*
X180106000Y-83251000D01*
G37*
G36*
X182066000Y-83226000D02*
G01*
X180964000Y-83226000D01*
X180964000Y-81874000D01*
X182066000Y-81874000D01*
X182066000Y-83226000D01*
X182066000Y-83226000D01*
G37*
G36*
X184066000Y-83226000D02*
G01*
X182964000Y-83226000D01*
X182964000Y-81874000D01*
X184066000Y-81874000D01*
X184066000Y-83226000D01*
X184066000Y-83226000D01*
G37*
G36*
X186121000Y-82946000D02*
G01*
X184719000Y-82946000D01*
X184719000Y-82144000D01*
X186121000Y-82144000D01*
X186121000Y-82946000D01*
X186121000Y-82946000D01*
G37*
G36*
X188661000Y-82946000D02*
G01*
X187259000Y-82946000D01*
X187259000Y-82144000D01*
X188661000Y-82144000D01*
X188661000Y-82946000D01*
X188661000Y-82946000D01*
G37*
G36*
X191201000Y-82946000D02*
G01*
X189799000Y-82946000D01*
X189799000Y-82144000D01*
X191201000Y-82144000D01*
X191201000Y-82946000D01*
X191201000Y-82946000D01*
G37*
G36*
X191201000Y-81046000D02*
G01*
X189799000Y-81046000D01*
X189799000Y-80244000D01*
X191201000Y-80244000D01*
X191201000Y-81046000D01*
X191201000Y-81046000D01*
G37*
G36*
X188661000Y-81046000D02*
G01*
X187259000Y-81046000D01*
X187259000Y-80244000D01*
X188661000Y-80244000D01*
X188661000Y-81046000D01*
X188661000Y-81046000D01*
G37*
G36*
X186121000Y-81046000D02*
G01*
X184719000Y-81046000D01*
X184719000Y-80244000D01*
X186121000Y-80244000D01*
X186121000Y-81046000D01*
X186121000Y-81046000D01*
G37*
G36*
X199431000Y-79926000D02*
G01*
X198079000Y-79926000D01*
X198079000Y-78824000D01*
X199431000Y-78824000D01*
X199431000Y-79926000D01*
X199431000Y-79926000D01*
G37*
G36*
X201336000Y-79926000D02*
G01*
X199984000Y-79926000D01*
X199984000Y-78824000D01*
X201336000Y-78824000D01*
X201336000Y-79926000D01*
X201336000Y-79926000D01*
G37*
G36*
X206441000Y-79776000D02*
G01*
X205039000Y-79776000D01*
X205039000Y-78974000D01*
X206441000Y-78974000D01*
X206441000Y-79776000D01*
X206441000Y-79776000D01*
G37*
G36*
X208346000Y-79776000D02*
G01*
X206944000Y-79776000D01*
X206944000Y-78974000D01*
X208346000Y-78974000D01*
X208346000Y-79776000D01*
X208346000Y-79776000D01*
G37*
G36*
X204536000Y-79776000D02*
G01*
X203134000Y-79776000D01*
X203134000Y-78974000D01*
X204536000Y-78974000D01*
X204536000Y-79776000D01*
X204536000Y-79776000D01*
G37*
G36*
X180375256Y-76391298D02*
G01*
X180481579Y-76412447D01*
X180782042Y-76536903D01*
X181052451Y-76717585D01*
X181282415Y-76947549D01*
X181463097Y-77217958D01*
X181558809Y-77449026D01*
X181587553Y-77518422D01*
X181639664Y-77780398D01*
X181651000Y-77837391D01*
X181651000Y-78162609D01*
X181587553Y-78481579D01*
X181463097Y-78782042D01*
X181282415Y-79052451D01*
X181052451Y-79282415D01*
X180782042Y-79463097D01*
X180481579Y-79587553D01*
X180375256Y-79608702D01*
X180162611Y-79651000D01*
X179837389Y-79651000D01*
X179624744Y-79608702D01*
X179518421Y-79587553D01*
X179217958Y-79463097D01*
X178947549Y-79282415D01*
X178717585Y-79052451D01*
X178536903Y-78782042D01*
X178412447Y-78481579D01*
X178349000Y-78162609D01*
X178349000Y-77837391D01*
X178360337Y-77780398D01*
X178412447Y-77518422D01*
X178441192Y-77449026D01*
X178536903Y-77217958D01*
X178717585Y-76947549D01*
X178947549Y-76717585D01*
X179217958Y-76536903D01*
X179518421Y-76412447D01*
X179624744Y-76391298D01*
X179837389Y-76349000D01*
X180162611Y-76349000D01*
X180375256Y-76391298D01*
X180375256Y-76391298D01*
G37*
G36*
X223375256Y-76391298D02*
G01*
X223481579Y-76412447D01*
X223782042Y-76536903D01*
X224052451Y-76717585D01*
X224282415Y-76947549D01*
X224463097Y-77217958D01*
X224558809Y-77449026D01*
X224587553Y-77518422D01*
X224639664Y-77780398D01*
X224651000Y-77837391D01*
X224651000Y-78162609D01*
X224587553Y-78481579D01*
X224463097Y-78782042D01*
X224282415Y-79052451D01*
X224052451Y-79282415D01*
X223782042Y-79463097D01*
X223481579Y-79587553D01*
X223375256Y-79608702D01*
X223162611Y-79651000D01*
X222837389Y-79651000D01*
X222624744Y-79608702D01*
X222518421Y-79587553D01*
X222217958Y-79463097D01*
X221947549Y-79282415D01*
X221717585Y-79052451D01*
X221536903Y-78782042D01*
X221412447Y-78481579D01*
X221349000Y-78162609D01*
X221349000Y-77837391D01*
X221360337Y-77780398D01*
X221412447Y-77518422D01*
X221441192Y-77449026D01*
X221536903Y-77217958D01*
X221717585Y-76947549D01*
X221947549Y-76717585D01*
X222217958Y-76536903D01*
X222518421Y-76412447D01*
X222624744Y-76391298D01*
X222837389Y-76349000D01*
X223162611Y-76349000D01*
X223375256Y-76391298D01*
X223375256Y-76391298D01*
G37*
G36*
X188611000Y-79391000D02*
G01*
X187309000Y-79391000D01*
X187309000Y-78089000D01*
X188611000Y-78089000D01*
X188611000Y-79391000D01*
X188611000Y-79391000D01*
G37*
G36*
X186071000Y-79391000D02*
G01*
X184769000Y-79391000D01*
X184769000Y-78089000D01*
X186071000Y-78089000D01*
X186071000Y-79391000D01*
X186071000Y-79391000D01*
G37*
G36*
X196313213Y-77311249D02*
G01*
X196407652Y-77339897D01*
X196494687Y-77386418D01*
X196570975Y-77449025D01*
X196633582Y-77525313D01*
X196680103Y-77612348D01*
X196708751Y-77706787D01*
X196716000Y-77780388D01*
X196716000Y-78429612D01*
X196708751Y-78503213D01*
X196680103Y-78597652D01*
X196633582Y-78684687D01*
X196570975Y-78760975D01*
X196494687Y-78823582D01*
X196407651Y-78870103D01*
X196313212Y-78898751D01*
X196215000Y-78908424D01*
X196116787Y-78898751D01*
X196022348Y-78870103D01*
X195935313Y-78823582D01*
X195859025Y-78760975D01*
X195796418Y-78684687D01*
X195749897Y-78597651D01*
X195721249Y-78503212D01*
X195714000Y-78429611D01*
X195714000Y-77780398D01*
X195721250Y-77706789D01*
X195721250Y-77706787D01*
X195749898Y-77612348D01*
X195796419Y-77525313D01*
X195859026Y-77449025D01*
X195935314Y-77386418D01*
X196022349Y-77339897D01*
X196116788Y-77311249D01*
X196215000Y-77301576D01*
X196313213Y-77311249D01*
X196313213Y-77311249D01*
G37*
G36*
X195043213Y-77311249D02*
G01*
X195137652Y-77339897D01*
X195224687Y-77386418D01*
X195300975Y-77449025D01*
X195363582Y-77525313D01*
X195410103Y-77612348D01*
X195438751Y-77706787D01*
X195446000Y-77780388D01*
X195446000Y-78429612D01*
X195438751Y-78503213D01*
X195410103Y-78597652D01*
X195363582Y-78684687D01*
X195300975Y-78760975D01*
X195224687Y-78823582D01*
X195137651Y-78870103D01*
X195043212Y-78898751D01*
X194945000Y-78908424D01*
X194846787Y-78898751D01*
X194752348Y-78870103D01*
X194665313Y-78823582D01*
X194589025Y-78760975D01*
X194526418Y-78684687D01*
X194479897Y-78597651D01*
X194451249Y-78503212D01*
X194444000Y-78429611D01*
X194444000Y-77780398D01*
X194451250Y-77706789D01*
X194451250Y-77706787D01*
X194479898Y-77612348D01*
X194526419Y-77525313D01*
X194589026Y-77449025D01*
X194665314Y-77386418D01*
X194752349Y-77339897D01*
X194846788Y-77311249D01*
X194945000Y-77301576D01*
X195043213Y-77311249D01*
X195043213Y-77311249D01*
G37*
G36*
X194176000Y-78906000D02*
G01*
X193174000Y-78906000D01*
X193174000Y-77304000D01*
X194176000Y-77304000D01*
X194176000Y-78906000D01*
X194176000Y-78906000D01*
G37*
G36*
X199431000Y-77926000D02*
G01*
X198079000Y-77926000D01*
X198079000Y-76824000D01*
X199431000Y-76824000D01*
X199431000Y-77926000D01*
X199431000Y-77926000D01*
G37*
G36*
X201336000Y-77926000D02*
G01*
X199984000Y-77926000D01*
X199984000Y-76824000D01*
X201336000Y-76824000D01*
X201336000Y-77926000D01*
X201336000Y-77926000D01*
G37*
G36*
X208346000Y-77876000D02*
G01*
X206944000Y-77876000D01*
X206944000Y-77074000D01*
X208346000Y-77074000D01*
X208346000Y-77876000D01*
X208346000Y-77876000D01*
G37*
G36*
X206441000Y-77876000D02*
G01*
X205039000Y-77876000D01*
X205039000Y-77074000D01*
X206441000Y-77074000D01*
X206441000Y-77876000D01*
X206441000Y-77876000D01*
G37*
G36*
X204536000Y-77876000D02*
G01*
X203134000Y-77876000D01*
X203134000Y-77074000D01*
X204536000Y-77074000D01*
X204536000Y-77876000D01*
X204536000Y-77876000D01*
G37*
G36*
X211721000Y-77736000D02*
G01*
X209919000Y-77736000D01*
X209919000Y-75934000D01*
X211721000Y-75934000D01*
X211721000Y-77736000D01*
X211721000Y-77736000D01*
G37*
G36*
X218550442Y-75940518D02*
G01*
X218616627Y-75947037D01*
X218786466Y-75998557D01*
X218942991Y-76082222D01*
X218978729Y-76111552D01*
X219080186Y-76194814D01*
X219163448Y-76296271D01*
X219192778Y-76332009D01*
X219276443Y-76488534D01*
X219327963Y-76658373D01*
X219345359Y-76835000D01*
X219327963Y-77011627D01*
X219309042Y-77074000D01*
X219276442Y-77181468D01*
X219256936Y-77217960D01*
X219192778Y-77337991D01*
X219163448Y-77373729D01*
X219080186Y-77475186D01*
X218978729Y-77558448D01*
X218942991Y-77587778D01*
X218786466Y-77671443D01*
X218616627Y-77722963D01*
X218550443Y-77729481D01*
X218484260Y-77736000D01*
X218395740Y-77736000D01*
X218329557Y-77729481D01*
X218263373Y-77722963D01*
X218093534Y-77671443D01*
X217937009Y-77587778D01*
X217901271Y-77558448D01*
X217799814Y-77475186D01*
X217716552Y-77373729D01*
X217687222Y-77337991D01*
X217623064Y-77217960D01*
X217603558Y-77181468D01*
X217570958Y-77074000D01*
X217552037Y-77011627D01*
X217534641Y-76835000D01*
X217552037Y-76658373D01*
X217603557Y-76488534D01*
X217687222Y-76332009D01*
X217716552Y-76296271D01*
X217799814Y-76194814D01*
X217901271Y-76111552D01*
X217937009Y-76082222D01*
X218093534Y-75998557D01*
X218263373Y-75947037D01*
X218329558Y-75940518D01*
X218395740Y-75934000D01*
X218484260Y-75934000D01*
X218550442Y-75940518D01*
X218550442Y-75940518D01*
G37*
G36*
X213470442Y-75940518D02*
G01*
X213536627Y-75947037D01*
X213706466Y-75998557D01*
X213862991Y-76082222D01*
X213898729Y-76111552D01*
X214000186Y-76194814D01*
X214083448Y-76296271D01*
X214112778Y-76332009D01*
X214196443Y-76488534D01*
X214247963Y-76658373D01*
X214265359Y-76835000D01*
X214247963Y-77011627D01*
X214229042Y-77074000D01*
X214196442Y-77181468D01*
X214176936Y-77217960D01*
X214112778Y-77337991D01*
X214083448Y-77373729D01*
X214000186Y-77475186D01*
X213898729Y-77558448D01*
X213862991Y-77587778D01*
X213706466Y-77671443D01*
X213536627Y-77722963D01*
X213470443Y-77729481D01*
X213404260Y-77736000D01*
X213315740Y-77736000D01*
X213249557Y-77729481D01*
X213183373Y-77722963D01*
X213013534Y-77671443D01*
X212857009Y-77587778D01*
X212821271Y-77558448D01*
X212719814Y-77475186D01*
X212636552Y-77373729D01*
X212607222Y-77337991D01*
X212543064Y-77217960D01*
X212523558Y-77181468D01*
X212490958Y-77074000D01*
X212472037Y-77011627D01*
X212454641Y-76835000D01*
X212472037Y-76658373D01*
X212523557Y-76488534D01*
X212607222Y-76332009D01*
X212636552Y-76296271D01*
X212719814Y-76194814D01*
X212821271Y-76111552D01*
X212857009Y-76082222D01*
X213013534Y-75998557D01*
X213183373Y-75947037D01*
X213249558Y-75940518D01*
X213315740Y-75934000D01*
X213404260Y-75934000D01*
X213470442Y-75940518D01*
X213470442Y-75940518D01*
G37*
G36*
X216010442Y-75940518D02*
G01*
X216076627Y-75947037D01*
X216246466Y-75998557D01*
X216402991Y-76082222D01*
X216438729Y-76111552D01*
X216540186Y-76194814D01*
X216623448Y-76296271D01*
X216652778Y-76332009D01*
X216736443Y-76488534D01*
X216787963Y-76658373D01*
X216805359Y-76835000D01*
X216787963Y-77011627D01*
X216769042Y-77074000D01*
X216736442Y-77181468D01*
X216716936Y-77217960D01*
X216652778Y-77337991D01*
X216623448Y-77373729D01*
X216540186Y-77475186D01*
X216438729Y-77558448D01*
X216402991Y-77587778D01*
X216246466Y-77671443D01*
X216076627Y-77722963D01*
X216010443Y-77729481D01*
X215944260Y-77736000D01*
X215855740Y-77736000D01*
X215789557Y-77729481D01*
X215723373Y-77722963D01*
X215553534Y-77671443D01*
X215397009Y-77587778D01*
X215361271Y-77558448D01*
X215259814Y-77475186D01*
X215176552Y-77373729D01*
X215147222Y-77337991D01*
X215083064Y-77217960D01*
X215063558Y-77181468D01*
X215030958Y-77074000D01*
X215012037Y-77011627D01*
X214994641Y-76835000D01*
X215012037Y-76658373D01*
X215063557Y-76488534D01*
X215147222Y-76332009D01*
X215176552Y-76296271D01*
X215259814Y-76194814D01*
X215361271Y-76111552D01*
X215397009Y-76082222D01*
X215553534Y-75998557D01*
X215723373Y-75947037D01*
X215789558Y-75940518D01*
X215855740Y-75934000D01*
X215944260Y-75934000D01*
X216010442Y-75940518D01*
X216010442Y-75940518D01*
G37*
G36*
X186071000Y-77191000D02*
G01*
X184769000Y-77191000D01*
X184769000Y-75889000D01*
X186071000Y-75889000D01*
X186071000Y-77191000D01*
X186071000Y-77191000D01*
G37*
G36*
X188611000Y-77191000D02*
G01*
X187309000Y-77191000D01*
X187309000Y-75889000D01*
X188611000Y-75889000D01*
X188611000Y-77191000D01*
X188611000Y-77191000D01*
G37*
M02*
