M48
; DRILL file {KiCad (5.1.0)-1} date 2019-03-27 16:51:14
; FORMAT={-:-/ absolute / inch / decimal}
; #@! TF.CreationDate,2019-03-27T16:51:14+01:00
; #@! TF.GenerationSoftware,Kicad,Pcbnew,(5.1.0)-1
FMAT,2
INCH
T1C0.0157
T2C0.0236
T3C0.0299
T4C0.0315
T5C0.0394
T6C0.0512
T7C0.0598
T8C0.1260
%
G90
G05
T1
X7.325Y-3.15
X7.4197Y-2.9374
X7.525Y-3.05
X7.775Y-3.05
X8.35Y-3.775
X8.4252Y-3.0152
X8.4965Y-2.7953
X8.5Y-3.1
X8.525Y-2.675
X8.6Y-3.325
X8.6Y-3.6
T2
X7.15Y-3.0
X7.15Y-3.05
X7.15Y-3.1
T3
X7.25Y-3.7476
X7.5492Y-3.7476
T4
X8.189Y-4.252
X8.6614Y-4.252
X7.25Y-4.85
X7.8484Y-4.85
T5
X8.775Y-3.025
X8.775Y-3.125
X8.775Y-3.225
X8.775Y-3.325
X8.775Y-3.425
X8.775Y-3.525
T6
X8.189Y-4.7323
X8.4252Y-4.1732
X8.6614Y-4.7323
T7
X8.1693Y-5.15
X8.3693Y-5.15
X7.5787Y-5.15
X7.7787Y-5.15
T8
X8.7795Y-5.1969
X7.0866Y-5.1969
X8.7795Y-2.6772
X7.0866Y-2.6772
T0
M30
