G04 #@! TF.GenerationSoftware,KiCad,Pcbnew,(5.1.0)-1*
G04 #@! TF.CreationDate,2019-03-27T16:53:26+01:00*
G04 #@! TF.ProjectId,WiFi switch,57694669-2073-4776-9974-63682e6b6963,rev?*
G04 #@! TF.SameCoordinates,Original*
G04 #@! TF.FileFunction,Profile,NP*
%FSLAX46Y46*%
G04 Gerber Fmt 4.6, Leading zero omitted, Abs format (unit mm)*
G04 Created by KiCad (PCBNEW (5.1.0)-1) date 2019-03-27 16:53:26*
%MOMM*%
%LPD*%
G04 APERTURE LIST*
%ADD10C,0.150000*%
G04 APERTURE END LIST*
D10*
X177000000Y-65000000D02*
X177000000Y-135000000D01*
X226000000Y-65000000D02*
X177000000Y-65000000D01*
X226000000Y-135000000D02*
X226000000Y-65000000D01*
X177000000Y-135000000D02*
X226000000Y-135000000D01*
X217960000Y-105425000D02*
X217960000Y-108675000D01*
X216460000Y-108675000D02*
X216455000Y-105510000D01*
X219960000Y-112175000D02*
X222460000Y-112175000D01*
X222460000Y-110675000D02*
X219960000Y-110675000D01*
X222460000Y-110675000D02*
G75*
G02X222460000Y-112175000I0J-750000D01*
G01*
X219960000Y-112175000D02*
G75*
G02X216460000Y-108675000I0J3500000D01*
G01*
X219960000Y-110675000D02*
G75*
G02X217960000Y-108675000I0J2000000D01*
G01*
X211464983Y-105509492D02*
X211459995Y-108668891D01*
X209960000Y-108675000D02*
X209960000Y-105425000D01*
X205460000Y-112175000D02*
X207960000Y-112175000D01*
X205460000Y-110675000D02*
X207960000Y-110675000D01*
X205460000Y-112175000D02*
G75*
G02X205460000Y-110675000I0J750000D01*
G01*
X211459995Y-108668891D02*
G75*
G02X207960000Y-112175000I-3499995J-6109D01*
G01*
X209960000Y-108675000D02*
G75*
G02X207960000Y-110675000I-2000000J0D01*
G01*
X209960000Y-105425000D02*
G75*
G02X217960000Y-105425000I4000000J0D01*
G01*
X211464983Y-105509492D02*
G75*
G02X216455000Y-105510000I2495017J84492D01*
G01*
M02*
