G04 #@! TF.GenerationSoftware,KiCad,Pcbnew,(5.1.0)-1*
G04 #@! TF.CreationDate,2019-04-04T10:35:31+02:00*
G04 #@! TF.ProjectId,WiFi switch,57694669-2073-4776-9974-63682e6b6963,rev?*
G04 #@! TF.SameCoordinates,Original*
G04 #@! TF.FileFunction,Copper,L2,Bot*
G04 #@! TF.FilePolarity,Positive*
%FSLAX46Y46*%
G04 Gerber Fmt 4.6, Leading zero omitted, Abs format (unit mm)*
G04 Created by KiCad (PCBNEW (5.1.0)-1) date 2019-04-04 10:35:31*
%MOMM*%
%LPD*%
G04 APERTURE LIST*
%ADD10C,2.300000*%
%ADD11R,2.000000X2.300000*%
%ADD12C,3.000000*%
%ADD13R,3.000000X3.000000*%
%ADD14R,0.900000X1.500000*%
%ADD15O,0.900000X1.500000*%
%ADD16O,2.500000X2.500000*%
%ADD17R,2.500000X2.500000*%
%ADD18C,1.524000*%
%ADD19C,2.000000*%
%ADD20O,1.700000X1.700000*%
%ADD21R,1.700000X1.700000*%
%ADD22C,0.800000*%
%ADD23C,0.500000*%
%ADD24C,0.250000*%
%ADD25C,2.000000*%
G04 APERTURE END LIST*
D10*
X188575000Y-95190000D03*
X196175000Y-123190000D03*
D11*
X180975000Y-123190000D03*
D10*
X180975000Y-95190000D03*
D12*
X214630000Y-130175000D03*
D13*
X209550000Y-130175000D03*
D14*
X193675000Y-78105000D03*
D15*
X196215000Y-78105000D03*
X194945000Y-78105000D03*
D16*
X220000000Y-108000000D03*
X220000000Y-120200000D03*
X208000000Y-120200000D03*
X208000000Y-108000000D03*
D17*
X214000000Y-106000000D03*
D18*
X204470000Y-128905000D03*
X199390000Y-128905000D03*
D19*
X202575000Y-114300000D03*
X202565000Y-119380000D03*
D12*
X194310000Y-130175000D03*
D13*
X189230000Y-130175000D03*
D20*
X218440000Y-76835000D03*
X215900000Y-76835000D03*
X213360000Y-76835000D03*
D21*
X210820000Y-76835000D03*
D22*
X197464846Y-88415001D03*
X198755000Y-81915000D03*
X216535000Y-95250000D03*
X215900000Y-90805000D03*
X208915000Y-95250000D03*
X208915000Y-88265000D03*
X209550000Y-78740000D03*
X207010000Y-95250000D03*
X204034999Y-95449999D03*
X204034999Y-86160001D03*
X205105000Y-104775000D03*
X207645000Y-80775001D03*
X211455000Y-87630000D03*
X212725000Y-95250000D03*
D23*
X193675000Y-78105000D02*
X193675000Y-82490000D01*
X188247500Y-87917500D02*
X180975000Y-95190000D01*
X189200000Y-86965000D02*
X188247500Y-87917500D01*
X193675000Y-82490000D02*
X189200000Y-86965000D01*
X217590001Y-75985001D02*
X218440000Y-76835000D01*
X217139999Y-75534999D02*
X217590001Y-75985001D01*
X194995001Y-75534999D02*
X217139999Y-75534999D01*
X193675000Y-76855000D02*
X194995001Y-75534999D01*
X193675000Y-78105000D02*
X193675000Y-76855000D01*
X197464846Y-88415001D02*
X198755000Y-87124847D01*
X198755000Y-87124847D02*
X198755000Y-81915000D01*
X196215000Y-87550000D02*
X196215000Y-78105000D01*
X188575000Y-95190000D02*
X196215000Y-87550000D01*
D24*
X213360000Y-76835000D02*
X213360000Y-92075000D01*
X213360000Y-92075000D02*
X216535000Y-95250000D01*
X215900000Y-90805000D02*
X215900000Y-76835000D01*
X208915000Y-95250000D02*
X208915000Y-88265000D01*
X207010000Y-95250000D02*
X207010000Y-84455000D01*
X209550000Y-81915000D02*
X209550000Y-78740000D01*
X207010000Y-84455000D02*
X209550000Y-81915000D01*
X204034999Y-86160001D02*
X204034999Y-95449999D01*
D23*
X220000000Y-106232234D02*
X220000000Y-108000000D01*
X220000000Y-105559480D02*
X220000000Y-106232234D01*
X215834796Y-101394276D02*
X220000000Y-105559480D01*
X208485724Y-101394276D02*
X215834796Y-101394276D01*
X205105000Y-104775000D02*
X208485724Y-101394276D01*
D24*
X207245001Y-80375002D02*
X207645000Y-80775001D01*
X203899989Y-77029990D02*
X207245001Y-80375002D01*
X195893981Y-77029990D02*
X203899989Y-77029990D01*
X195439990Y-77483981D02*
X195893981Y-77029990D01*
X195439990Y-77610010D02*
X195439990Y-77483981D01*
X194945000Y-78105000D02*
X195439990Y-77610010D01*
D25*
X214000000Y-127423680D02*
X214000000Y-106000000D01*
X214630000Y-128053680D02*
X214000000Y-127423680D01*
X214630000Y-130175000D02*
X214630000Y-128053680D01*
D24*
X211455000Y-93980000D02*
X212725000Y-95250000D01*
X211455000Y-87630000D02*
X211455000Y-93980000D01*
D25*
X207010000Y-132715000D02*
X209550000Y-130175000D01*
X196850000Y-132715000D02*
X207010000Y-132715000D01*
X194310000Y-130175000D02*
X196850000Y-132715000D01*
X204470000Y-123730000D02*
X208000000Y-120200000D01*
X204470000Y-128905000D02*
X204470000Y-123730000D01*
X202575000Y-114775000D02*
X208000000Y-120200000D01*
X202575000Y-114300000D02*
X202575000Y-114775000D01*
X197359999Y-126874999D02*
X199390000Y-128905000D01*
X192725999Y-126874999D02*
X197359999Y-126874999D01*
X189425998Y-130175000D02*
X192725999Y-126874999D01*
X189230000Y-130175000D02*
X189425998Y-130175000D01*
X202565000Y-119380000D02*
X199985000Y-119380000D01*
X199985000Y-119380000D02*
X196175000Y-123190000D01*
M02*
