G04 #@! TF.GenerationSoftware,KiCad,Pcbnew,(5.1.0)-1*
G04 #@! TF.CreationDate,2019-04-01T15:13:30+02:00*
G04 #@! TF.ProjectId,WiFi switch,57694669-2073-4776-9974-63682e6b6963,rev?*
G04 #@! TF.SameCoordinates,Original*
G04 #@! TF.FileFunction,Paste,Top*
G04 #@! TF.FilePolarity,Positive*
%FSLAX46Y46*%
G04 Gerber Fmt 4.6, Leading zero omitted, Abs format (unit mm)*
G04 Created by KiCad (PCBNEW (5.1.0)-1) date 2019-04-01 15:13:30*
%MOMM*%
%LPD*%
G04 APERTURE LIST*
%ADD10R,1.300000X0.700000*%
%ADD11R,1.000000X2.500000*%
%ADD12R,1.800000X1.000000*%
%ADD13R,1.550000X1.300000*%
%ADD14R,1.250000X1.000000*%
%ADD15R,1.000000X1.250000*%
%ADD16R,1.200000X1.200000*%
%ADD17R,1.800000X2.500000*%
%ADD18R,0.800000X0.900000*%
%ADD19R,0.700000X1.300000*%
G04 APERTURE END LIST*
D10*
X205740000Y-77475000D03*
X205740000Y-79375000D03*
D11*
X216860000Y-97770000D03*
X214860000Y-97770000D03*
X212860000Y-97770000D03*
X210860000Y-97770000D03*
X208860000Y-97770000D03*
X206860000Y-97770000D03*
X204860000Y-97770000D03*
X202860000Y-97770000D03*
D12*
X201360000Y-95170000D03*
X201360000Y-93170000D03*
X201360000Y-91170000D03*
X201360000Y-89170000D03*
X201360000Y-87170000D03*
X201360000Y-85170000D03*
D11*
X202860000Y-82570000D03*
X204860000Y-82570000D03*
X206860000Y-82570000D03*
X208860000Y-82570000D03*
X210860000Y-82570000D03*
X212860000Y-82570000D03*
X214860000Y-82570000D03*
X216860000Y-82570000D03*
D13*
X186395000Y-89590000D03*
X186395000Y-85090000D03*
X178435000Y-85090000D03*
X178435000Y-89590000D03*
D14*
X200660000Y-77375000D03*
X200660000Y-79375000D03*
X198755000Y-79375000D03*
X198755000Y-77375000D03*
X208915000Y-102330000D03*
X208915000Y-100330000D03*
D15*
X183515000Y-82550000D03*
X181515000Y-82550000D03*
D16*
X185420000Y-76540000D03*
X185420000Y-78740000D03*
X187960000Y-78740000D03*
X187960000Y-76540000D03*
D17*
X202565000Y-104775000D03*
X202565000Y-108775000D03*
D18*
X201930000Y-102235000D03*
X200980000Y-100235000D03*
X202880000Y-100235000D03*
D10*
X190500000Y-82545000D03*
X190500000Y-80645000D03*
X207645000Y-77475000D03*
X207645000Y-79375000D03*
D19*
X179705000Y-82550000D03*
X177805000Y-82550000D03*
D10*
X207010000Y-100330000D03*
X207010000Y-102230000D03*
X185420000Y-80645000D03*
X185420000Y-82545000D03*
X187960000Y-82545000D03*
X187960000Y-80645000D03*
X203835000Y-79375000D03*
X203835000Y-77475000D03*
X205105000Y-100330000D03*
X205105000Y-102230000D03*
D13*
X197190000Y-89590000D03*
X197190000Y-85090000D03*
X189230000Y-85090000D03*
X189230000Y-89590000D03*
M02*
